<svg width="1366" height="654" viewBox="0 0 1366 654" fill="none" xmlns="http://www.w3.org/2000/svg">
<rect y="408.75" width="85.375" height="81.75" fill="white" fill-opacity="0.7"/>
<rect y="327" width="85.375" height="81.75" fill="white" fill-opacity="0.7"/>
<rect x="85.375" y="408.75" width="85.375" height="81.75" fill="#643232" fill-opacity="0.7"/>
<rect x="85.375" y="327" width="85.375" height="81.75" fill="white" fill-opacity="0.7"/>
<rect y="572.25" width="85.375" height="81.75" fill="#C53939" fill-opacity="0.7"/>
<rect y="490.5" width="85.375" height="81.75" fill="white" fill-opacity="0.7"/>
<rect x="85.375" y="572.25" width="85.375" height="81.75" fill="white" fill-opacity="0.7"/>
<rect x="85.375" y="490.5" width="85.375" height="81.75" fill="white" fill-opacity="0.7"/>
<rect x="170.75" y="408.75" width="85.375" height="81.75" fill="white" fill-opacity="0.7"/>
<rect x="170.75" y="327" width="85.375" height="81.75" fill="white" fill-opacity="0.7"/>
<rect x="256.125" y="408.75" width="85.375" height="81.75" fill="white" fill-opacity="0.7"/>
<rect x="256.125" y="327" width="85.375" height="81.75" fill="white" fill-opacity="0.7"/>
<rect x="170.75" y="572.25" width="85.375" height="81.75" fill="white" fill-opacity="0.7"/>
<rect x="170.75" y="490.5" width="85.375" height="81.75" fill="#A51212" fill-opacity="0.7"/>
<rect x="256.125" y="572.25" width="85.375" height="81.75" fill="#60C689" fill-opacity="0.7"/>
<rect x="256.125" y="490.5" width="85.375" height="81.75" fill="white" fill-opacity="0.7"/>
<rect x="341.5" y="408.75" width="85.375" height="81.75" fill="white" fill-opacity="0.7"/>
<rect x="341.5" y="327" width="85.375" height="81.75" fill="#408A81" fill-opacity="0.7"/>
<rect x="426.875" y="408.75" width="85.375" height="81.75" fill="#6B4949" fill-opacity="0.7"/>
<rect x="426.875" y="327" width="85.375" height="81.75" fill="white" fill-opacity="0.7"/>
<rect x="341.5" y="572.25" width="85.375" height="81.75" fill="white" fill-opacity="0.7"/>
<rect x="341.5" y="490.5" width="85.375" height="81.75" fill="white" fill-opacity="0.7"/>
<rect x="426.875" y="572.25" width="85.375" height="81.75" fill="white" fill-opacity="0.7"/>
<rect x="426.875" y="490.5" width="85.375" height="81.75" fill="#9B4E4E" fill-opacity="0.7"/>
<rect x="512.25" y="408.75" width="85.375" height="81.75" fill="white" fill-opacity="0.7"/>
<rect x="512.25" y="327" width="85.375" height="81.75" fill="white" fill-opacity="0.7"/>
<rect x="597.625" y="408.75" width="85.375" height="81.75" fill="white" fill-opacity="0.7"/>
<rect x="597.625" y="327" width="85.375" height="81.75" fill="#E02929" fill-opacity="0.7"/>
<rect x="512.25" y="572.25" width="85.375" height="81.75" fill="white" fill-opacity="0.7"/>
<rect x="512.25" y="490.5" width="85.375" height="81.75" fill="white" fill-opacity="0.7"/>
<rect x="597.625" y="572.25" width="85.375" height="81.75" fill="white" fill-opacity="0.7"/>
<rect x="597.625" y="490.5" width="85.375" height="81.75" fill="#C67A7A" fill-opacity="0.7"/>
<rect y="81.75" width="85.375" height="81.75" fill="white" fill-opacity="0.7"/>
<rect width="85.375" height="81.75" fill="#FFB4B4"/>
<rect x="85.375" y="81.75" width="85.375" height="81.75" fill="white" fill-opacity="0.7"/>
<rect x="85.375" width="85.375" height="81.75" fill="white" fill-opacity="0.7"/>
<rect y="245.25" width="85.375" height="81.75" fill="white" fill-opacity="0.7"/>
<rect y="163.5" width="85.375" height="81.75" fill="white" fill-opacity="0.7"/>
<rect x="85.375" y="245.25" width="85.375" height="81.75" fill="#3A0F0F" fill-opacity="0.7"/>
<rect x="85.375" y="163.5" width="85.375" height="81.75" fill="#4223BD" fill-opacity="0.7"/>
<rect x="170.75" y="81.75" width="85.375" height="81.75" fill="white" fill-opacity="0.7"/>
<rect x="170.75" width="85.375" height="81.75" fill="#320C0C" fill-opacity="0.7"/>
<rect x="256.125" y="81.75" width="85.375" height="81.75" fill="#592121" fill-opacity="0.7"/>
<rect x="256.125" width="85.375" height="81.75" fill="white" fill-opacity="0.7"/>
<rect x="170.75" y="245.25" width="85.375" height="81.75" fill="#5371DA" fill-opacity="0.7"/>
<rect x="170.75" y="163.5" width="85.375" height="81.75" fill="white" fill-opacity="0.7"/>
<rect x="256.125" y="245.25" width="85.375" height="81.75" fill="white" fill-opacity="0.7"/>
<rect x="256.125" y="163.5" width="85.375" height="81.75" fill="white" fill-opacity="0.7"/>
<rect x="341.5" y="81.75" width="85.375" height="81.75" fill="white" fill-opacity="0.7"/>
<rect x="341.5" width="85.375" height="81.75" fill="white" fill-opacity="0.7"/>
<rect x="426.875" y="81.75" width="85.375" height="81.75" fill="#6F0707" fill-opacity="0.7"/>
<rect x="426.875" width="85.375" height="81.75" fill="white" fill-opacity="0.7"/>
<rect x="341.5" y="245.25" width="85.375" height="81.75" fill="#F73838" fill-opacity="0.7"/>
<rect x="341.5" y="163.5" width="85.375" height="81.75" fill="white" fill-opacity="0.7"/>
<rect x="426.875" y="245.25" width="85.375" height="81.75" fill="white" fill-opacity="0.7"/>
<rect x="426.875" y="163.5" width="85.375" height="81.75" fill="white" fill-opacity="0.7"/>
<rect x="512.25" y="81.75" width="85.375" height="81.75" fill="#54CE85" fill-opacity="0.7"/>
<rect x="512.25" width="85.375" height="81.75" fill="#FFB4B4"/>
<rect x="597.625" y="81.75" width="85.375" height="81.75" fill="white" fill-opacity="0.7"/>
<rect x="597.625" width="85.375" height="81.75" fill="white" fill-opacity="0.7"/>
<rect x="512.25" y="245.25" width="85.375" height="81.75" fill="#EB4747" fill-opacity="0.7"/>
<rect x="512.25" y="163.5" width="85.375" height="81.75" fill="white" fill-opacity="0.7"/>
<rect x="597.625" y="245.25" width="85.375" height="81.75" fill="white" fill-opacity="0.7"/>
<rect x="597.625" y="163.5" width="85.375" height="81.75" fill="#624BBC" fill-opacity="0.7"/>
<rect x="683" y="408.75" width="85.375" height="81.75" fill="white" fill-opacity="0.7"/>
<rect x="683" y="327" width="85.375" height="81.75" fill="white" fill-opacity="0.7"/>
<rect x="768.375" y="408.75" width="85.375" height="81.75" fill="white" fill-opacity="0.7"/>
<rect x="768.375" y="327" width="85.375" height="81.75" fill="#2D0D0D" fill-opacity="0.7"/>
<rect x="683" y="572.25" width="85.375" height="81.75" fill="white" fill-opacity="0.7"/>
<rect x="683" y="490.5" width="85.375" height="81.75" fill="white" fill-opacity="0.7"/>
<rect x="768.375" y="572.25" width="85.375" height="81.75" fill="#5371DA" fill-opacity="0.7"/>
<rect x="768.375" y="490.5" width="85.375" height="81.75" fill="white" fill-opacity="0.7"/>
<rect x="853.75" y="408.75" width="85.375" height="81.75" fill="#387D69" fill-opacity="0.7"/>
<rect x="853.75" y="327" width="85.375" height="81.75" fill="white" fill-opacity="0.7"/>
<rect x="939.125" y="408.75" width="85.375" height="81.75" fill="white" fill-opacity="0.7"/>
<rect x="939.125" y="327" width="85.375" height="81.75" fill="white" fill-opacity="0.7"/>
<rect x="853.75" y="572.25" width="85.375" height="81.75" fill="white" fill-opacity="0.7"/>
<rect x="853.75" y="490.5" width="85.375" height="81.75" fill="white" fill-opacity="0.7"/>
<rect x="939.125" y="572.25" width="85.375" height="81.75" fill="white" fill-opacity="0.7"/>
<rect x="939.125" y="490.5" width="85.375" height="81.75" fill="#2E2CAE" fill-opacity="0.7"/>
<rect x="1024.5" y="408.75" width="85.375" height="81.75" fill="white" fill-opacity="0.7"/>
<rect x="1024.5" y="327" width="85.375" height="81.75" fill="#AF1A1A" fill-opacity="0.7"/>
<rect x="1109.88" y="408.75" width="85.375" height="81.75" fill="white" fill-opacity="0.7"/>
<rect x="1109.88" y="327" width="85.375" height="81.75" fill="white" fill-opacity="0.7"/>
<rect x="1024.5" y="572.25" width="85.375" height="81.75" fill="white" fill-opacity="0.7"/>
<rect x="1024.5" y="490.5" width="85.375" height="81.75" fill="white" fill-opacity="0.7"/>
<rect x="1109.88" y="572.25" width="85.375" height="81.75" fill="white" fill-opacity="0.7"/>
<rect x="1109.88" y="490.5" width="85.375" height="81.75" fill="#52B1B1" fill-opacity="0.7"/>
<rect x="1195.25" y="408.75" width="85.375" height="81.75" fill="white" fill-opacity="0.7"/>
<rect x="1195.25" y="327" width="85.375" height="81.75" fill="#1A143C" fill-opacity="0.7"/>
<rect x="1280.62" y="408.75" width="85.375" height="81.75" fill="white" fill-opacity="0.7"/>
<rect x="1280.62" y="327" width="85.375" height="81.75" fill="white" fill-opacity="0.7"/>
<rect x="1195.25" y="572.25" width="85.375" height="81.75" fill="white" fill-opacity="0.7"/>
<rect x="1195.25" y="490.5" width="85.375" height="81.75" fill="white" fill-opacity="0.7"/>
<rect x="1280.62" y="572.25" width="85.375" height="81.75" fill="white" fill-opacity="0.7"/>
<rect x="1280.62" y="490.5" width="85.375" height="81.75" fill="#1A2E22" fill-opacity="0.7"/>
<rect x="683" y="81.75" width="85.375" height="81.75" fill="#04AAF1" fill-opacity="0.7"/>
<rect x="683" width="85.375" height="81.75" fill="white" fill-opacity="0.7"/>
<rect x="768.375" y="81.75" width="85.375" height="81.75" fill="white" fill-opacity="0.7"/>
<rect x="768.375" width="85.375" height="81.75" fill="white" fill-opacity="0.7"/>
<g filter="url(#filter0_d)">
<rect x="683" y="245.25" width="85.375" height="81.75" fill="#FF0000" fill-opacity="0.7"/>
<rect x="683.5" y="245.75" width="84.375" height="80.75" stroke="white"/>
</g>
<rect x="683" y="163.5" width="85.375" height="81.75" fill="white" fill-opacity="0.7"/>
<rect x="768.375" y="245.25" width="85.375" height="81.75" fill="white" fill-opacity="0.7"/>
<rect x="768.375" y="163.5" width="85.375" height="81.75" fill="white" fill-opacity="0.7"/>
<rect x="853.75" y="81.75" width="85.375" height="81.75" fill="white" fill-opacity="0.7"/>
<rect x="853.75" width="85.375" height="81.75" fill="white" fill-opacity="0.7"/>
<rect x="939.125" y="81.75" width="85.375" height="81.75" fill="white" fill-opacity="0.7"/>
<rect x="939.125" width="85.375" height="81.75" fill="#910707" fill-opacity="0.7"/>
<rect x="853.75" y="245.25" width="85.375" height="81.75" fill="white" fill-opacity="0.7"/>
<rect x="853.75" y="163.5" width="85.375" height="81.75" fill="#72FBF3" fill-opacity="0.7"/>
<rect x="939.125" y="245.25" width="85.375" height="81.75" fill="white" fill-opacity="0.7"/>
<rect x="939.125" y="163.5" width="85.375" height="81.75" fill="#DC5252" fill-opacity="0.7"/>
<rect x="1024.5" y="81.75" width="85.375" height="81.75" fill="white" fill-opacity="0.7"/>
<rect x="1024.5" width="85.375" height="81.75" fill="white" fill-opacity="0.7"/>
<rect x="1109.88" y="81.75" width="85.375" height="81.75" fill="white" fill-opacity="0.7"/>
<rect x="1109.88" width="85.375" height="81.75" fill="#A91717" fill-opacity="0.7"/>
<rect x="1024.5" y="245.25" width="85.375" height="81.75" fill="white" fill-opacity="0.7"/>
<rect x="1024.5" y="163.5" width="85.375" height="81.75" fill="white" fill-opacity="0.7"/>
<rect x="1109.88" y="245.25" width="85.375" height="81.75" fill="white" fill-opacity="0.7"/>
<rect x="1109.88" y="163.5" width="85.375" height="81.75" fill="#421515" fill-opacity="0.7"/>
<rect x="1195.25" y="81.75" width="85.375" height="81.75" fill="#D61414" fill-opacity="0.7"/>
<rect x="1195.25" width="85.375" height="81.75" fill="white" fill-opacity="0.7"/>
<rect x="1280.62" y="81.75" width="85.375" height="81.75" fill="white" fill-opacity="0.7"/>
<rect x="1280.62" width="85.375" height="81.75" fill="white" fill-opacity="0.7"/>
<rect x="1195.25" y="245.25" width="85.375" height="81.75" fill="white" fill-opacity="0.7"/>
<rect x="1195.25" y="163.5" width="85.375" height="81.75" fill="white" fill-opacity="0.7"/>
<rect x="1280.62" y="245.25" width="85.375" height="81.75" fill="#4223BD" fill-opacity="0.7"/>
<rect x="1280.62" y="163.5" width="85.375" height="81.75" fill="white" fill-opacity="0.7"/>
<defs>
<filter id="filter0_d" x="679" y="245.25" width="93.375" height="89.75" filterUnits="userSpaceOnUse" color-interpolation-filters="sRGB">
<feFlood flood-opacity="0" result="BackgroundImageFix"/>
<feColorMatrix in="SourceAlpha" type="matrix" values="0 0 0 0 0 0 0 0 0 0 0 0 0 0 0 0 0 0 127 0"/>
<feOffset dy="4"/>
<feGaussianBlur stdDeviation="2"/>
<feColorMatrix type="matrix" values="0 0 0 0 0 0 0 0 0 0 0 0 0 0 0 0 0 0 0.25 0"/>
<feBlend mode="normal" in2="BackgroundImageFix" result="effect1_dropShadow"/>
<feBlend mode="normal" in="SourceGraphic" in2="effect1_dropShadow" result="shape"/>
</filter>
</defs>
</svg>
