<svg width="1428" height="845" viewBox="0 0 1428 845" fill="none" xmlns="http://www.w3.org/2000/svg">
<rect x="31" y="6" width="1366" height="628" fill="#143C24" fill-opacity="0.73"/>
<rect x="204" y="260" width="68" height="65" fill="#143C24"/>
<rect x="204" y="195" width="68" height="65" fill="#143C24"/>
<rect x="272" y="260" width="68" height="65" fill="#FFB4B4"/>
<rect x="272" y="195" width="68" height="65" fill="#1A2E22" fill-opacity="0.7"/>
<rect x="204" y="325" width="68" height="65" fill="#143C24"/>
<rect x="272" y="325" width="68" height="65" fill="#143C24"/>
<rect x="340" y="260" width="68" height="65" fill="#143C24"/>
<rect x="340" y="195" width="68" height="65" fill="#143C24"/>
<rect x="408" y="260" width="68" height="65" fill="#143C24"/>
<rect x="408" y="195" width="68" height="65" fill="#143C24"/>
<rect x="340" y="325" width="68" height="65" fill="#143C24"/>
<rect x="408" y="325" width="68" height="65" fill="#143C24"/>
<rect x="476" y="260" width="68" height="65" fill="#143C24"/>
<rect x="476" y="195" width="68" height="65" fill="#143C24"/>
<rect x="544" y="260" width="68" height="65" fill="#143C24"/>
<rect x="544" y="195" width="68" height="65" fill="#143C24"/>
<rect x="476" y="325" width="68" height="65" fill="#143C24"/>
<rect x="544" y="325" width="68" height="65" fill="#143C24"/>
<rect x="612" y="260" width="68" height="65" fill="#143C24"/>
<rect x="612" y="195" width="68" height="65" fill="#143C24"/>
<rect x="680" y="260" width="68" height="65" fill="#2FB163" fill-opacity="0.7"/>
<rect x="680" y="195" width="68" height="65" fill="#233129" fill-opacity="0.7"/>
<rect x="612" y="325" width="68" height="65" fill="#143C24"/>
<rect x="680" y="325" width="68" height="65" fill="#143C24"/>
<rect x="204" y="2" width="68" height="65" fill="#143C24"/>
<rect x="272" y="2" width="68" height="65" fill="#143C24"/>
<rect x="204" y="130" width="68" height="65" fill="#143C24"/>
<rect x="204" y="65" width="68" height="65" fill="#143C24"/>
<rect x="272" y="130" width="68" height="65" fill="#143C24"/>
<rect x="272" y="65" width="68" height="65" fill="#143C24"/>
<rect x="340" y="2" width="68" height="65" fill="#143C24"/>
<rect x="408" y="2" width="68" height="65" fill="#143C24"/>
<rect x="340" y="130" width="68" height="65" fill="#143C24"/>
<rect x="340" y="65" width="68" height="65" fill="#217442" fill-opacity="0.7"/>
<rect x="408" y="130" width="68" height="65" fill="#143C24"/>
<rect x="408" y="65" width="68" height="65" fill="#143C24"/>
<rect x="476" y="2" width="68" height="65" fill="#7FA8BA" fill-opacity="0.03"/>
<rect x="544" y="2" width="68" height="65" fill="#143C24"/>
<rect x="476" y="130" width="68" height="65" fill="#143C24"/>
<rect x="476" y="65" width="68" height="65" fill="#143C24"/>
<rect x="544" y="130" width="68" height="65" fill="#143C24"/>
<rect x="544" y="65" width="68" height="65" fill="#182F21" fill-opacity="0.7"/>
<rect x="612" y="2" width="68" height="65" fill="#143C24"/>
<rect x="680" y="2" width="68" height="65" fill="#143C24"/>
<rect x="612" y="130" width="68" height="65" fill="#143C24"/>
<rect x="612" y="65" width="68" height="65" fill="#3A485E" fill-opacity="0.7"/>
<rect x="680" y="130" width="68" height="65" fill="#1A143C" fill-opacity="0.7"/>
<rect x="680" y="65" width="68" height="65" fill="#7FA8BA" fill-opacity="0.03"/>
<rect x="748" y="260" width="68" height="65" fill="#143C24"/>
<rect x="748" y="195" width="68" height="65" fill="#C4C4C4"/>
<rect x="816" y="260" width="68" height="65" fill="#143C24"/>
<rect x="816" y="195" width="68" height="65" fill="#41667B" fill-opacity="0.7"/>
<rect x="748" y="325" width="68" height="65" fill="#3A485E" fill-opacity="0.7"/>
<rect x="816" y="325" width="68" height="65" fill="#143C24"/>
<rect x="884" y="260" width="68" height="65" fill="#143C24"/>
<rect x="884" y="195" width="68" height="65" fill="#5371DA" fill-opacity="0.7"/>
<rect x="952" y="260" width="68" height="65" fill="#14263C" fill-opacity="0.7"/>
<rect x="952" y="195" width="68" height="65" fill="#3A485E" fill-opacity="0.7"/>
<rect x="884" y="325" width="68" height="65" fill="#3C142C" fill-opacity="0.7"/>
<rect x="952" y="325" width="68" height="65" fill="#143C24"/>
<rect x="1020" y="260" width="68" height="65" fill="#143C24"/>
<rect x="1020" y="195" width="68" height="65" fill="#143C24"/>
<rect x="1088" y="260" width="68" height="65" fill="#50D786" fill-opacity="0.7"/>
<rect x="1088" y="195" width="68" height="65" fill="#143C24"/>
<rect x="1020" y="325" width="68" height="65" fill="#143C24"/>
<rect x="1088" y="325" width="68" height="65" fill="#143C24"/>
<rect x="1156" y="260" width="68" height="65" fill="#143C24"/>
<rect x="1156" y="195" width="68" height="65" fill="#143C24"/>
<rect x="1224" y="260" width="68" height="65" fill="#143C24"/>
<rect x="1224" y="195" width="68" height="65" fill="#143C24"/>
<rect x="1156" y="325" width="68" height="65" fill="#143C24"/>
<rect x="1224" y="325" width="68" height="65" fill="#143C24"/>
<rect x="748" y="2" width="68" height="65" fill="#60C689" fill-opacity="0.7"/>
<rect x="816" y="2" width="68" height="65" fill="#143C24"/>
<rect x="748" y="130" width="68" height="65" fill="#143C24"/>
<rect x="748" y="65" width="68" height="65" fill="#0A2314" fill-opacity="0.7"/>
<rect x="816" y="130" width="68" height="65" fill="#5371DA" fill-opacity="0.7"/>
<rect x="816" y="65" width="68" height="65" fill="#143C24"/>
<rect x="884" y="2" width="68" height="65" fill="#8544D8" fill-opacity="0.7"/>
<rect x="952" width="68" height="65" fill="#67EB9C" fill-opacity="0.7"/>
<rect x="884" y="130" width="68" height="65" fill="#143C24"/>
<rect x="884" y="65" width="68" height="65" fill="#143C24"/>
<rect x="952" y="130" width="68" height="65" fill="#EC28B5" fill-opacity="0.7"/>
<rect x="952" y="65" width="68" height="65" fill="#143C24"/>
<rect x="1020" width="68" height="65" fill="#143C24"/>
<rect x="1088" width="68" height="65" fill="#143C24"/>
<rect x="1020" y="130" width="68" height="65" fill="#3C1438" fill-opacity="0.7"/>
<rect x="1020" y="65" width="68" height="65" fill="#143C24"/>
<rect x="1088" y="130" width="68" height="65" fill="#354970" fill-opacity="0.7"/>
<rect x="1088" y="65" width="68" height="65" fill="#449B67" fill-opacity="0.7"/>
<rect x="1156" width="68" height="65" fill="#5FA3B1" fill-opacity="0.7"/>
<rect x="1224" width="68" height="65" fill="#143C24"/>
<rect x="1156" y="130" width="68" height="65" fill="#143C24"/>
<rect x="1156" y="65" width="68" height="65" fill="#143C24"/>
<rect x="1224" y="130" width="68" height="65" fill="#143C24"/>
<rect x="1224" y="65" width="68" height="65" fill="#143C24"/>
<rect x="204" y="650" width="68" height="65" fill="#143C24"/>
<rect x="204" y="585" width="68" height="65" fill="#143C24"/>
<rect x="272" y="650" width="68" height="65" fill="#FFB4B4"/>
<rect x="272" y="585" width="68" height="65" fill="#1A2E22" fill-opacity="0.7"/>
<rect x="204" y="780" width="68" height="65" fill="#143C24"/>
<rect x="204" y="715" width="68" height="65" fill="#143C24"/>
<rect x="272" y="780" width="68" height="65" fill="#143C24"/>
<rect x="272" y="715" width="68" height="65" fill="#143C24"/>
<rect x="340" y="650" width="68" height="65" fill="#143C24"/>
<rect x="340" y="585" width="68" height="65" fill="#143C24"/>
<rect x="408" y="650" width="68" height="65" fill="#54CE85" fill-opacity="0.7"/>
<rect x="408" y="585" width="68" height="65" fill="#143C24"/>
<rect x="340" y="780" width="68" height="65" fill="#143C24"/>
<rect x="340" y="715" width="68" height="65" fill="#143C24"/>
<rect x="408" y="780" width="68" height="65" fill="#143C24"/>
<rect x="408" y="715" width="68" height="65" fill="#143C24"/>
<rect x="476" y="650" width="68" height="65" fill="#143C24"/>
<rect x="476" y="585" width="68" height="65" fill="#4E996C" fill-opacity="0.7"/>
<rect x="544" y="650" width="68" height="65" fill="#143C24"/>
<rect x="544" y="585" width="68" height="65" fill="#9EB7C5" fill-opacity="0.7"/>
<rect x="476" y="780" width="68" height="65" fill="#143C24"/>
<rect x="476" y="715" width="68" height="65" fill="#143C24"/>
<rect x="544" y="780" width="68" height="65" fill="#143C24"/>
<rect x="544" y="715" width="68" height="65" fill="#309A5B" fill-opacity="0.7"/>
<rect x="612" y="650" width="68" height="65" fill="#143C24"/>
<rect x="612" y="585" width="68" height="65" fill="#143C24"/>
<rect x="680" y="650" width="68" height="65" fill="#2FB163" fill-opacity="0.7"/>
<rect x="680" y="585" width="68" height="65" fill="#233129" fill-opacity="0.7"/>
<rect x="612" y="780" width="68" height="65" fill="#143C24"/>
<rect x="612" y="715" width="68" height="65" fill="#143C24"/>
<rect x="680" y="780" width="68" height="65" fill="#143C24"/>
<rect x="680" y="715" width="68" height="65" fill="#143C24"/>
<rect x="204" y="390" width="68" height="65" fill="#143C24"/>
<rect x="272" y="390" width="68" height="65" fill="#143C24"/>
<rect x="204" y="520" width="68" height="65" fill="#143C24"/>
<rect x="204" y="455" width="68" height="65" fill="#143C24"/>
<rect x="272" y="520" width="68" height="65" fill="#143C24"/>
<rect x="272" y="455" width="68" height="65" fill="#143C24"/>
<rect x="340" y="390" width="68" height="65" fill="#143C24"/>
<rect x="408" y="390" width="68" height="65" fill="#143C24"/>
<rect x="340" y="520" width="68" height="65" fill="#143C24"/>
<rect x="340" y="455" width="68" height="65" fill="#217442" fill-opacity="0.7"/>
<rect x="408" y="520" width="68" height="65" fill="#143C24"/>
<rect x="408" y="455" width="68" height="65" fill="#143C24"/>
<rect x="476" y="390" width="68" height="65" fill="#143C24" fill-opacity="0.03"/>
<rect x="544" y="390" width="68" height="65" fill="#143C24"/>
<rect x="476" y="520" width="68" height="65" fill="#54CE85" fill-opacity="0.7"/>
<rect x="476" y="455" width="68" height="65" fill="#143C24"/>
<rect x="544" y="520" width="68" height="65" fill="#143C24"/>
<rect x="544" y="455" width="68" height="65" fill="#182F21" fill-opacity="0.7"/>
<rect x="612" y="390" width="68" height="65" fill="#143C24"/>
<rect x="680" y="390" width="68" height="65" fill="#143C24"/>
<rect x="612" y="520" width="68" height="65" fill="#143C24"/>
<rect x="612" y="455" width="68" height="65" fill="#3A485E" fill-opacity="0.7"/>
<rect x="680" y="520" width="68" height="65" fill="#1A143C" fill-opacity="0.7"/>
<rect x="680" y="455" width="68" height="65" fill="#7FA8BA" fill-opacity="0.03"/>
<rect x="748" y="650" width="68" height="65" fill="#143C24"/>
<rect x="748" y="585" width="68" height="65" fill="#C4C4C4"/>
<rect x="816" y="650" width="68" height="65" fill="#143C24"/>
<rect x="816" y="585" width="68" height="65" fill="#41667B" fill-opacity="0.7"/>
<rect x="748" y="780" width="68" height="65" fill="#143C24"/>
<rect x="748" y="715" width="68" height="65" fill="#3A485E" fill-opacity="0.7"/>
<rect x="816" y="780" width="68" height="65" fill="#143C24"/>
<rect x="816" y="715" width="68" height="65" fill="#143C24"/>
<rect x="884" y="650" width="68" height="65" fill="#143C24"/>
<rect x="884" y="585" width="68" height="65" fill="#5371DA" fill-opacity="0.7"/>
<rect x="952" y="650" width="68" height="65" fill="#14263C" fill-opacity="0.7"/>
<rect x="952" y="585" width="68" height="65" fill="#3A485E" fill-opacity="0.7"/>
<rect x="884" y="780" width="68" height="65" fill="#143C24"/>
<rect x="884" y="715" width="68" height="65" fill="#3C142C" fill-opacity="0.7"/>
<rect x="952" y="780" width="68" height="65" fill="#143C24"/>
<rect x="952" y="715" width="68" height="65" fill="#143C24"/>
<rect x="1020" y="650" width="68" height="65" fill="#143C24"/>
<rect x="1020" y="585" width="68" height="65" fill="#143C24"/>
<rect x="1088" y="650" width="68" height="65" fill="#50D786" fill-opacity="0.7"/>
<rect x="1088" y="585" width="68" height="65" fill="#143C24"/>
<rect x="1020" y="780" width="68" height="65" fill="#143C24"/>
<rect x="1020" y="715" width="68" height="65" fill="#143C24"/>
<rect x="1088" y="780" width="68" height="65" fill="#143C24"/>
<rect x="1088" y="715" width="68" height="65" fill="#143C24"/>
<rect x="1156" y="650" width="68" height="65" fill="#143C24"/>
<rect x="1156" y="585" width="68" height="65" fill="#143C24"/>
<rect x="1224" y="650" width="68" height="65" fill="#143C24"/>
<rect x="1224" y="585" width="68" height="65" fill="#143C24"/>
<rect x="1156" y="780" width="68" height="65" fill="#143C24"/>
<rect x="1156" y="715" width="68" height="65" fill="#143C24"/>
<rect x="1224" y="780" width="68" height="65" fill="#143C24"/>
<rect x="1224" y="715" width="68" height="65" fill="#143C24"/>
<rect x="748" y="390" width="68" height="65" fill="#60C689" fill-opacity="0.7"/>
<rect x="816" y="390" width="68" height="65" fill="#143C24"/>
<rect x="748" y="520" width="68" height="65" fill="#143C24"/>
<rect x="748" y="455" width="68" height="65" fill="#0A2314" fill-opacity="0.7"/>
<rect x="816" y="520" width="68" height="65" fill="#5371DA" fill-opacity="0.7"/>
<rect x="816" y="455" width="68" height="65" fill="#143C24"/>
<rect x="884" y="390" width="68" height="65" fill="#8544D8" fill-opacity="0.7"/>
<rect x="952" y="390" width="68" height="65" fill="#67EB9C" fill-opacity="0.7"/>
<rect x="884" y="520" width="68" height="65" fill="#143C24"/>
<rect x="884" y="455" width="68" height="65" fill="#143C24"/>
<rect x="952" y="520" width="68" height="65" fill="#EC28B5" fill-opacity="0.7"/>
<rect x="952" y="455" width="68" height="65" fill="#143C24"/>
<rect x="1020" y="390" width="68" height="65" fill="#143C24"/>
<rect x="1088" y="390" width="68" height="65" fill="#143C24"/>
<rect x="1020" y="520" width="68" height="65" fill="#3C1438" fill-opacity="0.7"/>
<rect x="1020" y="455" width="68" height="65" fill="#143C24"/>
<rect x="1088" y="520" width="68" height="65" fill="#354970" fill-opacity="0.7"/>
<rect x="1088" y="455" width="68" height="65" fill="#449B67" fill-opacity="0.7"/>
<rect x="1156" y="390" width="68" height="65" fill="#5FA3B1" fill-opacity="0.7"/>
<rect x="1224" y="390" width="68" height="65" fill="#143C24"/>
<rect x="1156" y="520" width="68" height="65" fill="#143C24"/>
<rect x="1156" y="455" width="68" height="65" fill="#143C24"/>
<rect x="1224" y="520" width="68" height="65" fill="#143C24"/>
<rect x="1224" y="455" width="68" height="65" fill="#143C24"/>
<rect x="1292" y="305.643" width="68" height="59.9286" fill="#143C24"/>
<rect x="1292" y="245.714" width="68" height="59.9286" fill="#143C24"/>
<rect x="1360" y="305.643" width="68" height="59.9286" fill="#FFB4B4"/>
<rect x="1360" y="245.714" width="68" height="59.9286" fill="#1A2E22" fill-opacity="0.7"/>
<rect x="1292" y="365.571" width="68" height="59.9286" fill="#143C24"/>
<rect x="1360" y="365.571" width="68" height="59.9286" fill="#143C24"/>
<rect x="1292" y="65.9286" width="68" height="59.9286" fill="#143C24"/>
<rect x="1292" y="6" width="68" height="59.9286" fill="#143C24"/>
<rect x="1360" y="65.9286" width="68" height="59.9286" fill="#143C24"/>
<rect x="1360" y="6" width="68" height="59.9286" fill="#143C24"/>
<rect x="1292" y="185.786" width="68" height="59.9286" fill="#143C24"/>
<rect x="1292" y="125.857" width="68" height="59.9286" fill="#143C24"/>
<rect x="1360" y="185.786" width="68" height="59.9286" fill="#143C24"/>
<rect x="1360" y="125.857" width="68" height="59.9286" fill="#143C24"/>
<rect x="1292" y="665.214" width="68" height="59.9286" fill="#143C24"/>
<rect x="1292" y="605.286" width="68" height="59.9286" fill="#143C24"/>
<rect x="1360" y="665.214" width="68" height="59.9286" fill="#FFB4B4"/>
<rect x="1360" y="605.286" width="68" height="59.9286" fill="#1A2E22" fill-opacity="0.7"/>
<rect x="1292" y="785.071" width="68" height="59.9286" fill="#143C24"/>
<rect x="1292" y="725.143" width="68" height="59.9285" fill="#143C24"/>
<rect x="1360" y="785.071" width="68" height="59.9286" fill="#143C24"/>
<rect x="1360" y="725.143" width="68" height="59.9285" fill="#143C24"/>
<rect x="1292" y="425.5" width="68" height="59.9286" fill="#143C24"/>
<rect x="1360" y="425.5" width="68" height="59.9286" fill="#143C24"/>
<rect x="1292" y="545.357" width="68" height="59.9286" fill="#143C24"/>
<rect x="1292" y="485.429" width="68" height="59.9285" fill="#143C24"/>
<rect x="1360" y="545.357" width="68" height="59.9286" fill="#143C24"/>
<rect x="1360" y="485.429" width="68" height="59.9285" fill="#143C24"/>
<rect x="1292" width="68" height="65" fill="#143C24"/>
<rect x="1360" width="68" height="65" fill="#143C24"/>
<rect y="305.643" width="68" height="59.9286" fill="#50D786" fill-opacity="0.7"/>
<rect y="245.714" width="68" height="59.9286" fill="#143C24"/>
<rect y="365.571" width="68" height="59.9286" fill="#143C24"/>
<rect x="68" y="305.643" width="68" height="59.9286" fill="#143C24"/>
<rect x="68" y="245.714" width="68" height="59.9286" fill="#143C24"/>
<rect x="136" y="305.643" width="68" height="59.9286" fill="#143C24"/>
<rect x="136" y="245.714" width="68" height="59.9286" fill="#143C24"/>
<rect x="68" y="365.571" width="68" height="59.9286" fill="#143C24"/>
<rect x="136" y="365.571" width="68" height="59.9286" fill="#143C24"/>
<rect y="65.9286" width="68" height="59.9286" fill="#143C24"/>
<rect y="6" width="68" height="59.9286" fill="#143C24"/>
<rect y="185.786" width="68" height="59.9286" fill="#354970" fill-opacity="0.7"/>
<rect y="125.857" width="68" height="59.9286" fill="#449B67" fill-opacity="0.7"/>
<rect x="68" y="65.9286" width="68" height="59.9286" fill="#5FA3B1" fill-opacity="0.7"/>
<rect x="68" y="6" width="68" height="59.9286" fill="#143C24"/>
<rect x="136" y="65.9286" width="68" height="59.9286" fill="#143C24"/>
<rect x="136" y="6" width="68" height="59.9286" fill="#143C24"/>
<rect x="68" y="185.786" width="68" height="59.9286" fill="#143C24"/>
<rect x="68" y="125.857" width="68" height="59.9286" fill="#143C24"/>
<rect x="136" y="185.786" width="68" height="59.9286" fill="#143C24"/>
<rect x="136" y="125.857" width="68" height="59.9286" fill="#143C24"/>
<rect y="665.214" width="68" height="59.9286" fill="#50D786" fill-opacity="0.7"/>
<rect y="605.286" width="68" height="59.9286" fill="#143C24"/>
<rect y="785.071" width="68" height="59.9286" fill="#143C24"/>
<rect y="725.143" width="68" height="59.9285" fill="#143C24"/>
<rect x="68" y="665.214" width="68" height="59.9286" fill="#143C24"/>
<rect x="68" y="605.286" width="68" height="59.9286" fill="#143C24"/>
<rect x="136" y="665.214" width="68" height="59.9286" fill="#143C24"/>
<rect x="136" y="605.286" width="68" height="59.9286" fill="#143C24"/>
<rect x="68" y="785.071" width="68" height="59.9286" fill="#143C24"/>
<rect x="68" y="725.143" width="68" height="59.9285" fill="#143C24"/>
<rect x="136" y="785.071" width="68" height="59.9286" fill="#143C24"/>
<rect x="136" y="725.143" width="68" height="59.9285" fill="#143C24"/>
<rect y="425.5" width="68" height="59.9286" fill="#143C24"/>
<rect y="545.357" width="68" height="59.9286" fill="#354970" fill-opacity="0.7"/>
<rect y="485.429" width="68" height="59.9285" fill="#449B67" fill-opacity="0.7"/>
<rect x="68" y="425.5" width="68" height="59.9286" fill="#5FA3B1" fill-opacity="0.7"/>
<rect x="136" y="425.5" width="68" height="59.9286" fill="#143C24"/>
<rect x="68" y="545.357" width="68" height="59.9286" fill="#143C24"/>
<rect x="68" y="485.429" width="68" height="59.9285" fill="#143C24"/>
<rect x="136" y="545.357" width="68" height="59.9286" fill="#143C24"/>
<rect x="136" y="485.429" width="68" height="59.9285" fill="#143C24"/>
<rect x="136" y="2" width="68" height="65" fill="#143C24"/>
<rect x="68" y="2" width="68" height="65" fill="#143C24"/>
<rect y="2" width="68" height="65" fill="#143C24"/>
<path fill-rule="evenodd" clip-rule="evenodd" d="M812.008 161.867C859.288 133.833 914.85 117.681 974.296 117.681C1146.57 117.681 1286.23 253.341 1286.23 420.686C1286.23 494.024 1259.41 561.276 1214.77 613.692C1202.35 614.896 1189.75 615.513 1177 615.513C969.341 615.513 801 451.874 801 250.016C801 219.624 804.816 190.098 812.008 161.867Z" fill="#7FA8BA" fill-opacity="0.17"/>
</svg>
