<svg width="173" height="112" viewBox="0 0 173 112" fill="none" xmlns="http://www.w3.org/2000/svg">
<path d="M78.403 39.3726L6 105.646C56.0141 102.159 103.992 102.159 149.935 105.646L78.403 39.3726Z" stroke="black" stroke-width="4" stroke-miterlimit="10"/>
<path d="M6 105.659L77.4983 34.1206" stroke="black" stroke-width="4" stroke-miterlimit="10"/>
<path d="M77.5317 34.1416L149.935 105.659" stroke="black" stroke-width="4" stroke-miterlimit="10"/>
<path d="M6 105.659C54.5397 110.169 102.55 110.453 149.935 105.659" stroke="black" stroke-width="4" stroke-miterlimit="10"/>
<path d="M78.4033 5.36035L80.1501 103.041" stroke="black" stroke-width="4" stroke-miterlimit="10" stroke-dasharray="12 12"/>
<path d="M18.4653 39.8894C45.7764 53.3818 64.3243 71.4925 72.2996 95.1927" stroke="black" stroke-width="4" stroke-miterlimit="10"/>
<path d="M7.74268 35.0127L19.9912 48.1008L19.2408 40.2979L25.6485 35.7838L7.74268 35.0127Z" fill="black"/>
<path d="M77.5317 103.041V107.401" stroke="black" stroke-width="4" stroke-miterlimit="10"/>
<path d="M166.269 7.02753L166.998 0.033327L166.757 0L159.599 7.71943L151.311 14.1384L161.529 11.7876L172.047 11.1082L172.189 10.9289L166.269 7.02753Z" fill="black"/>
</svg>
