<svg width="350" height="254" viewBox="0 0 350 254" fill="none" xmlns="http://www.w3.org/2000/svg">
<path d="M342.69 246.46H8.08002H2.22998V2.44995H342.69V80.86V86.46V246.46Z" fill="#D1D1D1" stroke="black" stroke-width="4" stroke-miterlimit="10"/>
<path d="M347.8 251.04L342.69 80.3201L341.96 246.65H7.3501V252.5H347.8V246.65" fill="#F9F9F9"/>
<path d="M347.8 251.04L342.69 80.3201L341.96 246.65H7.3501V252.5H347.8V246.65" stroke="black" stroke-width="3" stroke-miterlimit="10"/>
<path d="M172.46 1.70996V248.66" stroke="black" stroke-width="3" stroke-miterlimit="10"/>
<path d="M173.46 2.70996L2.5 173.67" stroke="black" stroke-width="3" stroke-miterlimit="10" stroke-dasharray="12 12"/>
<path d="M338.57 168L173.57 3" stroke="black" stroke-width="3" stroke-miterlimit="10" stroke-dasharray="12 12"/>
<path d="M13.1899 13.3999C28.1899 91.1599 69.9999 142.89 143.38 163.99" stroke="black" stroke-width="3" stroke-miterlimit="10" stroke-dasharray="12 12"/>
<path d="M132.51 172.55L139.82 162.95L138 151.02L160.77 168.29L132.51 172.55Z" fill="black"/>
<path d="M328.7 2.5C325.39 86.16 288.1 141.64 210.78 163.91" stroke="black" stroke-width="3" stroke-miterlimit="10" stroke-dasharray="12 12"/>
<path d="M216.15 150.88L214.33 162.82L221.66 172.41L193.39 168.17L216.15 150.88Z" fill="black"/>
</svg>
