<svg width="425" height="256" viewBox="0 0 425 256" fill="none" xmlns="http://www.w3.org/2000/svg">
<path d="M211.68 3.5L42.73 172.44V246.72H382.08V173.9L211.68 3.5Z" fill="#D1D1D1" stroke="black" stroke-width="4" stroke-miterlimit="10"/>
<path d="M211.68 3.5L205.85 172.44" stroke="black" stroke-width="3" stroke-miterlimit="10"/>
<path d="M42.7402 172.44H205.85" stroke="black" stroke-width="3" stroke-miterlimit="10"/>
<path d="M211.68 3.5L218.96 172.44" stroke="black" stroke-width="3" stroke-miterlimit="10"/>
<path d="M382.08 173.9L218.96 172.44" stroke="black" stroke-width="3" stroke-miterlimit="10"/>
<path d="M47.1001 246.72V254" stroke="black" stroke-width="3" stroke-miterlimit="10"/>
<path d="M382.08 173.9L386.44 254" stroke="black" stroke-width="3" stroke-miterlimit="10"/>
<path d="M47.1001 254H386.44" stroke="black" stroke-width="3" stroke-miterlimit="10"/>
<path d="M0.5 172.44H424.31" stroke="black" stroke-width="3" stroke-miterlimit="10" stroke-dasharray="12 12"/>
<path d="M211.68 3.5L213.13 246.72" stroke="black" stroke-width="3" stroke-miterlimit="10"/>
<path d="M191.56 128.35C178.68 169.35 176.95 205.61 191.28 235.06" stroke="black" stroke-width="3" stroke-miterlimit="10"/>
<path d="M198.57 108.36L177.32 132.61L191.16 129.88L200.38 140.55L198.57 108.36Z" fill="black"/>
</svg>
