<svg width="202" height="134" viewBox="0 0 202 134" fill="none" xmlns="http://www.w3.org/2000/svg">
<path d="M96.2827 80.248H103.895L106.747 23.1733L100.089 17.467L93.4312 24.1278L96.2827 80.248Z" fill="#D1D1D1" stroke="black" stroke-width="4" stroke-miterlimit="10"/>
<path d="M100.089 17.467V80.248" stroke="black" stroke-width="4" stroke-miterlimit="10"/>
<path d="M93.4306 16.5166L44.9077 72.6368" stroke="black" stroke-width="4" stroke-miterlimit="10"/>
<path d="M44.9077 72.637L100.089 127.807" stroke="black" stroke-width="4" stroke-miterlimit="10"/>
<path d="M156.22 72.637L100.089 127.807" stroke="black" stroke-width="4" stroke-miterlimit="10"/>
<path d="M106.747 17.467L156.22 72.6369" stroke="black" stroke-width="4" stroke-miterlimit="10"/>
<path d="M100.089 127.807L106.747 17.467" stroke="black" stroke-width="4" stroke-miterlimit="10"/>
<path d="M93.4312 16.5166L100.089 127.807" stroke="black" stroke-width="4" stroke-miterlimit="10"/>
<path d="M44.9077 72.637L100.089 132.563" stroke="black" stroke-width="4" stroke-miterlimit="10"/>
<path d="M156.22 72.637L100.089 132.563" stroke="black" stroke-width="4" stroke-miterlimit="10"/>
<path d="M1 10.5687C31.9882 -2.69439 60.3081 -0.685309 85.8182 17.467" stroke="black" stroke-width="4" stroke-miterlimit="10"/>
<path d="M114.359 17.467C139.048 0.765215 167.231 -3.70725 200.762 10.5145" stroke="black" stroke-width="4" stroke-miterlimit="10"/>
</svg>
