<svg width="145" height="106" viewBox="0 0 145 106" fill="none" xmlns="http://www.w3.org/2000/svg">
<path d="M72.8772 3L33.501 42.3684H112.862L72.8772 3Z" fill="#D1D1D1" stroke="black" stroke-width="4" stroke-miterlimit="10"/>
<path d="M143.15 42.3684H2V104.149H143.15V42.3684Z" stroke="black" stroke-width="3" stroke-miterlimit="10"/>
<path d="M2 73.2588C48.9945 70.0283 96.1553 70.0283 143.15 73.2588" stroke="black" stroke-width="3" stroke-miterlimit="10"/>
<path d="M72.8772 70.837V105.358" stroke="black" stroke-width="3" stroke-miterlimit="10"/>
<path d="M33.501 42.3684L2 73.2587" stroke="black" stroke-width="3" stroke-miterlimit="10" stroke-dasharray="12 12"/>
<path d="M112.862 42.3684L143.15 73.2587" stroke="black" stroke-width="3" stroke-miterlimit="10" stroke-dasharray="12 12"/>
<path d="M11.0886 50.8465C1.29566 34.4447 2.60889 28.8427 11.0886 33.5236" stroke="black" stroke-width="3" stroke-miterlimit="10"/>
<path d="M7.84499 26.9753L9.80025 33.1234L3.40918 34.0154L17.7505 38.1294L7.84499 26.9753Z" fill="black"/>
<path d="M8.9165 29.0803L16.4165 37.2875L10.4382 33.5278L8.9165 29.0803Z" fill="white"/>
<path d="M135.404 32.9276C143.742 27.3172 143.221 35.7619 135.883 50.8507" stroke="black" stroke-width="3" stroke-miterlimit="10"/>
<path d="M138.101 26.1459L136.692 32.444L143.137 32.7691L129.217 38.1294L138.101 26.1459Z" fill="black"/>
<path d="M137.217 28.3384L130.472 37.1749L136.092 32.8984L137.217 28.3384Z" fill="white"/>
<path d="M72.9023 3L72.4854 42.1808" stroke="black" stroke-width="3" stroke-miterlimit="10"/>
</svg>
