<svg width="353" height="256" viewBox="0 0 353 256" fill="none" xmlns="http://www.w3.org/2000/svg">
<path d="M345.44 248.39H7.89999H2V2.23999H345.44V81.34V86.99V248.39Z" fill="#D1D1D1" stroke="black" stroke-width="4" stroke-miterlimit="10"/>
<path d="M350.6 253.03L345.44 80.8101L344.7 248.6H7.15991V254.5H350.6V248.6" fill="#F9F9F9"/>
<path d="M350.6 253.03L345.44 80.8101L344.7 248.6H7.15991V254.5H350.6V248.6" stroke="black" stroke-width="3" stroke-miterlimit="10"/>
<path d="M282.06 117.26C246.24 105.92 182.06 100.09 173.06 100.26C164.06 100.43 108.88 97.4299 46.1899 118.69" stroke="black" stroke-width="3" stroke-miterlimit="10"/>
<path d="M46.96 106.15L14.53 131.21H57.27L46.96 120.89V106.15Z" fill="black" stroke="#070707" stroke-miterlimit="10"/>
<path d="M281.32 98.78L324.07 131.21H269.53L282.79 119.42L281.32 98.78Z" fill="#FCFCFC" stroke="black" stroke-miterlimit="10"/>
<path d="M173.72 1.5V250.6" stroke="black" stroke-width="3" stroke-miterlimit="10" stroke-dasharray="12 12"/>
</svg>
