<svg width="137" height="141" viewBox="0 0 137 141" fill="none" xmlns="http://www.w3.org/2000/svg">
<path d="M68.2496 77.3102L105.412 39.3464L68.2496 3L31.0872 40.1551L68.2496 77.3102Z" fill="#D1D1D1" stroke="black" stroke-width="4" stroke-miterlimit="10"/>
<path d="M29.4695 38.5419L31.8917 40.9636" stroke="black" stroke-width="4" stroke-miterlimit="10"/>
<path d="M2 68.4277L29.4695 38.5419" stroke="black" stroke-width="4" stroke-miterlimit="10"/>
<path d="M2 68.4279L68.2496 133.047" stroke="black" stroke-width="4" stroke-miterlimit="10"/>
<path d="M135.304 69.2365L68.2495 133.047" stroke="black" stroke-width="4" stroke-miterlimit="10"/>
<path d="M105.412 39.3463L107.026 38.5419" stroke="black" stroke-width="4" stroke-miterlimit="10"/>
<path d="M135.304 69.2363L107.025 38.5419" stroke="black" stroke-width="4" stroke-miterlimit="10"/>
<path d="M135.304 69.2365L68.2495 138.699" stroke="black" stroke-width="4" stroke-miterlimit="10"/>
<path d="M68.2495 133.047V139.508" stroke="black" stroke-width="4" stroke-miterlimit="10"/>
<path d="M2 68.4279L68.2496 139.508" stroke="black" stroke-width="4" stroke-miterlimit="10"/>
<path d="M29.4695 38.5419L96.5237 106.391" stroke="black" stroke-width="4" stroke-miterlimit="10"/>
<path d="M107.025 38.5419L68.2495 77.3101" stroke="black" stroke-width="4" stroke-miterlimit="10"/>
<path d="M2 68.4279L135.304 69.2365" stroke="black" stroke-width="4" stroke-miterlimit="10" stroke-dasharray="12 12"/>
<path d="M64.7978 30.9393C52.7577 65.2934 55.0006 94.3497 68.2497 119.305" stroke="black" stroke-width="4" stroke-miterlimit="10"/>
<path d="M69.0541 19.9645L56.8223 33.0567L64.5558 31.7896L69.4919 37.8752L69.0541 19.9645Z" fill="black"/>
<path d="M108.889 126.024L122.376 139.508" stroke="black" stroke-width="4" stroke-miterlimit="10"/>
<path d="M100.563 117.7L107.501 134.222L109.51 126.644L117.089 124.635L100.563 117.7Z" fill="black"/>
</svg>
