<svg width="293" height="276" viewBox="0 0 293 276" fill="none" xmlns="http://www.w3.org/2000/svg">
<rect width="85.375" height="81.75" transform="matrix(-1 0 0 1 190.375 95)" fill="#408A81" fill-opacity="0.7"/>
<rect width="85.375" height="81.75" transform="matrix(-1 0 0 1 85.375 194)" fill="#4223BD" fill-opacity="0.7"/>
<rect width="85.375" height="81.75" transform="matrix(-1 0 0 1 190.375 194)" fill="#1A143C" fill-opacity="0.7"/>
<rect width="85.375" height="81.75" transform="matrix(-1 0 0 1 292.375 194)" fill="#C67A7A" fill-opacity="0.7"/>
<rect width="85.375" height="81.75" transform="matrix(-1 0 0 1 85.375 97)" fill="#1A143C" fill-opacity="0.7"/>
<rect width="85.375" height="81.75" transform="matrix(-1 0 0 1 85.375 0)" fill="#52B1B1" fill-opacity="0.7"/>
<path d="M253.086 251H248.727V222.102L239.984 225.312V221.375L252.406 216.711H253.086V251Z" fill="black"/>
<path d="M159.195 251H136.836V247.883L148.648 234.758C150.398 232.773 151.602 231.164 152.258 229.93C152.93 228.68 153.266 227.391 153.266 226.062C153.266 224.281 152.727 222.82 151.648 221.68C150.57 220.539 149.133 219.969 147.336 219.969C145.18 219.969 143.5 220.586 142.297 221.82C141.109 223.039 140.516 224.742 140.516 226.93H136.18C136.18 223.789 137.188 221.25 139.203 219.312C141.234 217.375 143.945 216.406 147.336 216.406C150.508 216.406 153.016 217.242 154.859 218.914C156.703 220.57 157.625 222.781 157.625 225.547C157.625 228.906 155.484 232.906 151.203 237.547L142.062 247.461H159.195V251Z" fill="black"/>
<path d="M38.1406 231.828H41.3984C43.4453 231.797 45.0547 231.258 46.2266 230.211C47.3984 229.164 47.9844 227.75 47.9844 225.969C47.9844 221.969 45.9922 219.969 42.0078 219.969C40.1328 219.969 38.6328 220.508 37.5078 221.586C36.3984 222.648 35.8438 224.062 35.8438 225.828H31.5078C31.5078 223.125 32.4922 220.883 34.4609 219.102C36.4453 217.305 38.9609 216.406 42.0078 216.406C45.2266 216.406 47.75 217.258 49.5781 218.961C51.4062 220.664 52.3203 223.031 52.3203 226.062C52.3203 227.547 51.8359 228.984 50.8672 230.375C49.9141 231.766 48.6094 232.805 46.9531 233.492C48.8281 234.086 50.2734 235.07 51.2891 236.445C52.3203 237.82 52.8359 239.5 52.8359 241.484C52.8359 244.547 51.8359 246.977 49.8359 248.773C47.8359 250.57 45.2344 251.469 42.0312 251.469C38.8281 251.469 36.2188 250.602 34.2031 248.867C32.2031 247.133 31.2031 244.844 31.2031 242H35.5625C35.5625 243.797 36.1484 245.234 37.3203 246.312C38.4922 247.391 40.0625 247.93 42.0312 247.93C44.125 247.93 45.7266 247.383 46.8359 246.289C47.9453 245.195 48.5 243.625 48.5 241.578C48.5 239.594 47.8906 238.07 46.6719 237.008C45.4531 235.945 43.6953 235.398 41.3984 235.367H38.1406V231.828Z" fill="black"/>
<path d="M155.141 142.539H159.875V146.078H155.141V154H150.781V146.078H135.242V143.523L150.523 119.875H155.141V142.539ZM140.164 142.539H150.781V125.805L150.266 126.742L140.164 142.539Z" fill="black"/>
<path d="M33.8281 136.891L35.5625 119.875H53.0469V123.883H39.2422L38.2109 133.188C39.8828 132.203 41.7812 131.711 43.9062 131.711C47.0156 131.711 49.4844 132.742 51.3125 134.805C53.1406 136.852 54.0547 139.625 54.0547 143.125C54.0547 146.641 53.1016 149.414 51.1953 151.445C49.3047 153.461 46.6562 154.469 43.25 154.469C40.2344 154.469 37.7734 153.633 35.8672 151.961C33.9609 150.289 32.875 147.977 32.6094 145.023H36.7109C36.9766 146.977 37.6719 148.453 38.7969 149.453C39.9219 150.438 41.4062 150.93 43.25 150.93C45.2656 150.93 46.8438 150.242 47.9844 148.867C49.1406 147.492 49.7188 145.594 49.7188 143.172C49.7188 140.891 49.0938 139.062 47.8438 137.688C46.6094 136.297 44.9609 135.602 42.8984 135.602C41.0078 135.602 39.5234 136.016 38.4453 136.844L37.2969 137.781L33.8281 136.891Z" fill="black"/>
<path d="M48.8516 22.8516V26.5312H48.0547C44.6797 26.5938 41.9922 27.5938 39.9922 29.5312C37.9922 31.4688 36.8359 34.1953 36.5234 37.7109C38.3203 35.6484 40.7734 34.6172 43.8828 34.6172C46.8516 34.6172 49.2188 35.6641 50.9844 37.7578C52.7656 39.8516 53.6562 42.5547 53.6562 45.8672C53.6562 49.3828 52.6953 52.1953 50.7734 54.3047C48.8672 56.4141 46.3047 57.4688 43.0859 57.4688C39.8203 57.4688 37.1719 56.2188 35.1406 53.7188C33.1094 51.2031 32.0938 47.9688 32.0938 44.0156V42.3516C32.0938 36.0703 33.4297 31.2734 36.1016 27.9609C38.7891 24.6328 42.7812 22.9297 48.0781 22.8516H48.8516ZM43.1562 38.2266C41.6719 38.2266 40.3047 38.6719 39.0547 39.5625C37.8047 40.4531 36.9375 41.5703 36.4531 42.9141V44.5078C36.4531 47.3203 37.0859 49.5859 38.3516 51.3047C39.6172 53.0234 41.1953 53.8828 43.0859 53.8828C45.0391 53.8828 46.5703 53.1641 47.6797 51.7266C48.8047 50.2891 49.3672 48.4062 49.3672 46.0781C49.3672 43.7344 48.7969 41.8438 47.6562 40.4062C46.5312 38.9531 45.0312 38.2266 43.1562 38.2266Z" fill="black"/>
</svg>
