<svg width="596" height="367" viewBox="0 0 596 367" fill="none" xmlns="http://www.w3.org/2000/svg">
<rect x="102" y="184" width="85.375" height="81.75" fill="#408A81" fill-opacity="0.7"/>
<rect x="207" y="283" width="85.375" height="81.75" fill="#4223BD" fill-opacity="0.7"/>
<rect x="102" y="283" width="85.375" height="81.75" fill="#1A143C" fill-opacity="0.7"/>
<rect y="283" width="85.375" height="81.75" fill="#C67A7A" fill-opacity="0.7"/>
<rect x="207" y="186" width="85.375" height="81.75" fill="#1A143C" fill-opacity="0.7"/>
<rect x="207" y="89" width="85.375" height="81.75" fill="#52B1B1" fill-opacity="0.7"/>
<rect width="85.375" height="81.75" transform="matrix(-1 0 0 1 493.375 186)" fill="#408A81" fill-opacity="0.7"/>
<rect width="85.375" height="81.75" transform="matrix(-1 0 0 1 388.375 285)" fill="#4223BD" fill-opacity="0.7"/>
<rect width="85.375" height="81.75" transform="matrix(-1 0 0 1 493.375 285)" fill="#1A143C" fill-opacity="0.7"/>
<rect width="85.375" height="81.75" transform="matrix(-1 0 0 1 595.375 285)" fill="#C67A7A" fill-opacity="0.7"/>
<rect width="85.375" height="81.75" transform="matrix(-1 0 0 1 388.375 188)" fill="#1A143C" fill-opacity="0.7"/>
<rect width="85.375" height="81.75" transform="matrix(-1 0 0 1 346.375 0)" fill="#FF0000" fill-opacity="0.7"/>
<rect width="85.375" height="81.75" transform="matrix(-1 0 0 1 388.375 91)" fill="#52B1B1" fill-opacity="0.7"/>
</svg>
