<svg width="130" height="154" viewBox="0 0 130 154" fill="none" xmlns="http://www.w3.org/2000/svg">
<path d="M4 143.105L17.4269 98.8485C17.4269 98.8485 6.63449 59.0722 5.54926 56.85C4.46403 54.6278 9.58328 49.635 13.9317 53.7259C18.2801 57.8168 22.4638 72.5932 22.4638 72.5932C22.4638 72.5932 28.6309 42.4417 29.1024 37.4777C29.7536 30.6524 32.4778 27.3767 35.0899 27.5788C37.7019 27.7808 38.8321 31.6192 38.7497 37.4922C38.6449 45.2844 37.0508 60.1329 37.0508 60.1329C37.0508 60.1329 45.8748 34.4186 47.1022 30.7534C48.3296 27.0882 51.1438 22.8169 54.5042 24.3032C57.4156 25.5946 57.2585 31.8645 55.6868 37.6653C54.9383 40.371 49.8115 61.28 49.8115 61.28C49.8115 61.28 59.9528 38.8125 61.5694 35.7461C63.463 32.1386 68.7095 32.5643 67.8413 39.5845C67.4372 42.8529 61.1054 67.6581 61.1054 67.6581C61.1054 67.6581 68.4475 53.4734 70.4009 51.2873C72.3543 49.1011 77.1368 49.0362 75.7522 56.0492C74.3676 63.0621 68.687 74.6783 67.0854 78.8919C65.4837 83.1054 63.1561 91.0131 60.4318 96.6408C57.7075 102.268 50.8594 108.293 50.8594 108.293L46.3239 154L4 143.105Z" fill="#E69C83"/>
<path d="M34.4249 75.2525C39.1763 79.4666 41.9954 88 41.9954 88C41.9954 88 42.4705 75.5194 33.7597 70.3642C29.1112 67.6181 25.4764 67.5548 23.3066 67C22.4039 71.1579 22 72.9488 22 72.9488C22 72.9488 29.6893 71.0666 34.4249 75.2525Z" fill="#CD8B74"/>
<path d="M5 57.1523C5 57.1523 6.61815 56.6433 7.5 57.4865C8.38185 58.3298 10 63.3211 10 63.3211L7.63696 65L5 57.1523Z" fill="#FFCEBD"/>
<path d="M33 60C38.187 60.1975 43.3426 60.8155 48.4022 61.8462C56.1703 63.5077 63 69 63 69C63 69 54.6509 65.3802 47.784 63.2571C42.9546 61.8467 38.0128 60.7579 33 60Z" fill="#CD8B74"/>
<path d="M61.8965 98C64.6956 92.3217 67.041 84.3502 68.7251 80.1134C69.8248 77.3397 72.7315 71.3775 75 65.5536L67.264 60.2757C64.8955 64.5126 62.6501 68.7859 62.6501 68.7859C62.6501 68.7859 63.8113 64.2869 65.1877 58.8561L55.6447 52.3042C53.1532 57.6695 51.0308 62.3141 51.0308 62.3141C51.0308 62.3141 52.4072 56.8178 53.8529 51.0739L43.8561 44.2309C41.0416 52.3261 37.9503 61.1566 37.9503 61.1566C37.9503 61.1566 39.2115 49.5088 39.5652 41.2971L30.3374 35C30.0728 36.0763 29.8852 37.1684 29.776 38.2687C29.5761 40.358 28.3534 46.8735 27 53.7529C28.0401 54.41 29.1744 54.9224 30.3682 55.2744C30.3682 55.2744 27.7921 56.2135 28.115 60.2611C28.438 64.3088 40.9801 80.1862 40.9801 80.1862C40.9801 80.1862 42.7949 91.2297 49.4928 94.3309C53.4339 96.0772 57.6063 97.3114 61.8965 98Z" fill="#CD8B74"/>
<path d="M79.0802 17.1544C79.0802 17.1544 76.4448 12.951 73.2807 13.2409C70.1167 13.5308 64.9742 15.1904 64.9742 15.1904C64.9742 15.1904 60.2847 8.85634 54.8251 10.1826C49.3654 11.5088 49.1237 15.3353 49.1237 15.3353C49.1237 15.3353 42.2595 12.0813 39.473 17.1544C36.6865 22.2274 38.008 23.5971 38.008 23.5971C38.008 23.5971 32.269 22.4303 30.6303 26.438C28.9917 30.4457 30.6303 31.3516 30.6303 31.3516C30.6303 31.3516 25.5557 34.6781 26.0315 40.5121C26.6129 47.5999 32.707 48.9696 32.707 48.9696C32.707 48.9696 26.4544 57.8329 32.1179 63.2756C37.7815 68.7182 41.7913 69.914 41.7913 69.914C41.7913 69.914 39.2314 83.604 47.2283 88.032C55.2253 92.46 64.9515 88.032 64.9515 88.032L95.3007 71.2112C95.3007 71.2112 98.0267 68.8994 98.865 62.2537C99.7032 55.608 96.3654 52.3758 96.3654 52.3758C96.3654 52.3758 98.2533 47.4332 96.3654 43.969C94.4776 40.5049 90.6188 38.3597 90.6188 38.3597C91.6129 34.3655 91.1986 30.1676 89.4408 26.4235C86.4882 19.959 79.0802 17.1544 79.0802 17.1544Z" fill="#D5EDFC"/>
<path d="M82.4404 27.4145C82.4404 27.4145 78.0977 21.1159 73.0169 22.4325C67.9362 23.7492 67.9362 26.2758 67.9362 26.2758C67.9362 26.2758 64.9452 21.1372 60.0897 22.1265C55.2343 23.1158 56.0577 26.532 56.0577 26.532C56.0577 26.532 49.4699 23.735 47.015 28.1761C45.5556 30.6972 45.1391 33.6163 45.8419 36.3963C45.8419 36.3963 43.5112 31.4642 39.487 32.1261C35.4628 32.788 36.7214 37.4354 36.7214 37.4354C35.7025 38.4212 34.9371 39.6033 34.4814 40.8951C34.0258 42.1869 33.8912 43.5557 34.0877 44.9013C34.2565 46.2715 34.877 47.5619 35.8666 48.6008C36.8562 49.6396 38.1679 50.3775 39.6269 50.716C39.6269 50.716 35.6337 53.6341 37.8401 59.9683C40.0464 66.3026 48.6541 70.8433 48.6541 70.8433C48.6541 70.8433 44.459 78.5654 46.8751 82.8641C49.2912 87.1629 56.8036 86.9992 56.8036 86.9992L95.0569 62.9504C96.1171 60.2843 96.7681 57.4962 96.9913 54.666C97.2243 50.3958 92.7107 47.6912 92.7107 47.6912C92.7107 47.6912 94.6374 45.4138 93.9537 42.9726C93.2701 40.5314 88.9817 37.0511 88.9817 37.0511L82.4404 27.4145Z" fill="#E6F4FD"/>
<path d="M93.3196 154L70.8876 97.8709C70.8876 97.8709 53.7558 87.5734 47.0254 81.6295C40.2951 75.6856 30.299 62.8191 27.6527 57.8322C25.0064 52.8454 31.0485 52.0754 34.3142 53.5146C37.58 54.9538 51.8514 67.5684 51.8514 67.5684C51.8514 67.5684 49.404 56.6952 46.9566 52.0898C44.5092 47.4843 34.8573 23.8238 33.3582 20.3697C31.8592 16.9156 32.341 13.5262 34.8879 12.454C37.4347 11.3818 39.2091 11.6553 42.0312 16.196C43.5226 18.5994 57.0215 42.4831 57.0215 42.4831C57.0215 42.4831 46.8419 14.7064 45.5952 10.0002C44.3486 5.29398 45.3122 1.14906 47.7749 0.256752C48.627 -0.0408069 49.5566 -0.0807951 50.434 0.142362C51.3115 0.36552 52.093 0.840701 52.6698 1.50167C53.2128 2.14211 68.8456 36.5176 68.8456 36.5176C68.8456 36.5176 60.7079 14.3538 59.7443 11.2883C58.2147 6.35899 62.3064 5.22921 64.2108 5.86966C66.1152 6.5101 79.4535 33.8982 79.4535 33.8982C79.4535 33.8982 77.9239 22.1255 77.9239 18.6786C77.9239 15.2317 79.5835 13.2168 82.1456 12.9218C84.1036 12.6987 84.6772 15.2101 85.6791 18.7937C86.1227 20.4056 97.5031 63.8265 98.5891 70.2238C99.6752 76.6211 101.037 84.033 101.037 84.033L130 126.123L93.3196 154Z" fill="#FFAD91"/>
<path d="M27 56.0693C27.0639 56.6502 27.2735 57.2148 27.6164 57.7294C28.5879 59.2027 29.6674 60.6287 30.8492 62C31.8491 61.4346 32.9092 60.6346 32.9919 59.6782C33.1497 57.8737 30.977 54.8663 29.2328 55.0046C28.354 55.1358 27.5624 55.5132 27 56.0693Z" fill="#FFCEBD"/>
<path d="M38.9309 13C37.6503 13.0854 36.4064 13.3579 35.2735 13.8012C34.7722 13.9805 34.3788 14.2877 34.1682 14.6645C33.9575 15.0413 33.9443 15.4613 34.1311 15.8447C34.5198 16.5937 35.0021 17.3152 35.5719 18C35.5719 18 38.5302 17.3106 39.7067 16.9503C40.4908 16.7026 41.2563 16.4248 42 16.118C42 16.118 39.5873 13.2733 38.9309 13Z" fill="#FFCEBD"/>
<path d="M52.305 1.1412C51.2341 0.866058 50.1014 0.99577 49.1172 1.50627C48.7222 1.66411 48.3965 1.96193 48.2 2.34491C48.0036 2.72789 47.9496 3.17024 48.048 3.59051C48.2587 4.41891 48.5446 5.22555 48.9021 6C48.9021 6 51.2294 5.50881 52.1616 5.22339C52.7865 5.03853 53.4003 4.8169 54 4.55962C54 4.55962 52.8005 1.493 52.305 1.1412Z" fill="#FFCEBD"/>
<path d="M64.6134 6.11343C63.7201 5.89263 62.7751 5.99639 61.9541 6.40545C61.6211 6.52655 61.3445 6.76186 61.1758 7.06756C61.007 7.37326 60.9577 7.7285 61.0369 8.06715C61.2124 8.73149 61.4505 9.37854 61.7479 10C61.7479 10 63.6819 9.6037 64.4641 9.38121C64.9856 9.22203 65.4983 9.03638 66 8.82499C66 8.82499 65.0045 6.39154 64.6134 6.11343Z" fill="#FFCEBD"/>
<path d="M84.6197 13.2868C83.5522 12.8864 82.381 12.9058 81.3262 13.3414C80.9058 13.4608 80.5412 13.735 80.3002 14.1132C80.0592 14.4914 79.9582 14.9478 80.0158 15.3977C80.1532 16.2833 80.3666 17.1542 80.6535 18C80.6535 18 83.0734 17.727 84.0519 17.5178C84.7103 17.3766 85.3607 17.1973 86 16.9809C86 16.9809 85.0653 13.6962 84.6197 13.2868Z" fill="#FFCEBD"/>
<path d="M25 29.5C25 30.39 24.7067 31.26 24.1573 32.0001C23.6079 32.7401 22.8271 33.3169 21.9134 33.6575C20.9998 33.9981 19.9945 34.0872 19.0246 33.9135C18.0547 33.7399 17.1637 33.3113 16.4645 32.682C15.7652 32.0526 15.289 31.2508 15.0961 30.3779C14.9032 29.505 15.0022 28.6002 15.3806 27.7779C15.759 26.9557 16.3999 26.2529 17.2222 25.7584C18.0444 25.2639 19.0111 25 20 25C21.3261 25 22.5979 25.4741 23.5355 26.318C24.4732 27.1619 25 28.3065 25 29.5Z" fill="#D5EDFC"/>
<path d="M19.5 31C20.8807 31 22 29.8807 22 28.5C22 27.1193 20.8807 26 19.5 26C18.1193 26 17 27.1193 17 28.5C17 29.8807 18.1193 31 19.5 31Z" fill="#E6F4FD"/>
<path d="M22 13C23.1046 13 24 12.1046 24 11C24 9.89543 23.1046 9 22 9C20.8954 9 20 9.89543 20 11C20 12.1046 20.8954 13 22 13Z" fill="#E6F4FD"/>
<path d="M126 44C126 45.7804 125.472 47.5207 124.483 49.0009C123.493 50.4811 122.087 51.6347 120.442 52.3156C118.797 52.9966 116.987 53.1744 115.241 52.8265C113.495 52.4786 111.892 51.6207 110.633 50.3612C109.375 49.1018 108.518 47.4974 108.172 45.7511C107.826 44.0048 108.005 42.1949 108.687 40.5505C109.37 38.9061 110.524 37.5011 112.005 36.513C113.486 35.525 115.227 34.9985 117.008 35C118.189 35 119.359 35.2328 120.451 35.6852C121.542 36.1376 122.534 36.8007 123.369 37.6365C124.204 38.4723 124.866 39.4645 125.318 40.5564C125.769 41.6483 126.001 42.8185 126 44Z" fill="#D5EDFC"/>
<path d="M123 44.5C123 45.5881 122.677 46.6518 122.073 47.5564C121.468 48.4611 120.608 49.166 119.603 49.5821C118.598 49.9981 117.491 50.1066 116.424 49.8938C115.357 49.6809 114.377 49.1563 113.608 48.3863C112.839 47.6164 112.316 46.6357 112.105 45.5683C111.893 44.5009 112.003 43.3947 112.421 42.3899C112.838 41.385 113.545 40.5266 114.45 39.9232C115.355 39.3197 116.42 38.9985 117.508 39C118.23 39 118.944 39.1423 119.611 39.4188C120.278 39.6953 120.884 40.1006 121.394 40.6114C121.904 41.1222 122.309 41.7286 122.584 42.3958C122.86 43.0631 123.001 43.7781 123 44.5Z" fill="#E6F4FD"/>
<path d="M111.5 79C113.985 79 116 77.433 116 75.5C116 73.567 113.985 72 111.5 72C109.015 72 107 73.567 107 75.5C107 77.433 109.015 79 111.5 79Z" fill="#E6F4FD"/>
<path d="M111.486 66C111.486 66 118.97 55.3171 112.094 44.5991C105.217 33.8812 97.4087 32.9068 97.4087 32.9068L102.241 28L83 34.2737L90.6899 46.1904L93.4769 39.8816C95.8969 40.726 98.1041 41.9886 99.9703 43.5963C101.837 45.2039 103.325 47.1245 104.349 49.2466C107.601 56.3265 100.622 64.1284 100.622 64.1284L111.486 66Z" fill="black"/>
<path d="M3.61106 91C3.61106 91 -3.84883 102.073 2.67566 113.389C9.20015 124.704 16.8687 125.863 16.8687 125.863L12.0604 131L31 124.697L23.6561 112.112L20.8267 118.716C18.4626 117.789 16.3171 116.424 14.5158 114.7C12.7145 112.977 11.2937 110.929 10.3365 108.677C7.24433 101.222 14.2017 93.1501 14.2017 93.1501L3.61106 91Z" fill="black"/>
</svg>
