<svg width="133" height="175" viewBox="0 0 133 175" fill="none" xmlns="http://www.w3.org/2000/svg">
<path d="M0 151.482L14.533 104.469C14.533 104.469 2.85645 62.216 1.67114 59.8636C0.485829 57.5112 6.04435 52.1661 10.7561 56.5368C15.4679 60.9076 19.9956 76.5809 19.9956 76.5809C19.9956 76.5809 26.6732 44.5661 27.1885 39.2836C27.9247 32.0316 30.8696 28.5308 33.6304 28.7675C36.3912 29.0041 37.6649 33.0616 37.5913 39.2975C37.4956 47.6075 35.795 63.3783 35.795 63.3783C35.795 63.3783 45.3657 36.0613 46.6836 32.1708C48.0014 28.2803 51.1009 23.7425 54.701 25.3224C57.852 26.7143 57.6459 33.3539 55.9746 39.5133C55.1795 42.3946 49.6137 64.5684 49.6137 64.5684C49.6137 64.5684 60.5981 40.7034 62.3503 37.4254C64.4044 33.5906 70.0806 34.0429 69.1456 41.4968C68.7039 44.9767 61.8718 71.3193 61.8718 71.3193C61.8718 71.3193 69.8303 56.2515 71.9433 53.92C74.0562 51.5885 79.2171 51.5328 77.7373 58.9797C76.2575 66.4266 70.0586 78.7593 68.2843 83.2275C66.51 87.6956 64.0363 96.096 61.0767 102.074C58.1171 108.053 50.7108 114.456 50.7108 114.456L45.8001 163L0 151.482Z" fill="#E69C83"/>
<path d="M33.0457 79.031C38.0133 83.6128 40.9954 93 40.9954 93C40.9954 93 41.486 79.3313 32.3435 73.6878C27.4665 70.6775 23.6465 70.5937 21.3741 70C20.4228 74.5539 20 76.5166 20 76.5166C20 76.5166 28.0705 74.4631 33.0457 79.031Z" fill="#CD8B74"/>
<path d="M2 60.1562C2 60.1562 3.62266 59.6388 4.5 60.4873C5.37734 61.3359 7 66.3236 7 66.3236L4.63202 68L2 60.1562Z" fill="#FFCEBD"/>
<path d="M31 63C36.7073 63.2416 42.3799 63.9986 47.9464 65.2615C56.4865 67.2888 64 74 64 74C58.546 71.3888 52.9621 69.0487 47.2694 66.9887C41.9548 65.2622 36.5166 63.929 31 63Z" fill="#CD8B74"/>
<path d="M42 96C42 96 45.9889 109.565 50.5762 118L50.916 114.639C53.4835 112.334 55.8524 109.836 58 107.169L42 96Z" fill="#CD8B74"/>
<path d="M67.972 61.1367C65.1397 66.1251 62.0366 72.0388 62.0366 72.0388C62.0366 72.0388 63.7638 65.3389 65.5276 58.2564L59.3726 51L49.1264 66.7721L40.6221 51.1809L38.7705 56.5171L42.8177 66.5773L23.65 61.4707C23.3134 63.1404 22.984 64.7823 22.6693 66.3408L29.4245 70.2577C26.554 71.3284 23.7724 72.6028 21.1031 74.0703L20.4444 77.2567C20.4444 77.2567 20.181 76.3384 19.7126 74.9052C17.5682 76.2966 15.9361 77.8063 16.0019 79.2117C16.1995 83.233 19.9028 84.4575 26.6507 84.2488C33.3985 84.04 42.5103 83.226 42.5103 83.226C42.5103 83.226 34.7598 92.9314 44.9841 95.6935C55.2083 98.4555 58.9774 91.2965 58.9774 91.2965L62.549 100C64.2908 95.3943 67.2549 86.9482 68.4039 83.9635C68.9601 82.5721 69.9628 80.3388 71.1191 77.7507L73 67.0852L67.972 61.1367Z" fill="#CD8B74"/>
<path d="M52.0132 0V69.6441C52.0132 69.6441 43.2604 42.5858 38.7263 43.5016C34.1922 44.4174 45.3734 65.634 45.3734 65.634C45.3734 65.634 23.8767 50.9114 18.1761 56.1288C12.4754 61.3463 35.0947 68.09 35.0947 68.09C35.0947 68.09 21.8885 66.0641 17.259 72.2945C12.6295 78.5249 21.7637 81.7302 28.5135 81.2238C33.1949 80.9355 37.8917 80.9518 42.5708 81.2723C42.5708 81.2723 36.1585 89.1331 44.8892 92.838C53.6199 96.543 58.4181 84.8038 58.4181 84.8038C58.4181 84.8038 67.325 97.8959 78.0073 92.838C88.6896 87.7802 83.3484 79.1979 83.3484 79.1979C83.3484 79.1979 102.123 76.3116 102.974 68.4855C103.825 60.6594 83.3484 69.6441 83.3484 69.6441C83.3484 69.6441 90.2963 64.8846 88.3374 58.8277C86.3785 52.7708 72.49 67.4101 72.49 67.4101C72.49 67.4101 82.7615 53.534 81.2501 46.8596C79.7387 40.1852 64.2949 68.9295 64.2949 68.9295V0H52.0132Z" fill="#95D1F8"/>
<path d="M54.9879 0V75.0938C54.9879 75.0938 52.4413 73.8431 50.1671 67.7367C48.6363 63.6425 41.3353 47.4751 39.4291 46.6856C37.5229 45.8961 49.3944 70.203 49.3944 70.203C49.3944 70.203 39.0905 64.0966 33.9828 61.9377C28.875 59.7788 30.7666 64.9839 34.7851 66.7655C38.8036 68.5472 47.915 73.5078 47.915 73.5078C47.915 73.5078 24.7388 68.5472 22.1555 73.7663C19.5722 78.9854 50.0273 77.6789 50.0273 77.6789C50.0273 77.6789 42.2111 85.9722 46.1192 88.6411C50.0273 91.3101 57.792 78.2169 57.792 78.2169C57.792 78.2169 63.4958 89.8917 73.439 86.7896C83.3822 83.6875 72.5337 76.8125 72.5337 76.8125C72.5337 76.8125 91.5443 78.4754 95.5775 72.2362C99.6107 65.997 73.439 73.7663 73.439 73.7663C73.439 73.7663 82.683 68.7358 83.5 64.0617C84.3169 59.3875 69.3175 71.8519 69.3175 71.8519C69.3175 71.8519 78.2966 57.3544 78.0243 52.1422C77.7519 46.9301 60.5151 74.3951 60.5151 74.3951V0H54.9879Z" fill="#BFE3FB"/>
<path d="M27.6332 57.4537C29.9244 57.7831 20.8109 55.114 18.8208 56.3107C16.8307 57.5075 19.0852 59 19.0852 59C19.0852 59 17.6458 56.0351 27.6332 57.4537Z" fill="#D5EDFC"/>
<path d="M59 82C59 82 62.4406 87.7967 68.1546 88.7961C73.8685 89.7955 76.859 86.8731 75.7834 85.398C74.7077 83.923 71.969 85.2602 68.1546 85.0948C64.3402 84.9293 59 82 59 82Z" fill="#D5EDFC"/>
<path d="M67 64C67 64 74.1001 50.686 76.7754 50.0762C79.4508 49.4664 77.2164 52.6461 75.0776 55.0127L67 64Z" fill="#D5EDFC"/>
<path d="M43 77.8068C43 77.8068 32.6254 76.1743 30.3601 77.5537C28.0948 78.933 37.0232 79.8505 43 77.8068Z" fill="#D5EDFC"/>
<path d="M28 50C28 50 25.4248 41.8008 20.1867 43.1499C14.9486 44.4991 19.7405 49.7566 28 50Z" fill="#95D1F8"/>
<path d="M93 79.9146C93 79.9146 104 77.1456 104 81.2437C104.008 85.8609 93 79.9146 93 79.9146Z" fill="#95D1F8"/>
<path d="M72.0054 38C72.0054 38 71.6198 28.2474 77.3534 30.2782C83.0871 32.3091 72.0054 38 72.0054 38Z" fill="#95D1F8"/>
<path d="M29 87C29 87 20.8483 86.9704 22.1384 89.3668C23.3565 91.6566 29 87 29 87Z" fill="#95D1F8"/>
<path d="M26 49C26 49 23.445 44.2505 21.1898 44.0269C18.9346 43.8032 18.1638 45.0036 20.1121 46.6215C22.0605 48.2395 26 49 26 49Z" fill="#BFE3FB"/>
<path d="M73 35C73.2758 34.0001 74.0803 31.1565 75.8195 31.019C77.5587 30.8815 78.1946 31.5002 77.9494 32.5252C77.7042 33.5501 73 35 73 35Z" fill="#BFE3FB"/>
<path d="M96 79.5726C96 79.5726 101.21 78.2843 102.505 79.5726C103.8 80.8609 102.299 82 100.912 82C99.5248 82 96 79.5726 96 79.5726Z" fill="#BFE3FB"/>
<path d="M26 87C26 87 22.8302 87.2277 22.2245 88.4254C21.6187 89.6231 22.2991 90.2863 23.5438 89.8805C24.7885 89.4747 26 87 26 87Z" fill="#BFE3FB"/>
<path d="M21.9894 44.4401C21.595 44.1893 21.1609 44.0419 20.7158 44.0077C20.2707 43.9735 19.8246 44.0533 19.4069 44.2417C18.7706 44.5573 18.8679 45.3057 19.7886 45.2696C20.7094 45.2336 21.7199 45.0262 22.3637 45.5131L23 46C22.7684 45.3925 22.4224 44.8584 21.9894 44.4401Z" fill="#D5EDFC"/>
<path d="M74 32C74.3965 31.5883 74.9613 31.2656 75.6241 31.072C76.5985 30.8442 77.1507 31.1998 76.9639 31.5388C76.7772 31.8778 74 32 74 32Z" fill="#D5EDFC"/>
<path d="M100 79.0273C100 79.0273 101.648 78.8321 102.491 79.4854C103.333 80.1388 103.045 81.1226 102.248 80.9874C101.45 80.8522 101.883 80.0787 100 79.0273Z" fill="#D5EDFC"/>
<path d="M24 88C24 88 22.5557 88.1928 22.1259 88.5784C21.696 88.964 22.4698 89.1155 22.9082 88.9043C23.3373 88.6268 23.7037 88.3233 24 88Z" fill="#D5EDFC"/>
<path d="M56.0001 63C55.7348 63 55.4804 62.9128 55.2929 62.7576C55.1053 62.6024 55 62.3919 55 62.1725V21.8275C55 21.608 55.1053 21.3976 55.2929 21.2424C55.4804 21.0872 55.7348 21 56.0001 21C56.2653 21 56.5196 21.0872 56.7071 21.2424C56.8947 21.3976 57 21.608 57 21.8275V62.1725C57 62.3919 56.8947 62.6024 56.7071 62.7576C56.5196 62.9128 56.2653 63 56.0001 63Z" fill="#D5EDFC"/>
<path d="M100.414 175L85.0934 136.501C85.0934 136.501 68.2755 126.347 61.6613 120.48C55.0472 114.613 45.2398 101.935 42.6411 97.0173C40.0424 92.1 45.9739 91.344 49.1819 92.7311C52.3898 94.1182 66.4035 106.602 66.4035 106.602C66.4035 106.602 64.0031 95.8798 61.5953 91.344C59.1875 86.8082 49.7177 63.4634 48.2496 60.058C46.7814 56.6527 47.2439 53.3098 49.7177 52.2695C52.1916 51.2291 53.9608 51.4788 56.7283 55.9591C58.1965 58.3311 71.41 81.884 71.41 81.884C71.41 81.884 61.3971 54.5096 60.2005 49.842C59.004 45.1744 59.9289 41.138 62.3367 40.2503C63.1735 39.9587 64.0856 39.9209 64.9461 40.1422C65.8066 40.3634 66.5727 40.8328 67.1376 41.4848C67.6735 42.1159 83.0306 76.0166 83.0306 76.0166C83.0306 76.0166 75.0365 54.1559 74.0895 51.1321C72.5699 46.2772 76.6001 45.1606 78.494 45.7848C80.388 46.409 93.5061 73.4297 93.5061 73.4297C93.5061 73.4297 92.0379 61.8266 92.0379 58.4212C92.0379 55.0159 93.6676 53.0324 96.1855 52.748C98.1015 52.533 98.6667 55.009 99.6504 58.5461C100.091 60.1274 111.264 102.933 112.335 109.251C113.407 115.57 114.714 122.88 114.714 122.88L133 149.554L100.414 175Z" fill="#FFAD91"/>
<path d="M42 95.2204C42.0592 95.8865 42.2693 96.5341 42.6168 97.1219C43.588 98.8033 44.6644 100.432 45.8406 102C46.8466 101.362 47.9041 100.441 47.9922 99.346C48.1464 97.2563 45.9728 93.8632 44.203 94.0043C43.3359 94.1616 42.5564 94.5919 42 95.2204Z" fill="#FFCEBD"/>
<path d="M53.2933 52C52.1775 52.1008 51.0939 52.4282 50.1078 52.9623C49.6716 53.1788 49.3296 53.5483 49.1464 54.0011C48.9632 54.4539 48.9515 54.9584 49.1137 55.4192C49.4539 56.3157 49.874 57.1795 50.369 58C50.369 58 52.9451 57.1762 53.9972 56.7461C54.6811 56.4472 55.3496 56.1139 56 55.7472C56 55.7472 53.8665 52.3281 53.2933 52Z" fill="#FFCEBD"/>
<path d="M66.0509 41.143C64.8016 40.8653 63.4794 40.9948 62.3313 41.5071C61.8661 41.6599 61.48 41.9549 61.2447 42.3375C61.0094 42.7201 60.9409 43.1644 61.0518 43.5878C61.2992 44.4167 61.6329 45.2242 62.0487 46C62.0487 46 64.764 45.5124 65.8575 45.2263C66.5861 45.0324 67.3014 44.8023 68 44.5371C68 44.5371 66.594 41.5202 66.0509 41.143Z" fill="#FFCEBD"/>
<path d="M78.6204 46.1151C77.7242 45.8918 76.775 45.9956 75.9518 46.4072C75.6179 46.5286 75.3409 46.7646 75.1728 47.071C75.0048 47.3774 74.9573 47.733 75.0391 48.0712C75.2113 48.7333 75.4445 49.3788 75.7359 50C75.7359 50 77.6798 49.6061 78.4602 49.382C78.9831 49.2226 79.497 49.0367 80 48.825C80 48.825 79.0385 46.3936 78.6204 46.1151Z" fill="#FFCEBD"/>
<path d="M97.8382 54.2253C96.9507 53.9086 95.9791 53.9263 95.1036 54.2752C94.7546 54.3703 94.4516 54.5895 94.251 54.892C94.0504 55.1945 93.9657 55.5599 94.0126 55.9204C94.1279 56.6288 94.3082 57.325 94.551 58C94.551 58 96.5559 57.7792 97.3848 57.6225C97.9307 57.5078 98.47 57.3627 99 57.1881C99 57.1881 98.2065 54.5601 97.8382 54.2253Z" fill="#FFCEBD"/>
</svg>
