<svg width="194" height="155" viewBox="0 0 194 155" fill="none" xmlns="http://www.w3.org/2000/svg">
<path d="M115.034 50.8136C115.034 50.8136 124.411 53.8616 125.359 59.8709C126.308 65.8802 122.531 67.9254 122.531 67.9254C122.531 67.9254 127.553 71.3288 125.512 80.2204C123.471 89.1119 114.06 88.7092 114.06 88.7092C114.06 88.7092 116.246 97.0479 110.079 99.4011C103.913 101.754 100.762 97.9323 100.762 97.9323C100.762 97.9323 99.6867 105.576 90.1408 109.098C80.595 112.62 73.4208 104.692 73.4208 104.692C73.4208 104.692 62.037 110.275 54.9814 103.223C47.9258 96.1714 35.6696 88.7092 35.6696 88.7092C35.6696 88.7092 26.0391 84.295 25.0904 77.1486C24.8413 75.0252 25.1086 72.8769 25.8726 70.8631C26.6366 68.8494 27.8776 67.022 29.5034 65.5169C29.5034 65.5169 25.0904 55.5989 27.3011 46.3441C29.5118 37.0893 39.8792 38.0922 39.8792 38.0922C39.8792 38.0922 40.2265 25.3235 48.1122 22.0938C50.3822 21.1369 52.8525 20.6638 55.3433 20.7089C57.8341 20.754 60.2828 21.3161 62.5113 22.3544C65.4482 19.9579 68.898 18.1708 72.6319 17.1117C76.3658 16.0525 80.2985 15.7455 84.1694 16.2109C97.6114 17.6875 115.034 50.8136 115.034 50.8136Z" fill="#D5EDFC"/>
<path d="M107.463 59.8853C107.463 59.8853 113.255 62.9076 112.991 68.5428C112.728 74.178 108.252 78.0266 108.252 78.0266C108.252 78.0266 110.146 83.6382 107.463 87.7387C104.779 91.8392 97.5006 91.3985 97.5006 91.3985C96.1835 93.7288 94.0642 95.5847 91.4792 96.6716C87.0715 98.5763 84.1501 96.6716 84.1501 96.6716C83.2521 97.9779 81.9231 98.9806 80.3608 99.5308C78.7986 100.081 77.0864 100.149 75.479 99.7253C69.687 98.2851 34.145 85.2123 31.0452 79.0813C30.1481 77.3792 29.8176 75.4683 30.0959 73.5916C30.3742 71.715 31.2486 69.9575 32.6079 68.5428L46.1452 48.9219C46.1452 48.9219 45.3554 37.6357 52.7865 32.394C60.2176 27.1523 66.6466 29.5449 66.6466 29.5449L107.463 59.8853Z" fill="#E6F4FD"/>
<path d="M0 128.994L31.2026 84.7674C31.2026 84.7674 33.5386 37.4696 33.1253 34.6761C32.7121 31.8827 40.3019 28.0417 43.7004 34.0016C47.099 39.9614 46.4412 57.5712 46.4412 57.5712C46.4412 57.5712 64.37 26.4466 66.6807 21.1534C69.8937 13.8603 74.1693 11.1383 76.986 12.2335C79.8027 13.3286 79.7183 17.9076 77.5004 24.3436C74.5488 32.9144 67.3807 48.7226 67.3807 48.7226C67.3807 48.7226 86.6841 23.3278 89.3995 19.7329C92.115 16.1379 96.846 12.3446 100.084 15.0904C102.893 17.4712 100.43 24.3119 96.5508 30.1686C94.7377 32.9065 81.3712 54.1905 81.3712 54.1905C81.3712 54.1905 100.978 32.843 103.913 30.0098C107.362 26.6688 113.114 28.8671 109.58 36.295C107.893 39.7551 91.7945 64.9436 91.7945 64.9436C91.7945 64.9436 105.237 51.778 108.231 50.0162C111.225 48.2544 116.613 49.7623 112.523 57.0236C108.433 64.2849 97.7568 75.1571 94.3751 79.2441C90.9934 83.331 85.5456 91.2748 80.4183 96.5601C75.291 101.845 65.382 106.242 65.382 106.242L43.633 155L0 128.994Z" fill="#E69C83"/>
<path d="M108.263 49.6886C106.644 50.676 101.941 55.14 98 59H111.273C111.734 58.2737 112.17 57.5637 112.53 56.8945C116.597 49.4275 111.248 47.8769 108.263 49.6886Z" fill="#CD8B74"/>
<path d="M62 80.3277H64.9C64.9 80.3277 65.0109 86.35 69.0027 88.7573C72.9945 91.1647 79.6305 88.3339 79.6305 88.3339L84.8932 91L87 88.428L62.5203 72L62 80.3277Z" fill="#CD8B74"/>
<path d="M58.7692 63.5532C62.3578 69.6428 62.175 80 62.175 80C62.175 80 67.5143 66.3177 59.9277 57.9385C55.8861 53.4686 51.9055 52.2693 49.7367 51C47.1236 55.3298 46 57.2299 46 57.2299C46 57.2299 55.1806 57.4557 58.7692 63.5532Z" fill="#CD8B74"/>
<path d="M33.1295 34.0009C33.1295 34.0009 34.943 33.9291 35.5302 35.0699C36.1174 36.2108 35.9879 41.923 35.9879 41.923L33 43L33.1295 34.0009Z" fill="#FFCEBD"/>
<path d="M62 46C67.9129 47.9825 73.6185 50.4652 79.0453 53.417C87.3441 58.0355 93 67 93 67C93 67 84.8304 59.7835 77.7626 54.9244C72.7527 51.5905 67.484 48.6075 62 46Z" fill="#CD8B74"/>
<path d="M37 10.5C37 10.9944 36.8534 11.4778 36.5787 11.8889C36.304 12.3001 35.9135 12.6205 35.4567 12.8097C34.9999 12.9989 34.4973 13.0484 34.0123 12.952C33.5273 12.8555 33.0819 12.6174 32.7322 12.2678C32.3826 11.9181 32.1445 11.4727 32.048 10.9877C31.9516 10.5028 32.0011 10.0001 32.1903 9.5433C32.3795 9.08648 32.7 8.69604 33.1111 8.42133C33.5222 8.14663 34.0056 8 34.5 8C35.1624 8.00225 35.7969 8.26636 36.2653 8.73471C36.7336 9.20307 36.9978 9.83764 37 10.5Z" fill="#E6F4FD"/>
<path d="M53 13C56.866 13 60 10.0898 60 6.5C60 2.91015 56.866 0 53 0C49.134 0 46 2.91015 46 6.5C46 10.0898 49.134 13 53 13Z" fill="#D5EDFC"/>
<path d="M52.5 11C54.9853 11 57 9.20914 57 7C57 4.79086 54.9853 3 52.5 3C50.0147 3 48 4.79086 48 7C48 9.20914 50.0147 11 52.5 11Z" fill="#E6F4FD"/>
<path d="M59.5689 47.5683C59.5689 47.5683 55.6271 43.5239 50.8245 45.5856C46.0218 47.6473 49.7694 53.1926 49.7694 53.1926C49.7694 53.1926 45.3296 55.7836 47.693 61.242C50.0563 66.7004 58.9189 66.1159 58.9189 66.1159C58.9189 66.1159 57.982 71.7165 61.4511 73.8888C64.9202 76.0611 67.081 76.1795 67.081 76.1795C67.081 76.1795 65.7896 85.9905 72.5505 88.2496C79.3114 90.5088 82.5272 86.9463 82.5272 86.9463C82.5272 86.9463 89.2797 91.0934 94.0908 87.4202C98.9019 83.7471 93.1032 77.5619 93.1032 77.5619C93.1032 77.5619 98.1676 70.5394 90.6977 65.9974C83.2278 61.4553 59.5689 47.5683 59.5689 47.5683Z" fill="#D5EDFC"/>
<path d="M58.8148 48.2942C58.2041 48.0179 57.5162 47.9333 56.8513 48.0527C56.1863 48.1721 55.5788 48.4892 55.1174 48.958C53.2813 50.6173 54.5582 52.8219 54.5582 52.8219C53.9915 53.2272 53.5517 53.7706 53.2856 54.3941C53.0196 55.0175 52.9373 55.6977 53.0476 56.3619C53.2813 58.8905 58.0552 59.5226 58.0552 59.5226C58.0668 61.1806 58.7304 62.775 59.9164 63.995C61.0307 65.1486 62.4561 65.9928 64.0394 66.4366C64.0394 66.4366 63.4134 70.5455 66.7936 72.4498C70.1738 74.3541 72.1101 73.3111 72.1101 73.3111C72.1101 73.3111 70.758 77.1198 73.7793 79.3243C74.5556 79.9603 75.5163 80.36 76.5361 80.4713C77.5559 80.5827 78.5875 80.4005 79.4963 79.9486C80.056 80.6586 80.8013 81.2185 81.6588 81.5731C82.5163 81.9278 83.4566 82.065 84.3871 81.9714C85.2956 81.9169 86.1476 81.5354 86.7684 80.905C87.3892 80.2747 87.7317 79.4434 87.7256 78.5816C87.7256 78.5816 90.5215 77.9968 90.9806 74.3621C91.4396 70.7273 83.611 66.4603 83.611 66.4603L58.8148 48.2942Z" fill="#E6F4FD"/>
<path d="M190.157 21.0523C190.157 21.0523 142.791 13.2713 138.099 12.1891C133.407 11.1068 128.479 10.8224 118.574 11.0989C108.669 11.3754 92.566 17.5292 87.6049 19.7252C82.6438 21.9213 69.4673 25.95 67.7183 28.2093C65.9693 30.4686 61.1091 40.9513 60.0665 45.7305C58.7547 51.7578 58.679 54.6964 59.6965 57.3033C60.7139 59.9101 65.1032 60.0207 65.1032 60.0207C65.1032 60.0207 66.8439 66.1271 67.1382 67.6359C67.4325 69.1447 71.3425 68.5917 71.3425 68.5917L74.109 74.9113C74.8405 76.5545 77.1697 75.8751 78.0442 75.1878C78.788 74.5632 79.4954 73.9013 80.1632 73.205C80.1632 73.205 81.2311 77.1943 82.1729 78.0159C83.1146 78.8374 87.0835 78.8848 88.0589 75.9067C89.0932 72.6363 89.1605 66.293 89.1605 66.293C89.1605 66.293 93.0958 59.1044 95.7193 57.4613C98.3428 55.8182 117.145 52.9427 119.104 56.0236C121.063 59.1044 112.991 65.8822 109.711 69.3659C106.432 72.8496 105.776 78.6083 108.4 80.8676C111.023 83.1269 114.286 81.3811 115.042 80.9466C115.799 80.5121 120.416 74.2952 124.788 71.6251C129.161 68.9551 133.533 66.4983 135.938 63.6229C138.343 60.7475 141.824 51.505 141.824 51.505L194 61.2767L190.157 21.0523Z" fill="#FFAD91"/>
<path d="M80.0074 66.0224C80.6646 63.7747 84.456 52.1476 87.2279 50.7488C89.9998 49.35 103 45 103 45C103 45 86.6466 46.5443 83.8747 49.3419C81.1027 52.1395 77.4462 62.9337 77.1344 67.0008C76.9491 69.5316 76.9912 73.4692 77.0502 76C77.3526 75.8895 77.6365 75.7369 77.8927 75.5472C78.638 74.9078 79.3467 74.2304 80.0159 73.5177C80.0159 73.5177 79.3503 68.2621 80.0074 66.0224Z" fill="#CD8B74"/>
<path d="M71.2638 62.9826C71.7773 59.5331 76.2644 46.1533 78.3437 44.6899C80.423 43.2265 93 38 93 38C93 38 80.7092 39.8413 77.1146 43.1219C71.8531 47.9464 69.7822 59.5331 69.235 62.8781C68.9217 64.904 68.9217 66.963 69.235 68.989C69.9127 69.0184 70.5918 68.9888 71.2638 68.9006C70.9467 66.9395 70.9467 64.9436 71.2638 62.9826Z" fill="#CD8B74"/>
<path d="M74.6474 33.8162C76.6662 31.4081 85 29 85 29C85 29 76.7783 29.7626 72.5596 33.4871C68.341 37.2115 65.8563 47.3576 64.7952 50.9055C64.0446 53.5303 62.4917 57.2147 62 59.4702C63.1302 59.6468 64.7952 60 64.7952 60C64.9089 56.3493 65.5473 52.7291 66.6932 49.2359C68.6084 43.4083 72.6632 36.2082 74.6474 33.8162Z" fill="#CD8B74"/>
<path d="M120 76.0019C120 76.0019 117.503 72.8613 115.348 73.0048C113.193 73.1483 110.166 76.7273 110.013 78.457C109.859 80.1868 111.124 82.4426 113.57 81.9245C116.015 81.4064 120 76.0019 120 76.0019Z" fill="#FFCEBD"/>
<path d="M80 73.2986C80 73.2986 82.6288 72.6848 83.3066 73.2172C83.9845 73.7497 84.2077 75.7684 83.7861 77.1586C83.2901 78.7189 80.4795 78.4675 80 73.2986Z" fill="#FFCEBD"/>
<path d="M72 69.3858C72 69.3858 74.774 68.5178 75.8905 69.3858C77.0069 70.2538 77.256 73.908 76.7493 75.0711C76.2426 76.2341 75.2291 76.3643 74.3102 75.1231C73.3913 73.8819 72 69.3858 72 69.3858Z" fill="#FFCEBD"/>
<path d="M66 62.0488C66 62.0488 67.5151 61.7821 68.2089 62.4959C68.9027 63.2098 69.2216 66.7477 68.8309 67.595C68.4401 68.4422 67.4434 67.8695 66.9649 66.7164C66.5208 65.1874 66.1982 63.6269 66 62.0488Z" fill="#FFCEBD"/>
<path d="M59.1624 51.0135C59.1624 51.0135 62.0643 50.7993 62.6587 52.0763C63.2531 53.3534 63.1569 57.5274 61.6798 58.753C60.2026 59.9786 58.4544 56.5246 59.1624 51.0135Z" fill="#FFCEBD"/>
<path d="M96.1259 71.7435C96.1259 71.7435 93.3483 81.3604 76.8828 85.0379C62.2274 88.3121 56.9224 82.4992 54.42 77.4535C51.6925 71.9649 54.3616 65.9464 54.3616 65.9464L58.7824 67.805L54.6119 53L42 62.8858L47.0047 64.3331C47.0047 64.3331 38.5134 86.8331 61.2264 92.8358C85.4909 99.2576 104 77.0185 104 77.0185L96.1259 71.7435Z" fill="black"/>
</svg>
