<svg width="179" height="113" viewBox="0 0 179 113" fill="none" xmlns="http://www.w3.org/2000/svg">
<path d="M42.2843 27.154C42.2843 27.154 43.7263 21.0843 48.066 18.726C52.4057 16.3677 57.8562 19.3829 57.8562 19.3829C61.5188 14.8835 66.8849 11.9269 72.8071 11.1454C75.6775 10.7809 78.598 11.1043 81.3039 12.0862C84.0098 13.0681 86.4156 14.6775 88.3031 16.7684C88.3031 16.7684 93.6777 12.827 99.8733 14.016C106.069 15.205 106.083 21.4915 106.083 21.4915C107.547 21.357 109.023 21.5893 110.364 22.1655C111.705 22.7416 112.864 23.6416 113.727 24.776C116.825 28.7503 113.727 34.5507 113.727 34.5507C113.727 34.5507 120.958 30.721 126.946 36.0287C132.935 41.3365 128.595 49.1667 128.595 49.1667C128.595 49.1667 131.9 46.8347 135.205 54.6978C138.51 62.5609 136.24 73.2815 136.24 73.2815C136.24 73.2815 134.17 86.9582 130.658 91.0835C127.146 95.2088 119.716 94.0264 119.716 94.0264C119.716 94.0264 118.888 99.7743 111.664 102.31C104.441 104.846 95.299 99.5772 95.299 99.5772L69.4816 95.2285C69.4816 95.2285 66.8254 96.8051 62.6995 94.4403C58.5737 92.0754 58.5599 85.8283 58.5599 85.8283C58.5599 85.8283 51.5502 85.5064 47.6175 81.5782C43.6849 77.6499 46.7896 69.0971 46.7896 69.0971C46.7896 69.0971 39.0486 66.2724 36.5648 58.7772C34.081 51.282 40.594 45.0611 40.594 45.0611L42.2843 27.154Z" fill="#D5EDFC"/>
<path d="M49.2023 31.7129C49.6652 30.2895 50.4731 28.9874 51.562 27.9098C52.6509 26.8321 53.9909 26.0087 55.4758 25.5046C60.6787 23.626 67.3613 27.2673 67.3613 27.2673C67.3613 27.2673 69.3115 25.0799 74.0302 23.6324C78.749 22.1848 82.9631 24.4816 82.9631 24.4816C85.2433 22.6823 88.1835 21.8039 91.1459 22.0369C92.4578 22.1037 93.6936 22.6389 94.6028 23.5337C95.512 24.4285 96.0265 25.6161 96.0419 26.8556C96.0419 26.8556 99.6695 25.9292 102.015 28.657C104.361 31.3848 101.245 34.7496 101.245 34.7496C101.245 34.7496 107.382 33.881 110.737 38.3588C114.092 42.8366 110.737 48.7554 110.737 48.7554C110.737 48.7554 115.94 47.0248 120.229 52.4418C121.485 54.0542 122.344 55.9112 122.742 57.8771C123.139 59.843 123.066 61.8679 122.527 63.8035L127 82.9884C127 82.9884 126.843 85.5618 123.631 88.7786C120.42 91.9953 114.296 88.7786 114.296 88.7786C114.296 88.7786 115.367 95.2121 110.771 97.1422C106.175 99.0723 99.1377 97.1422 99.1377 97.1422L73.3347 90.0653C73.3347 90.0653 67.1635 91.4935 63.8972 87.3181C60.6309 83.1428 60.6309 77.0631 60.6309 77.0631C60.6309 77.0631 54.8825 77.2689 51.6504 73.8463C48.4182 70.4236 48.4182 64.1959 48.4182 64.1959C48.4182 64.1959 40.324 61.6225 42.3152 52.429C44.3063 43.2354 49.2023 31.7129 49.2023 31.7129Z" fill="#E6F4FD"/>
<path d="M9.18962 13L54.9284 29.7755C54.9284 29.7755 62.3945 26.5338 66.7067 25.7759C71.0189 25.018 81.7715 25.139 85.2115 24.8205C88.6515 24.5021 94.5058 23.7952 96.02 23.5468C100.172 22.8335 98.9995 30.4251 95.399 32.2084C91.7985 33.9917 83.0206 35.3928 83.0206 35.3928C83.0206 35.3928 88.505 37.2525 92.4195 38.1123C96.334 38.9721 99.8438 40.8191 101.902 41.9336C103.961 43.0481 107.142 51.1557 107.924 53.009C108.705 54.8623 103.207 63.0208 103.207 63.0208L73.2657 81C73.2657 81 63.7342 77.0322 57.7822 71.5996C51.8303 66.167 46.8133 55.4419 46.8133 55.4419L0 45.6976L9.18962 13Z" fill="#E69C83"/>
<path d="M52 64.6225C53.6424 67.2983 55.612 69.7846 57.8687 72.0308C59.4482 73.4816 61.1509 74.8091 62.9599 76L75 53.316C75 53.316 73.8648 52.6049 71.271 53.316C69.9018 53.7953 68.6849 54.5939 67.7347 55.6368C67.7347 55.6368 64.0057 54.0918 61.2261 55.9277C60.4452 56.3999 59.8422 57.0911 59.5026 57.9033C59.163 58.7154 59.1041 59.6074 59.3341 60.4528C59.3341 60.4528 53.9471 60.9765 52 64.6225Z" fill="#CD8B74"/>
<path d="M80.9997 57.6007C80.9997 57.6007 78.9575 53.8584 75.2827 53.0996C71.6079 52.3408 70.1539 56.1668 70.1539 56.1668C70.1539 56.1668 67.7812 53.9612 64.0337 55.691C60.2862 57.4207 62.7515 61.2274 62.7515 61.2274C62.7515 61.2274 58.7066 61.0602 57.2328 67.2975C55.7589 73.5348 61.7667 76.512 61.7667 76.512C61.7667 76.512 59.9227 84.9485 70.5637 84.9999C81.2046 85.0514 80.9997 57.6007 80.9997 57.6007Z" fill="#D5EDFC"/>
<path d="M77 57.3855C77 57.3855 73.6885 56.5182 71.0997 57.3855C68.511 58.2527 69.278 61.1525 69.278 61.1525C69.278 61.1525 64.1153 60.9274 62.8246 63.7543C61.5339 66.5813 63.9825 69.6267 63.9825 69.6267C63.9825 69.6267 60.8848 71.4804 62.4337 75.8632C63.9825 80.2459 69.4919 83 69.4919 83L77 57.3855Z" fill="#E6F4FD"/>
<path d="M86 60.1225C86 60.1225 84.6312 60.4544 83.6122 62.6445C82.5932 64.8347 81.6351 67.4097 82.6236 68.8034C83.6735 70.1421 84.8004 71.4335 86 72.6726L80.54 74C80.54 74 75.4146 69.4273 77.4982 64.9607C79.5819 60.4942 84.981 59.6314 86 60.1225Z" fill="#CD8B74"/>
<path d="M36 69.4947C36.0015 69.9894 35.7974 70.4732 35.4137 70.8851C35.03 71.2969 34.4839 71.6181 33.8445 71.8082C33.2051 71.9982 32.5012 72.0485 31.8217 71.9526C31.1423 71.8567 30.518 71.6191 30.0278 71.2696C29.5375 70.9202 29.2034 70.4748 29.0678 69.9897C28.9321 69.5046 29.001 69.0016 29.2657 68.5445C29.5304 68.0874 29.979 67.6966 30.5547 67.4217C31.1305 67.1468 31.8074 67 32.5 67C33.427 67 34.3161 67.2627 34.9722 67.7304C35.6284 68.198 35.998 68.8326 36 69.4947Z" fill="#D5EDFC"/>
<path d="M34 69.9961C34.0015 70.1941 33.8855 70.3878 33.6667 70.5528C33.4479 70.7177 33.136 70.8465 32.7707 70.9228C32.4054 70.999 32.003 71.0194 31.6146 70.9813C31.2261 70.9431 30.869 70.8482 30.5885 70.7085C30.308 70.5688 30.1168 70.3906 30.039 70.1965C29.9612 70.0024 30.0003 69.8012 30.1515 69.6182C30.3026 69.4353 30.559 69.2789 30.8881 69.1688C31.2171 69.0587 31.6041 69 32 69C32.5291 69 33.0366 69.1048 33.4115 69.2915C33.7863 69.4782 33.9979 69.7316 34 69.9961Z" fill="#E6F4FD"/>
<path d="M66 2.99366C66.0013 3.58727 65.8264 4.1679 65.4975 4.66209C65.1686 5.15627 64.7005 5.54178 64.1525 5.76982C63.6044 5.99785 63.001 6.05816 62.4186 5.94313C61.8363 5.82809 61.3011 5.54288 60.8809 5.12357C60.4607 4.70427 60.1744 4.16974 60.0581 3.58762C59.9418 3.00551 60.0009 2.40199 60.2277 1.85344C60.4546 1.30489 60.8391 0.835968 61.3326 0.506042C61.8261 0.176116 62.4064 1.33227e-06 63 0C63.7945 -1.78322e-06 64.5566 0.315207 65.1191 0.876442C65.6815 1.43768 65.9983 2.19911 66 2.99366Z" fill="#D5EDFC"/>
<path d="M41 89C42.1046 89 43 88.3284 43 87.5C43 86.6716 42.1046 86 41 86C39.8954 86 39 86.6716 39 87.5C39 88.3284 39.8954 89 41 89Z" fill="#E6F4FD"/>
<path d="M113 5.00002C113 5.19798 112.882 5.39148 112.662 5.55602C112.442 5.72056 112.129 5.84872 111.763 5.92429C111.397 5.99985 110.995 6.0194 110.607 5.98047C110.219 5.94154 109.862 5.84588 109.583 5.70561C109.303 5.56533 109.114 5.38676 109.037 5.1925C108.961 4.99824 109.002 4.79703 109.155 4.61438C109.307 4.43173 109.565 4.27584 109.895 4.16647C110.225 4.0571 110.613 3.99917 111.008 4.00001C111.537 4.00113 112.044 4.10699 112.417 4.2944C112.79 4.48182 113 4.73553 113 5.00002Z" fill="#E6F4FD"/>
<path d="M92.0535 58H95C93.8602 56.5572 93.0921 54.9081 92.7504 53.1705C92.3398 50.7981 92.2609 48.3896 92.5158 46C92.5158 46 90.8114 49.2442 90.8114 51.659V54.4854L83 53.9324C83 53.9324 90.8114 58 92.0535 58Z" fill="#CD8B74"/>
<path d="M167.697 36L118.283 59.9783C118.283 59.9783 112.275 57.6686 103.99 59.9783C95.7045 62.288 82.8579 72.6848 82.8579 72.6848L79.9024 67.6344L83.1694 61.2779L91.8699 58.8203C91.8699 58.8203 85.502 55.0694 81.9235 54.3167C78.345 53.5639 76.9537 53.3066 75.2441 56.4848C73.5344 59.6631 69.3399 68.3292 69.0146 70.0599C68.6892 71.7906 69.949 74.8273 69.949 74.8273C69.949 74.8273 68.0801 78.874 67.1803 81.3253C66.605 82.6702 66.605 84.1687 67.1803 85.5136C67.1803 85.5136 65 90.1394 65 92.7386C65 95.3378 66.7097 99.6677 66.7097 99.6677C66.7097 99.6677 65.9344 103.567 67.3326 106.745C68.3088 108.952 70.0838 110.772 72.3508 111.892C73.4237 112.464 80.3869 113.127 82.5603 112.979C84.7337 112.831 102.142 99.6934 111.154 94.064C120.166 88.4345 127.406 84.5421 127.406 84.5421L179 74.4991L167.697 36Z" fill="#FFAD91"/>
<path d="M70.0225 75C71.8233 77.5727 73.7857 80.0516 75.9002 82.4245C78.1956 84.7579 80.171 85.0387 81.3187 85.0387C82.4665 85.0387 86 84.5708 86 84.5708C86 84.5708 80.6371 86.2491 78.0078 85.9683C75.3785 85.6876 69 77.1837 69 77.1837L70.0225 75Z" fill="#CD8B74"/>
<path d="M66.6864 85C66.6864 85 69.4108 90.5339 71.4487 93.2183C73.4866 95.9027 75.3743 96.3334 77.2621 96.3334H86C86 96.3334 77.7626 99.2044 73.5867 97.41C69.4108 95.6156 66 86.7011 66 86.7011L66.6864 85Z" fill="#CD8B74"/>
<path d="M82.774 36L77.7699 37.132C76.729 40.1696 74.9202 42.9285 72.4965 45.1756C68.5633 48.71 61 49.8358 61 49.8358C61 49.8358 70.6174 50.9363 74.0051 47.4397C77.3928 43.943 79.6018 38.9684 79.6018 38.9684L86 37.0817L82.774 36Z" fill="#CD8B74"/>
<path d="M94.9347 23C95.1062 24.1967 94.9383 25.416 94.4491 26.5274C93.6492 27.9106 90.2855 28.2357 89.6427 27.8484C89 27.4611 89 23.8023 89 23.8023L94.9347 23Z" fill="#FFCEBD"/>
<path d="M35.0769 43C35.0769 43 28.5284 33.1706 34.5381 23.2959C40.5478 13.4213 47.3934 12.5178 47.3934 12.5178L43.1659 8L60 13.7699L53.2719 24.7417L50.8265 18.9331C48.7098 19.712 46.7796 20.8758 45.148 22.3571C43.5163 23.8384 42.2157 25.6075 41.3215 27.562C38.4686 34.0806 44.582 41.2574 44.582 41.2574L35.0769 43Z" fill="black"/>
<path d="M136.73 75C136.73 75 143.493 84.6937 137.567 94.5928C131.641 104.492 124.752 105.506 124.752 105.506L129.101 110L112 104.479L118.624 93.4758L121.185 99.2535C123.313 98.4421 125.244 97.2494 126.865 95.745C128.486 94.2406 129.766 92.4544 130.629 90.4906C133.421 83.9875 127.139 76.9259 127.139 76.9259L136.73 75Z" fill="black"/>
</svg>
