<svg width="142" height="161" viewBox="0 0 142 161" fill="none" xmlns="http://www.w3.org/2000/svg">
<path d="M58.1654 154L61.7161 85.8021C61.7161 85.8021 69.3061 83.41 80.21 74.7308C85.914 70.1997 92.3434 67.0128 93.6949 64.9243C95.0465 62.8358 91.7554 59.1429 86.8227 60.0535C83.7225 60.6099 77.3007 62.5756 73.0017 63.9414C72.5915 64.0771 72.1498 64.1033 71.7249 64.0171C71.2999 63.9309 70.9083 63.7357 70.5928 63.4528C70.2773 63.1699 70.0502 62.8103 69.9364 62.4134C69.8226 62.0165 69.8264 61.5975 69.9474 61.2025C72.9407 51.2081 80.3245 26.1099 80.6376 20.437C81.027 13.3043 79.4923 11.765 76.2165 11.5048C72.9407 11.2447 71.7877 15.8408 70.7263 19.5047C69.6649 23.1686 62.9225 44.4656 62.9225 44.4656C62.9225 44.4656 63.1592 10.7749 62.7316 6.27995C62.304 1.78497 60.4409 -0.4842 56.5695 0.0867058C52.6982 0.657611 52.469 5.41275 52.0948 10.3196C51.7207 15.2265 49.178 42.0519 49.178 42.0519C49.178 42.0519 43.7413 14.0775 43.0693 10.7243C42.3974 7.37118 37.3959 6.84363 35.0746 10.9917C32.7533 15.1398 35.6091 43.5478 35.6091 43.5478C35.6091 43.5478 29.5005 26.9699 28.4009 23.8913C26.9348 19.6782 20.8567 20.7983 21.2843 27.2372C21.8417 35.6418 24.1096 46.5613 24.6899 49.5748C25.2702 52.5884 22.277 75.6703 23.7965 83.5907C25.316 91.5111 15 147.843 15 147.843L58.1654 154Z" fill="#E69C83"/>
<path d="M43.6247 29.0016C43.6247 29.0016 40.5373 28.8557 39.3641 31.3225C38.1909 33.7894 40.2285 43 40.2285 43L50 41.9636L43.6247 29.0016Z" fill="#CD8B74"/>
<path d="M24.8104 55L34 54.2819L23 39C23.7242 43.7612 24.5497 47.8761 24.8539 49.5494C24.9643 51.3061 24.9329 53.0687 24.7597 54.8205L24.8104 55Z" fill="#CD8B74"/>
<path d="M94 65.3614C94 65.3614 92.3035 63.945 91.1327 64.0017C89.9619 64.0583 85 67.1035 85 67.1035L87.477 70C87.477 70 93.2991 67.1743 94 65.3614Z" fill="#FFCEBD"/>
<path d="M79.6961 19L73 17.8655C73 17.8655 73.0737 14.7827 75.3575 14.1545C76.2238 13.9214 77.1706 13.953 78.0084 14.2429C78.8462 14.5329 79.5133 15.0599 79.8762 15.7184C80.2364 16.5901 79.6961 19 79.6961 19Z" fill="#FFCEBD"/>
<path d="M60.9997 8L54.0062 7.58972C54.0062 7.58972 53.6996 2.46118 57.4008 2.02159C61.102 1.582 60.9997 8 60.9997 8Z" fill="#FFCEBD"/>
<path d="M41.978 14.9462L35.2167 16C35.2167 16 33.9566 11.9263 37.5143 10.3421C41.072 8.75787 42.1756 13.0862 41.978 14.9462Z" fill="#FFCEBD"/>
<path d="M27 26.4585L22.256 28C22.256 28 21.1415 24.231 23.5635 23.1673C25.9855 22.1037 27 26.4585 27 26.4585Z" fill="#FFCEBD"/>
<path d="M69 79.6595L23.2343 70C22.9363 75.6087 22.8445 81.0001 23.4331 84.087C23.5748 85.064 23.6233 86.0511 23.5782 87.0363L24.9005 87.6523C24.9005 87.6523 24.4113 92.1161 26.1998 95.3407C27.9882 98.5654 28.7907 99.3335 28.7907 99.3335C28.7907 99.3335 23.3872 104.667 28.7907 107.435C34.1943 110.203 42.1964 108.558 42.1964 108.558C42.1964 108.558 44.7873 117.37 53.6607 119.522C55.6167 120.014 57.6572 120.128 59.6604 119.855L61.403 86.3044C64.0297 85.3471 66.5511 84.1482 68.9312 82.7247L69 79.6595Z" fill="#CD8B74"/>
<path d="M87.7231 66.8876C87.7231 66.8876 91.1315 63.8834 89.6762 59.6834C87.7231 54.0785 80.8985 54.2802 80.8985 54.2802C80.8985 54.2802 84.1002 48.5889 79.8645 43.7188C75.6288 38.8488 67.1575 38.6255 67.1575 38.6255C67.1575 38.6255 62.1405 32.2785 54.4045 34.4542C46.6684 36.6299 47.1433 40.1744 47.1433 40.1744C47.1433 40.1744 38.1281 37.2278 33.8082 41.8025C29.4883 46.3772 32.552 52.9258 32.552 52.9258C32.552 52.9258 21.9973 50.8582 20.2969 55.6706C18.5965 60.4831 24.7548 64.5318 24.7548 64.5318C24.7548 64.5318 19.5923 67.1614 20.5344 73.8109C21.4765 80.4603 28.3777 84.2137 28.3777 84.2137C28.3777 84.2137 26.4704 88.2193 30.5606 93.0893C34.6507 97.9594 42.8923 99.285 42.8923 99.285C42.8923 99.285 42.808 109.544 53.6768 113.16C64.5456 116.777 74.7786 107.541 74.7786 107.541C74.7786 107.541 93.7358 84.682 94.6932 78.0037C95.6506 71.3254 94.6396 65.9222 87.7231 66.8876Z" fill="#D5EDFC"/>
<path d="M76.2294 57.2609C77.8634 54.8544 78.4384 51.946 77.8332 49.1491C76.8251 44.4154 69.7685 42.9235 69.7685 42.9235C69.7685 42.9235 64.3155 40.4204 59.9777 40.0546C55.6398 39.6888 53.4938 41.1376 52.921 45.0752C52.3482 49.0128 46.7273 44.8027 42.695 46.6961C38.6626 48.5896 40.2435 56.4361 40.2435 56.4361C40.2435 56.4361 27.3979 54.2844 25.4657 59.5488C23.5336 64.8133 28.238 70.1136 28.238 70.1136C27.447 72.4858 27.447 75.0284 28.238 77.4006C29.5898 81.0513 33.7672 81.4529 33.7672 81.4529C33.7672 81.4529 31.7511 84.3218 33.1945 86.5954C34.6379 88.8691 36.5395 89.1631 36.5395 89.1631C36.5395 89.1631 33.9123 93.7605 40.6788 96.4645C47.4452 99.1684 48.5985 102.554 48.5985 102.554C48.9181 103.723 49.4896 104.818 50.2778 105.772C51.0659 106.725 52.054 107.517 53.1808 108.098C57.068 110.128 61.383 108.098 61.383 108.098C61.383 108.098 65.1328 110.4 69.8831 106.613C74.6333 102.826 87.3185 81.998 89.1132 78.749C90.9079 75.5 92.6339 74.0153 91.7709 72.0573C90.9079 70.0992 89.4798 69.755 89.4798 69.755C89.3634 69.2013 89.065 68.6958 88.6265 68.3098C88.1881 67.9238 87.6318 67.6767 87.0359 67.6033C84.8135 67.1945 83.9811 67.0941 83.9811 67.0941C84.5999 66.4755 85.0529 65.7274 85.3026 64.9117C85.5522 64.096 85.5914 63.2362 85.4169 62.4034C84.8441 59.4915 80.8804 58.5447 80.8804 58.5447C80.8804 58.5447 81.5296 55.9771 76.2294 57.2609Z" fill="#E6F4FD"/>
<path d="M93.5 46C95.9853 46 98 43.9853 98 41.5C98 39.0147 95.9853 37 93.5 37C91.0148 37 89 39.0147 89 41.5C89 43.9853 91.0148 46 93.5 46Z" fill="#D5EDFC"/>
<path d="M93.5 44C94.8807 44 96 42.8807 96 41.5C96 40.1193 94.8807 39 93.5 39C92.1193 39 91 40.1193 91 41.5C91 42.8807 92.1193 44 93.5 44Z" fill="#E6F4FD"/>
<path d="M4 74C5.10458 74 6 72.8807 6 71.5C6 70.1193 5.10458 69 4 69C2.89542 69 2 70.1193 2 71.5C2 72.8807 2.89542 74 4 74Z" fill="#E6F4FD"/>
<path d="M9.50005 105C14.7467 105 19 100.971 19 96C19 91.0294 14.7467 87 9.50005 87C4.25335 87 0 91.0294 0 96C0 100.971 4.25335 105 9.50005 105Z" fill="#D5EDFC"/>
<path d="M15 95.5C15 96.5878 14.6775 97.6512 14.0731 98.5556C13.4688 99.4601 12.6098 100.165 11.6048 100.581C10.5998 100.998 9.49395 101.107 8.42705 100.894C7.36015 100.682 6.38014 100.158 5.61095 99.3891C4.84175 98.6199 4.31792 97.6399 4.1057 96.573C3.89348 95.5061 4.00234 94.4002 4.41863 93.3952C4.83491 92.3902 5.53988 91.5313 6.44436 90.9269C7.34883 90.3226 8.41222 90 9.50003 90C10.2223 90 10.9375 90.1423 11.6048 90.4187C12.2721 90.6951 12.8784 91.1002 13.3891 91.6109C13.8998 92.1216 14.3049 92.7279 14.5813 93.3952C14.8577 94.0625 15 94.7777 15 95.5Z" fill="#E6F4FD"/>
<path d="M102.5 78C104.985 78 107 75.9853 107 73.5C107 71.0147 104.985 69 102.5 69C100.015 69 98 71.0147 98 73.5C98 75.9853 100.015 78 102.5 78Z" fill="#E6F4FD"/>
<path d="M108.871 161L67.2909 105.291C67.2909 105.291 59.5061 107.092 45.3604 105.291C37.9584 104.34 30.7095 104.894 28.3825 103.85C26.0555 102.805 26.775 98.0271 31.4443 96.2977C34.3914 95.1952 40.9437 93.6171 45.3681 92.601C45.7891 92.505 46.1743 92.3024 46.4818 92.015C46.7892 91.7276 47.0071 91.3664 47.112 90.9707C47.2169 90.575 47.2048 90.1598 47.0768 89.7701C46.9488 89.3804 46.71 89.0312 46.3862 88.7602C38.1957 81.8425 17.7502 64.4041 14.2826 59.7778C9.91951 53.9626 10.3559 51.8945 12.9737 50.0138C15.5916 48.133 19.1969 51.455 22.1593 53.9987C25.1216 56.5424 42.9568 71.0768 42.9568 71.0768C42.9568 71.0768 23.7055 42.7862 21.5239 38.7797C19.3423 34.7732 19.6639 31.9124 23.2386 30.4568C26.8133 29.0012 29.7296 32.878 32.8221 36.8269C35.9146 40.7757 53.237 62.1126 53.237 62.1126C53.237 62.1126 42.0306 35.7892 40.6758 32.633C39.3209 29.4768 43.2936 26.5079 47.5649 28.8282C51.8362 31.1486 65.5227 56.5496 65.5227 56.5496C65.5227 56.5496 61.3509 39.4787 60.5166 36.3729C59.3837 32.0493 65.1629 29.9668 68.4468 35.6163C72.7333 42.9087 76.9817 53.2276 78.2141 56.11C79.4465 58.9924 95.0542 76.892 98.2079 84.3358C101.362 91.7795 142 134.057 142 134.057L108.871 161Z" fill="#FFAD91"/>
<path d="M29 104.061C29 104.061 29.5383 101.9 30.4747 101.36C31.4111 100.82 37 101.048 37 101.048L36.6682 104.944C36.6682 104.944 30.5484 105.332 29 104.061Z" fill="#FFCEBD"/>
<path d="M14.3033 58L19 53.5842C19 53.5842 16.9334 50.57 14.6712 51.0523C13.821 51.247 13.0783 51.7428 12.5909 52.4411C12.1035 53.1393 11.9071 53.9887 12.0411 54.82C12.2916 55.875 14.3033 58 14.3033 58Z" fill="#FFCEBD"/>
<path d="M23.758 39L30 35.0842C30 35.0842 27.3066 30.8112 23.6062 32.3243C19.9058 33.8373 23.758 39 23.758 39Z" fill="#FFCEBD"/>
<path d="M43.5638 35L50 32.7723C50 32.7723 48.5179 28.7095 44.488 29.0166C40.4581 29.3236 42.2233 33.5006 43.5638 35Z" fill="#FFCEBD"/>
<path d="M62.3917 37L68 35.8055C68 35.8055 66.9137 32.6115 63.8821 33.0395C60.8506 33.4675 62.3917 37 62.3917 37Z" fill="#FFCEBD"/>
<path d="M72.7003 81.6609C72.7003 81.6609 81.2703 84.5194 86.5759 81.6609C91.8815 78.8023 93.2215 72.1491 91.2504 67.2681C89.2793 62.3872 84.9476 60.5005 80.421 60.6149C75.8945 60.7292 72.1471 64.9956 72.1471 64.9956L76.0425 65.8245L66 70.7055V56.2842L68.9061 59.5C68.9061 59.5 79.3849 52.0106 89.1625 56.3556C98.2701 60.4005 101.464 69.6407 97.0079 79.3169C92.7697 88.4928 81.426 88.3427 77.1021 87.7853C74.4069 87.4202 71.8004 86.6321 69.3968 85.4556L72.7003 81.6609Z" fill="black"/>
</svg>
