<svg width="144" height="212" viewBox="0 0 144 212" fill="none" xmlns="http://www.w3.org/2000/svg">
<path d="M144 199.572L123.559 133.563C123.559 133.563 136.698 85.9286 138.06 83.2742C139.422 80.6199 133.132 74.5963 127.825 79.5296C122.519 84.4629 117.42 102.105 117.42 102.105C117.42 102.105 109.853 66.0257 109.314 60.1004C108.519 51.923 105.19 47.9818 102.049 48.2499C98.909 48.518 97.4996 53.0848 97.5752 60.1094C97.6888 69.4754 99.5995 87.2423 99.5995 87.2423C99.5995 87.2423 88.8351 56.463 87.3028 52.0839C85.7704 47.7047 82.3652 42.5838 78.2694 44.3622C74.7129 45.9084 74.9115 53.4155 76.8317 60.3507C77.7208 63.5948 84.0016 88.6097 84.0016 88.6097C84.0016 88.6097 71.6198 61.727 69.6428 58.0628C67.3254 53.7462 60.9311 54.2466 61.9811 62.6475C62.4824 66.5619 70.182 96.2509 70.182 96.2509C70.182 96.2509 61.2149 79.2704 58.8312 76.6519C56.4475 74.0333 50.6303 73.9708 52.295 82.3537C53.9598 90.7367 60.9595 104.643 62.9553 109.674C64.9512 114.706 67.751 124.179 71.0806 130.909C74.4102 137.638 82.7814 144.842 82.7814 144.842L86.8204 208L144 199.572Z" fill="#E69C83"/>
<path d="M102.731 105.218C97.2728 110.404 94.0053 121 94.0053 121C94.0053 121 93.4576 105.551 103.449 99.1683C108.803 95.7652 112.996 95.6752 115.489 95C116.537 100.15 117 102.364 117 102.364C117 102.364 108.189 100.015 102.731 105.218Z" fill="#CD8B74"/>
<path d="M138 83.1765C138 83.1765 136.381 82.593 135.504 83.5478C134.628 84.5027 133 90.108 133 90.108L135.372 92L138 83.1765Z" fill="#FFCEBD"/>
<path d="M105 87C98.7728 87.2677 92.5837 88.0961 86.51 89.4746C77.1911 91.6854 69 99 69 99C74.9493 96.1507 81.0401 93.5971 87.2496 91.3487C93.0486 89.4678 98.9818 88.0142 105 87Z" fill="#CD8B74"/>
<path d="M94.7101 84.1628C96.359 75.7603 90.5407 75.8409 88.1528 78.4717C86.3648 80.9115 84.7625 83.4682 83.358 86.1224C83.8034 87.9121 84.0782 89.0038 84.0782 89.0038L83.0169 86.713C79.9656 92.1267 76.8101 98.1041 76.8101 98.1041C76.8101 98.1041 78.838 90.2476 80.8753 82.0778C78.8096 77.6037 76.1374 71.8052 73.8442 67C71.6268 71.7068 68.8314 77.7379 66.6235 82.5252C68.5187 89.9702 70.2339 96.6545 70.2339 96.6545C70.2339 96.6545 67.5617 91.5987 64.7473 86.5788L62.9374 90.4802C62.9374 90.4802 63.4302 88.4937 64.1598 85.5766C62.5978 82.6161 60.8216 79.7608 58.8438 77.031C56.4464 74.4092 50.6282 74.3465 52.2959 82.74C53.9637 91.1334 60.9759 105.057 62.9753 110.095C64.9747 115.133 67.7796 124.618 71.1151 131.356C71.949 132.984 72.9353 134.538 74.0621 136C74.765 134.977 75.3981 133.913 75.9573 132.814C79.2834 126.058 82.0598 116.573 84.0497 111.535C86.0397 106.498 93.0613 92.5652 94.7101 84.1628Z" fill="#CD8B74"/>
<path d="M62.1136 63.1338C62.3487 64.8899 64.1319 71.9142 66.0326 79C67.8746 72.0284 69.9517 64.0733 70.4905 62.3172C70.6767 61.6675 70.8432 61.009 71 60.3592C70.6081 59.5865 70.2848 58.9895 70.079 58.6031C67.6786 54.3885 61.0554 54.8802 62.1136 63.1338Z" fill="#CD8B74"/>
<path d="M77.0019 60.5393C77.4995 62.4194 79.7663 71.596 81.6092 79C83.2309 72.2675 84.6868 65.9468 84.8896 64.2816C85.9032 55.8659 79.6649 55.3287 77.4165 59.6977L77.0203 60.4856C77.0203 60.4856 76.9927 60.5214 77.0019 60.5393Z" fill="#CD8B74"/>
<path d="M0 199.189L20.1197 133.319C20.1197 133.319 6.98795 85.8901 5.64664 83.2532C4.30533 80.6162 10.5241 74.594 15.7956 79.5027C21.067 84.4113 26.1133 101.997 26.1133 101.997C26.1133 101.997 33.514 66.0062 34.0768 60.1265C34.8459 51.984 38.1476 48.0465 41.2617 48.3048C44.3758 48.5632 45.7828 53.1154 45.7171 60.1265C45.6233 69.4538 43.7567 87.1729 43.7567 87.1729C43.7567 87.1729 54.4028 56.4383 55.9036 52.0642C57.4043 47.6901 60.7811 42.5944 64.8519 44.3583C68.3787 45.8906 68.2005 53.3738 66.3058 60.2958C65.4241 63.5296 59.2428 88.4736 59.2428 88.4736C59.2428 88.4736 71.4365 61.6588 73.425 57.9973C75.7137 53.6945 82.0638 54.1845 81.032 62.5585C80.5537 66.4605 72.9654 96.0637 72.9654 96.0637C72.9654 96.0637 81.8293 79.1374 84.2212 76.5183C86.613 73.8992 92.3441 73.8457 90.712 82.1841C89.0799 90.5226 82.167 104.456 80.1879 109.435C78.2087 114.415 75.498 123.903 72.1775 130.62C68.8571 137.337 60.6122 144.535 60.6122 144.535L55.2282 212L0 199.189Z" fill="#FFAD91"/>
<path d="M40.2735 105.214C45.7213 110.389 48.9957 121 48.9957 121C48.9957 121 49.5038 105.53 39.502 99.156C34.1576 95.7573 29.98 95.6671 27.496 95C26.461 100.157 26 102.383 26 102.383C26 102.383 34.8257 100.012 40.2735 105.214Z" fill="#CD8B74"/>
<path d="M6 83.1781C6 83.1781 7.61661 82.5941 8.5 83.5409C9.38339 84.4877 11 90.1064 11 90.1064L8.65018 92L6 83.1781Z" fill="#FFCEBD"/>
<path d="M38 87C44.3973 87.2575 50.7567 88.078 56.9987 89.4512C66.5741 91.6555 75 99 75 99C68.8834 96.1472 62.6217 93.5922 56.2388 91.3445C50.2799 89.4614 44.1834 88.0092 38 87Z" fill="#CD8B74"/>
<path d="M117.366 101.247C117.366 101.247 120.197 100.459 119.989 103.311C119.782 106.162 115.772 108.389 111.498 109.547C107.988 110.37 104.417 110.93 100.818 111.222L97.4022 112.254C97.4022 112.254 101.582 122.818 94.5717 127.642C87.5617 132.467 77.0324 129.063 73.8152 124.791C70.5979 120.518 70.5507 118.808 70.5507 118.808C70.4856 121.076 69.6352 123.26 68.1336 125.013C66.632 126.767 64.5646 127.991 62.2575 128.493C53.9266 130.494 51.7943 125.298 52.417 121.342C52.8316 118.842 53.5373 116.395 54.521 114.046C54.521 114.046 42.4444 114.743 35.123 115.567C27.8016 116.391 23.9333 110.317 27.1317 106.94C30.3301 103.564 41.4632 99.6989 41.4632 99.6989L28.6035 91L62.2009 104.017L117.366 101.247Z" fill="#CD8B74"/>
<path d="M63.1322 0V99.8473C63.1322 99.8473 53.3653 69.6855 48.3161 70.6969C43.2669 71.7082 55.7241 95.3723 55.7241 95.3723C55.7241 95.3723 31.738 78.9578 25.4099 84.7754C19.0818 90.5929 44.29 98.111 44.29 98.111C44.29 98.111 29.5402 95.8556 24.3963 102.801C19.2523 109.746 29.4265 113.317 36.9672 112.753C42.1884 112.433 47.4267 112.45 52.6453 112.807C52.6453 112.807 45.4931 121.578 55.2315 125.704C64.97 129.83 70.3318 116.754 70.3318 116.754C70.3318 116.754 80.2692 131.343 92.1865 125.704C104.104 120.066 98.1546 110.489 98.1546 110.489C98.1546 110.489 119.024 107.249 119.971 98.5496C120.919 89.8501 98.0693 99.8473 98.0693 99.8473C98.0693 99.8473 105.818 94.5399 103.63 87.7826C101.442 81.0253 85.9815 97.404 85.9815 97.404C85.9815 97.404 97.4251 81.9561 95.7579 74.4827C94.0906 67.0094 76.8115 99.0955 76.8115 99.0955V0H63.1322Z" fill="#95D1F8"/>
<path d="M66.5463 0V104.664C66.5463 104.664 63.7153 103.285 61.1957 96.5703C59.5065 92.07 51.4098 74.2643 49.296 73.4461C47.1822 72.6278 60.3086 99.3008 60.3086 99.3008C60.3086 99.3008 48.8808 92.5858 43.2376 90.2023C37.5945 87.8187 39.6705 93.5642 44.1247 95.5386C48.5788 97.5131 58.6761 102.956 58.6761 102.956C58.6761 102.956 32.9893 97.4953 30.1677 103.241C27.3462 108.986 61.0542 107.545 61.0542 107.545C61.0542 107.545 52.3912 116.671 56.7227 119.606C61.0541 122.541 69.6604 108.132 69.6604 108.132C69.6604 108.132 75.9736 120.984 86.9957 117.569C98.0178 114.154 85.9954 106.576 85.9954 106.576C85.9954 106.576 107.058 108.408 111.531 101.542C116.004 94.6759 86.9957 103.223 86.9957 103.223C86.9957 103.223 97.244 97.682 98.1499 92.5502C99.0559 87.4184 82.4283 101.124 82.4283 101.124C82.4283 101.124 92.3746 85.1683 92.0821 79.4317C91.7896 73.6951 72.633 103.908 72.633 103.908V0H66.5463Z" fill="#BFE3FB"/>
<path d="M36.5981 85.9182C39.1071 86.351 29.1366 82.8263 26.9168 84.4134C24.697 86.0006 27.206 88 27.206 88C27.206 88 25.6297 84.0424 36.5981 85.9182Z" fill="#D5EDFC"/>
<path d="M71 113C71 113 74.8534 119.629 81.2692 120.768C87.685 121.908 90.9766 118.562 89.7447 116.884C88.5128 115.206 85.507 116.729 81.2692 116.538C77.0314 116.346 71 113 71 113Z" fill="#D5EDFC"/>
<path d="M80 93C80 93 87.7496 78.7392 90.6638 78.0824C93.5781 77.4256 91.1557 80.8356 88.8077 83.3728C86.4596 85.9101 80 93 80 93Z" fill="#D5EDFC"/>
<path d="M54 107.809C54 107.809 42.0361 106.175 39.4168 107.552C36.7976 108.929 47.1072 109.853 54 107.809Z" fill="#D5EDFC"/>
<path d="M37 78C37 78 33.9556 68.6338 27.6335 70.1703C21.3113 71.7068 27.1362 77.724 37 78Z" fill="#95D1F8"/>
<path d="M109 110.144C109 110.144 121 106.681 121 111.806C121.01 117.575 109 110.144 109 110.144Z" fill="#95D1F8"/>
<path d="M86.0058 64C86.0058 64 85.6111 54.2702 91.3508 56.2711C97.0904 58.2721 86.0058 64 86.0058 64Z" fill="#95D1F8"/>
<path d="M38 118C38 118 28.6805 117.954 30.159 121.166C31.5517 124.195 38 118 38 118Z" fill="#95D1F8"/>
<path d="M35 77C35 77 32.0832 71.3011 29.5062 71.0322C26.9293 70.7633 26.0419 72.2113 28.2697 74.135C30.4974 76.0588 35 77 35 77Z" fill="#BFE3FB"/>
<path d="M112 110.574C112 110.574 117.956 109.283 119.435 110.574C120.913 111.864 119.202 113 117.621 113C116.041 113 112 110.574 112 110.574Z" fill="#BFE3FB"/>
<path d="M35 119C35 119 31.8292 119.153 31.2239 119.946C30.6185 120.74 31.3007 121.19 32.5498 120.923C33.7989 120.656 35 119 35 119Z" fill="#BFE3FB"/>
<path d="M29.9859 71.4389C29.5922 71.1884 29.1588 71.0414 28.7144 71.0076C28.2699 70.9737 27.8246 71.0538 27.4078 71.2425C26.7718 71.563 26.8663 72.2763 27.7859 72.2763C28.7054 72.2763 29.7023 72.0385 30.3641 72.5141L31 73C30.766 72.393 30.419 71.8588 29.9859 71.4389Z" fill="#D5EDFC"/>
<path d="M117 110.036C117.855 109.92 118.725 110.084 119.481 110.502C120.355 111.162 120.023 112.155 119.237 111.979C118.45 111.804 118.887 111.127 117 110.036Z" fill="#D5EDFC"/>
<path d="M32 119C32 119 30.5539 119.394 30.125 120.162C29.6961 120.929 30.4741 121.228 30.9029 120.812C31.3326 120.255 31.7008 119.647 32 119Z" fill="#D5EDFC"/>
<path d="M67.4999 92C67.3674 92 67.2402 91.905 67.1464 91.736C67.0527 91.567 67 91.3377 67 91.0986V23.9014C67 23.6623 67.0527 23.433 67.1464 23.264C67.2402 23.095 67.3674 23 67.4999 23C67.6325 23 67.7597 23.095 67.8535 23.264C67.9472 23.433 67.9999 23.6623 67.9999 23.9014V91.0806C68.0012 91.2005 67.9893 91.3196 67.9648 91.4311C67.9402 91.5425 67.9036 91.644 67.8571 91.7297C67.8105 91.8153 67.7549 91.8833 67.6936 91.9297C67.6323 91.9761 67.5665 92 67.4999 92Z" fill="#D5EDFC"/>
</svg>
