<svg width="122" height="150" viewBox="0 0 122 150" fill="none" xmlns="http://www.w3.org/2000/svg">
<path d="M55.4893 7.30949C55.4893 7.30949 52.7603 2.51298 48.4008 4.46878C44.0413 6.42457 44.0482 11.5225 44.0482 11.5225C44.0482 11.5225 33.1325 5.37934 25.5324 13.9784C17.9323 22.5775 22.2644 29.3683 22.2644 29.3683C22.2644 29.3683 11.0622 30.6508 10.0866 43.1294C9.02228 56.8264 18.1232 62.3283 18.1232 62.3283C18.1232 62.3283 10.066 76.2562 16.595 87.7216C23.124 99.1871 33.8146 100.008 33.8146 100.008C33.8146 100.008 82.6013 109.421 93.06 108.985C103.519 108.549 108.751 107.35 113.97 98.7254C119.19 90.1006 111.46 77.84 111.46 77.84C111.46 77.84 117.163 73.3513 115.785 65.1498C114.407 56.9483 108.199 50.8116 108.199 50.8116C108.199 50.8116 113.786 41.1929 108.581 32.4078C105.238 26.7905 94.9361 25.9954 94.9361 25.9954C94.9361 25.9954 96.3961 15.6713 87.5202 12.2984C78.6444 8.92543 72.4155 16.5434 72.4155 16.5434C72.4155 16.5434 73.3229 5.07796 55.4893 7.30949Z" fill="#D5EDFC"/>
<path d="M58.4173 14.0725C58.4173 14.0725 54.0936 11.6594 50.951 14.0725C50.0594 14.6854 49.387 15.5398 49.0233 16.522C48.6595 17.5043 48.6216 18.5677 48.9147 19.5707C48.9147 19.5707 36.0659 16.1591 31.9458 19.5707C27.8258 22.9823 29.638 30.6633 29.638 30.6633C29.638 30.6633 22.5926 31.4954 22.0224 38.2354C21.6287 42.8311 26.5498 45.6858 26.5498 45.6858C26.5498 45.6858 22.4161 47.4588 22.8098 54.5189C23.2035 61.5789 24.975 64.1712 24.975 64.1712C24.975 64.1712 21.8256 70.8536 23.4003 77.3504C23.8107 79.1954 24.711 80.912 26.0168 82.3393C27.3227 83.7667 28.9914 84.8581 30.8666 85.5114C30.8666 85.5114 29.2104 89.595 40.1723 91.8225C51.1342 94.05 76.5197 88.4813 76.5197 88.4813C76.5197 88.4813 88.5473 98.9146 95.8235 98.9978C103.1 99.081 106.412 96.8535 107.702 91.08C108.138 89.3688 108.095 87.58 107.577 85.889C107.06 84.1981 106.085 82.6629 104.749 81.4341C104.749 81.4341 107.695 77.7664 107.715 71.2249C107.736 64.6833 100.975 61.8798 100.975 61.8798C100.975 61.8798 104.973 57.0152 103.69 52.8291C102.448 48.835 99.2377 48.3485 99.2377 48.3485L104.77 41.8838C104.77 41.8838 107.905 34.8878 100.935 33.7868C93.9637 32.6859 93.8551 25.9011 93.8551 25.9011C93.8551 25.9011 91.3301 15.7175 83.6738 17.3881C79.3211 18.2877 75.1177 19.7389 71.1779 21.7022C71.1779 21.7022 70.5874 10.5585 58.4173 14.0725Z" fill="#E6F4FD"/>
<path d="M36.0254 79C36.0254 79 35.6912 81.1962 36.0254 89.3574C36.3596 97.5185 13 135.912 13 135.912L57.2161 149L71 99.4029L36.0254 79Z" fill="#E69C83"/>
<path d="M68 111.925L54.6422 89.4919L39.1826 80.6978L35.796 79C35.7262 79.7058 35.5377 82.3574 35.796 89.1294C35.7483 90.4828 35.48 91.8221 35 93.1037C35.4127 93.6578 35.9334 94.1384 36.5362 94.5217C36.5362 94.5217 35.398 102.101 39.839 105.821C40.9945 106.88 42.4884 107.578 44.1067 107.816C45.7249 108.053 47.3843 107.818 48.8466 107.144C48.8466 107.144 49.8452 109.121 53.5599 110.323C56.353 111.245 60.3819 125.075 62.2393 132L68 111.925Z" fill="#CD8B74"/>
<path d="M39.033 81C39.033 81 36.6889 82.3745 37.0348 86.3469C37.0741 87.4321 37.4275 88.4872 38.0577 89.4006C38.6878 90.314 39.5713 91.0519 40.6146 91.536C40.6146 91.536 37.7268 96.3174 40.2546 100.132C42.7824 103.946 49.4337 102.809 49.4337 102.809C49.4337 102.809 53.2959 108.807 61.4793 106.452C69.6628 104.098 55.3011 83.999 55.3011 83.999L39.033 81Z" fill="#D5EDFC"/>
<path d="M41.2544 84.0074C41.2544 84.0074 40.441 85.5685 41.723 88.5306C43.005 91.4927 46.3758 92.6402 46.3758 92.6402C46.3758 92.6402 45.0743 95.9292 47.0265 98.2375C48.9787 100.546 51.6793 99.3383 51.6793 99.3383C51.6793 99.3383 52.6424 102.921 57.1326 101.773C61.6227 100.626 47.5276 83.5938 41.2544 84.0074Z" fill="#E6F4FD"/>
<path d="M87 51.049C87 51.049 93.1592 46.2615 97.2765 42.9515C101.394 39.6415 103.89 36.2237 105.952 37.1558C108.014 38.0879 106.999 42.9261 103.216 48.3985C99.4319 53.8708 89.5624 62 89.5624 62L87 51.049Z" fill="#E69C83"/>
<path d="M7 75.5C7 75.9945 6.88275 76.4778 6.66298 76.8889C6.44322 77.3 6.13085 77.6205 5.76539 77.8097C5.39994 77.9989 4.9978 78.0484 4.60983 77.952C4.22187 77.8555 3.86547 77.6174 3.58576 77.2678C3.30605 76.9181 3.1156 76.4727 3.03842 75.9877C2.96125 75.5028 3.00088 75.0001 3.15226 74.5433C3.30364 74.0865 3.55998 73.696 3.88888 73.4213C4.21778 73.1466 4.60445 73 5.00002 73C5.52997 73.002 6.03771 73.266 6.41244 73.7344C6.78717 74.2028 6.99841 74.8376 7 75.5Z" fill="#E6F4FD"/>
<path d="M7.5 114C11.6421 114 15 110.642 15 106.5C15 102.358 11.6421 99 7.5 99C3.35786 99 0 102.358 0 106.5C0 110.642 3.35786 114 7.5 114Z" fill="#D5EDFC"/>
<path d="M11.9999 106.468C12.0062 107.361 11.7469 108.235 11.2548 108.98C10.7628 109.725 10.0603 110.307 9.23677 110.651C8.41321 110.996 7.50576 111.088 6.62988 110.915C5.754 110.742 4.94924 110.313 4.31799 109.682C3.68673 109.051 3.25756 108.246 3.08494 107.37C2.91232 106.494 3.00407 105.587 3.34861 104.763C3.69316 103.94 4.27489 103.237 5.01979 102.745C5.76469 102.253 6.63907 101.994 7.53178 102C8.71421 102.008 9.84586 102.482 10.682 103.318C11.5181 104.154 11.9915 105.286 11.9999 106.468Z" fill="#E6F4FD"/>
<path d="M76.6881 150L53.5574 95.0742C48.8125 92.5718 44.462 89.4554 40.6324 85.8154C34.8345 80.1398 32.6035 74.0355 28.1482 67.0994C23.693 60.1633 17 54.0526 17 50.6869C17 47.3212 20.7907 44.8002 26.141 47.9547C31.4914 51.1092 47.7663 68.8398 47.7663 68.8398C47.7663 68.8398 39.7374 39.5981 37.2894 31.395C34.8414 23.192 32.6035 17.9579 32.8273 13.5173C33.0511 9.07661 36.8418 7.41297 39.0728 8.6799C41.3038 9.94683 55.3477 44.2243 55.3477 44.2243C55.3477 44.2243 53.1912 17.1325 53.1912 9.55651C53.1912 1.98053 54.778 0.911963 56.297 0.297695C57.0602 -0.0367662 57.9279 -0.0915021 58.7315 0.144128C59.3713 0.342025 59.9426 0.699078 60.3853 1.17767C60.8281 1.65626 61.1259 2.23867 61.2473 2.86355L69.5 42.6054C69.5 42.6054 68.8219 19.8839 69.5 15.0465C70.1782 10.2092 72.2871 7.17622 74.2943 6.54916C74.8205 6.38479 75.3758 6.31957 75.9286 6.3572C76.5607 6.39636 77.1583 6.64303 77.6178 7.05442C78.0773 7.46581 78.3697 8.01598 78.4444 8.60951L82.7369 41.1721C82.7369 41.1721 84.3237 33.2122 85.6596 26.4553C86.9955 19.6983 88.467 17.8619 89.8978 16.5118C90.5692 15.8897 91.4601 15.5229 92.4001 15.4816C92.7414 15.4675 93.0823 15.5197 93.4014 15.635C93.7204 15.7502 94.011 15.9261 94.2551 16.1516C94.4993 16.3772 94.6917 16.6476 94.8205 16.9462C94.9493 17.2448 95.0119 17.5652 95.0041 17.8875C94.9499 23.7487 94.8006 40.7242 94.8006 45.2289V70.2603C94.8006 79.935 93.0172 91.9261 93.0172 91.9261L122 131.681L76.6881 150Z" fill="#FFAD91"/>
<path d="M37 30C37 30 41.5156 31.6376 45.2647 36.7752C47.6399 40.1487 49.4599 43.8277 50.6653 47.6927C50.6653 47.6927 54.1496 49.3239 55.2785 51.2505C55.5962 51.8505 55.7614 52.5094 55.7614 53.1771C55.7614 53.8448 55.5962 54.5037 55.2785 55.1037C55.2785 55.1037 57.9684 60.8835 56.6234 63.9468C55.2785 67.0101 53.3134 66.7918 53.3134 66.7918C53.3134 66.7918 51.9893 72.5716 47.2507 68.6156C42.5121 64.6597 37 30 37 30Z" fill="#CD8B74"/>
<path d="M44 45C44 45 50.0986 45.8267 52.1185 48.4007C54.1385 50.9748 52.7639 54.5759 52.7639 54.5759C53.9883 55.7736 54.771 57.3301 54.9904 59.0038C55.2033 61.5778 51.8088 64.5589 51.8088 64.5589C51.9922 65.1387 52.0352 65.7517 51.9345 66.3503C51.8337 66.9489 51.5919 67.5168 51.2279 68.0098C49.5694 70.0013 47.5688 68.373 47.5688 68.373L44 45Z" fill="#D5EDFC"/>
<path d="M46.0186 49C47.3114 49.4442 48.387 50.3231 49.041 51.4698C50.2786 53.4456 49.3146 55.7919 49.3146 55.7919C49.3146 55.7919 50.4349 56.4093 50.9169 59.4965C51.3989 62.5837 49.7119 64.2941 47.7057 64.9794C45.6995 65.6648 46.0186 49 46.0186 49Z" fill="#E6F4FD"/>
<path d="M36.1892 57.2195C35.859 52.618 35.2804 48.0363 34.4556 43.4932C33.2794 37.8199 31.2668 32.4753 32.2731 30.6937C33.2793 28.9122 37.2907 27.1372 40.9825 33.2115C44.6743 39.2859 47.5298 51.1649 48.6992 57.2195C49.8686 63.2741 47.251 69 47.251 69L36.1892 57.2195Z" fill="#E69C83"/>
<path d="M49 30.088C49 30.088 57.0722 18.9776 59.2534 16.285C61.4345 13.5923 63.2691 9.3354 65.7831 9.01484C68.2972 8.69429 70.6414 13.5988 67.4614 20.5548C64.2815 27.5108 54.8368 44 54.8368 44L49 30.088Z" fill="#E69C83"/>
<path d="M67 28.4219C67 28.4219 73.9662 18.8296 77.6139 14.8888C81.2615 10.948 84.6875 6.8209 85.8698 8.31199C87.0521 9.80309 87.6701 13.6373 85.8698 18.2105C84.0694 22.7836 69.8819 43 69.8819 43L67 28.4219Z" fill="#E69C83"/>
<path d="M82 28.7767C82 28.7767 88.3735 22.7778 91.6513 20.8848C94.929 18.9917 99.1047 15.2432 98.998 21.3424C98.8912 27.4415 83.5258 41 83.5258 41L82 28.7767Z" fill="#E69C83"/>
<path d="M20.1609 57C20.1609 57 23.0732 54.7366 23.8617 54.1503C24.6501 53.564 21.8869 49.528 20.1609 49.1054C18.4348 48.6827 17 49.5826 17 50.8984C17 52.2141 17.6677 53.8094 20.1609 57Z" fill="#FFCEBD"/>
<path d="M39.4681 8C39.4681 8 36.5603 8.62587 35.4965 10.5348C34.4327 12.4437 35.305 15.2288 36.0071 15.9094C36.7092 16.5901 42 13.2104 42 13.2104C42 13.2104 40.688 8.77452 39.4681 8Z" fill="#FFCEBD"/>
<path d="M56.1932 6L62 5.03648C62 5.03648 61.7834 2.07182 60.3839 1.21663C58.9844 0.361443 56.1468 2.25997 56.0077 3.06385C55.9769 4.04455 56.0389 5.02565 56.1932 6Z" fill="#FFCEBD"/>
<path d="M79 12.9133C79 12.9133 75.3626 14.4517 74.6472 13.8677C73.9318 13.2837 73.7646 10.7695 74.373 9.30235C74.9815 7.83517 78.3848 8.0061 78.3848 8.0061C78.7501 9.61448 78.9563 11.2592 79 12.9133Z" fill="#FFCEBD"/>
<path d="M33.4658 39L39 37.887C39 37.887 38.3578 34.0661 36.2371 33.2973C34.1163 32.5285 31.8097 33.4006 32.0125 34.2152C32.2153 35.0299 33.4658 39 33.4658 39Z" fill="#FFCEBD"/>
<path d="M49.9223 29L57 39.997L54.741 44L49 30.2711L49.9223 29Z" fill="#CD8B74"/>
<path d="M66 27.3346L55 44L65.5117 25L66 27.3346Z" fill="#CD8B74"/>
<path d="M68.325 26L72 39.3052L69.6813 43L67 27.9948L68.325 26Z" fill="#CD8B74"/>
<path d="M72 39L82 28.4621V26L72 39Z" fill="#CD8B74"/>
<path d="M82.8451 28L86 38.7018L83.5211 41L82 28.7828L82.8451 28Z" fill="#CD8B74"/>
<path d="M86 39L94.9807 31.6805L95 29L86 39Z" fill="#CD8B74"/>
<path d="M95.7075 44L97 55.2324L95.0755 58L95 45.107L95.7075 44Z" fill="#CD8B74"/>
<path d="M49 63.5009C45.5997 59.3087 38.9234 56.2098 36 55C36.1313 56.4362 36.2005 57.3743 36.2005 57.3743L47.445 69C48.2037 67.2341 48.7261 65.387 49 63.5009Z" fill="#CD8B74"/>
<path d="M15.7053 20.9207L24.9469 19L27.5092 33.4362L31 31.7014L26.0194 44L15 36.6952L19.5488 35.71L15.7053 20.9207Z" fill="black"/>
<path d="M103.339 82.996L94.6722 85L92.2779 69.9864L89 71.7906L93.674 59L104 66.597L99.7307 67.6151L103.339 82.996Z" fill="black"/>
</svg>
