<svg width="182" height="217" viewBox="0 0 182 217" fill="none" xmlns="http://www.w3.org/2000/svg">
<path d="M116.857 73H98.1428C84.8091 73 74 83.1888 74 95.7573V162.243C74 174.811 84.8091 185 98.1428 185H116.857C130.191 185 141 174.811 141 162.243V95.7573C141 83.1888 130.191 73 116.857 73Z" fill="#E9E5F6"/>
<path d="M118.534 121.49C115.534 123.065 101.806 135.271 101.806 135.271C101.806 135.271 118.766 111.49 120.551 108.19C124.363 101.119 118.882 98.7198 115.365 101.818C112.374 104.444 92.2366 124.327 92.2366 124.327C92.2366 124.327 106.34 104.225 108.242 101.641C112.312 96.1186 115.061 89.5694 112.455 87.1282C109.447 84.3082 104.671 87.7511 101.841 91.1604C99.0117 94.5697 78.972 118.367 78.972 118.367C78.972 118.367 86.7558 103.308 90.0585 95.0664C92.5401 88.9044 92.8614 84.4513 90.1835 83.2812C87.5056 82.1111 83.212 84.5439 79.7129 91.4971C78.9631 93.004 76.7404 96.6742 74 101.077V162.191C73.9977 165.965 74.9916 169.679 76.8922 173C80.2038 171.51 85.6757 168.791 89.148 165.5C94.3967 160.592 100.101 153.1 103.591 149.287C107.081 145.473 118.016 135.372 122.336 128.486C126.657 121.6 121.542 119.908 118.534 121.49Z" fill="#DCD4F6"/>
<path d="M121.902 77.4002V73H94V78.9483H94.0445C94.4539 83.4411 100.533 87 108 87C115.734 87 122 83.1803 122 78.4687C122.002 78.1105 121.969 77.7528 121.902 77.4002Z" fill="#FF4D4D"/>
<path d="M122 72.5C122 67.8057 115.776 64 108.013 64C100.251 64 94 67.8057 94 72.5C94 77.1943 100.224 81 107.987 81C115.749 81 122 77.1943 122 72.5Z" fill="#FF7A7A"/>
<path d="M112.962 69.2101V48H102V69.8487C102.161 71.605 104.557 73 107.49 73C110.423 73 112.998 71.5042 112.998 69.6387C113.005 69.495 112.993 69.351 112.962 69.2101Z" fill="#E9E5F6"/>
<path d="M121.875 45.0567V36H94V46.6908H94.0446C94.4456 51.3147 100.532 55 108 55C115.735 55 122 51.054 122 46.1953C121.995 45.8128 121.953 45.4317 121.875 45.0567Z" fill="#FF4D4D"/>
<path d="M122 36.5C122 31.8011 115.762 28 108 28C100.238 28 94 31.8179 94 36.5C94 41.1821 100.238 45 108 45C115.762 45 122 41.1905 122 36.5Z" fill="#FF7A7A"/>
<path d="M0 200.126L40.4644 148.467C40.4644 148.467 45.1341 102.756 44.9033 100.033C44.6725 97.3099 52.183 93.9335 55.157 99.8569C58.131 105.78 56.604 122.813 56.604 122.813C56.604 122.813 75.5046 93.4895 78.0348 88.4626C81.5148 81.5423 85.7761 79.1042 88.4394 80.2855C91.1027 81.4668 90.792 85.9073 88.3151 92.0149C85.0304 100.184 77.2979 115.172 77.2979 115.172C77.2979 115.172 97.1662 91.4955 99.9449 88.094C102.724 84.6924 107.509 81.2742 110.5 84.0808C113.093 86.5105 110.367 93.0287 106.319 98.5247C104.428 101.088 90.3925 121.104 90.3925 121.104C90.3925 121.104 110.421 101.315 113.395 98.7007C116.901 95.6175 122.343 98.0053 118.552 105.043C116.777 108.327 99.9094 131.995 99.9094 131.995C99.9094 131.995 113.563 119.847 116.546 118.272C119.529 116.697 124.66 118.406 120.337 125.251C116.013 132.096 105.147 142.15 101.694 145.953C98.2404 149.757 92.5498 157.205 87.3297 162.09C82.1096 166.974 72.3264 170.761 72.3264 170.761L48.8361 217L0 200.126Z" fill="#FFAD91"/>
<path d="M68.4578 129.718C71.4624 135.848 70.7529 146 70.7529 146C70.7529 146 76.3854 132.799 69.8156 124.254C66.3116 119.69 62.7026 118.341 60.7667 117L57 122.922C57 122.922 65.4532 123.58 68.4578 129.718Z" fill="#CD8B74"/>
<path d="M72 113C77.6367 115.109 83.0451 117.68 88.1566 120.682C95.9664 125.369 101 134 101 134C101 134 93.436 126.907 86.8277 122.04C82.1444 118.697 77.1878 115.675 72 113Z" fill="#CD8B74"/>
<path d="M111.863 31.0182C111.118 30.8106 109.165 32.4294 109.008 33.4505C108.851 34.4716 111.002 36.5802 111.582 36.9703C112.161 37.3605 116 33.7743 116 33.7743C116 33.7743 113.038 31.3336 111.863 31.0182Z" fill="#FFCEBD"/>
<path d="M114.188 24C113.403 24 111.896 26.1201 112.006 27.1709C112.115 28.2218 114.8 29.7611 115.485 29.9916C116.169 30.222 119 25.6408 119 25.6408C119 25.6408 115.421 24.0092 114.188 24Z" fill="#FFCEBD"/>
<path d="M111.07 27C110.911 28.2554 111.024 29.5282 111.401 30.7411C112.084 30.7164 112.756 30.9074 113.311 31.284C120.896 35.8565 142 52 142 52C142 52 135.007 45.2898 126.481 38.5202C120.815 34.0071 113.212 29.4007 111.07 27Z" fill="#CD8B74"/>
<path d="M125 29.0562L153 46L128.87 29.0076C126.662 28.9753 125 29.0562 125 29.0562Z" fill="#CD8B74"/>
<path d="M150.805 33.9791C148.239 33.4087 146 33 146 33L163 44L150.805 33.9791Z" fill="#CD8B74"/>
<path d="M101 50L90.2969 59.2618L87 68" stroke="#FFE5F6" stroke-width="3.65" stroke-miterlimit="10" stroke-linecap="round"/>
<path d="M94.9259 108.057C94.9259 108.057 96.3225 117.578 86.9903 122.512C77.6581 127.446 73.5331 119.127 74.0418 111.916C74.2885 107.759 75.4992 103.697 77.5934 100L94.9259 108.057Z" fill="#CD8B74"/>
<path d="M86.1623 80C86.1623 80 75.441 101.777 76.0229 109.673C76.6218 117.8 81.3621 118.402 86.5986 117.85C91.8352 117.297 94 111.684 94 107.53C94 100.499 86.1623 80 86.1623 80Z" fill="#95D1F8"/>
<path d="M85.4996 98C85.4996 98 80.3153 102.924 80.0167 108.236C79.7181 113.549 83.4639 115.342 87.7163 112.974C91.9687 110.605 91.263 105.961 90.1501 103.592C89.0372 101.223 85.4996 98 85.4996 98Z" fill="#BFE3FB"/>
<path d="M89.6844 113.089C90.9209 111.938 91.3212 109.549 90.7341 108.664C90.147 107.779 89.3375 107.779 88.2256 108.664C87.1137 109.549 85.1033 112.523 86.4465 113.62C87.7897 114.717 89.6844 113.089 89.6844 113.089Z" fill="#D5EDFC"/>
<path d="M87.8767 167.016H89.3327V174.794C89.3327 175.845 89.0159 176.667 88.3822 177.261C87.7535 177.854 86.9136 178.151 85.8625 178.151C84.7711 178.151 83.9212 177.872 83.3126 177.314C82.7041 176.755 82.3998 175.973 82.3998 174.967H83.8483C83.8483 175.596 84.0193 176.086 84.3613 176.438C84.7083 176.79 85.2087 176.966 85.8625 176.966C86.461 176.966 86.9438 176.778 87.3109 176.401C87.6831 176.023 87.8717 175.495 87.8767 174.816V167.016ZM97.6989 175.133H93.0971L92.0636 178H90.5699L94.7644 167.016H96.0317L100.234 178H98.7476L97.6989 175.133ZM93.5347 173.941H97.2689L95.398 168.804L93.5347 173.941ZM101.712 178V167.016H105.303C106.495 167.016 107.39 167.262 107.989 167.755C108.592 168.248 108.894 168.977 108.894 169.943C108.894 170.456 108.748 170.911 108.457 171.309C108.165 171.701 107.768 172.005 107.265 172.221C107.858 172.387 108.326 172.704 108.668 173.172C109.015 173.635 109.188 174.188 109.188 174.832C109.188 175.817 108.869 176.592 108.23 177.155C107.592 177.718 106.689 178 105.522 178H101.712ZM103.161 172.863V176.816H105.552C106.226 176.816 106.757 176.642 107.144 176.295C107.536 175.943 107.732 175.46 107.732 174.847C107.732 173.524 107.013 172.863 105.575 172.863H103.161ZM103.161 171.701H105.349C105.982 171.701 106.488 171.542 106.865 171.226C107.247 170.909 107.438 170.479 107.438 169.936C107.438 169.332 107.262 168.894 106.91 168.623C106.558 168.346 106.022 168.208 105.303 168.208H103.161V171.701ZM119.788 172.863C119.788 173.939 119.607 174.879 119.244 175.684C118.882 176.484 118.369 177.095 117.705 177.517C117.042 177.94 116.267 178.151 115.382 178.151C114.517 178.151 113.75 177.94 113.081 177.517C112.412 177.09 111.892 176.484 111.519 175.699C111.152 174.909 110.964 173.997 110.954 172.961V172.169C110.954 171.112 111.137 170.179 111.504 169.37C111.872 168.56 112.39 167.941 113.058 167.514C113.732 167.081 114.502 166.865 115.367 166.865C116.247 166.865 117.022 167.079 117.69 167.506C118.364 167.929 118.882 168.545 119.244 169.355C119.607 170.159 119.788 171.097 119.788 172.169V172.863ZM118.347 172.153C118.347 170.851 118.085 169.853 117.562 169.158C117.039 168.459 116.307 168.11 115.367 168.11C114.452 168.11 113.73 168.459 113.202 169.158C112.679 169.853 112.41 170.818 112.395 172.055V172.863C112.395 174.125 112.659 175.118 113.187 175.842C113.72 176.562 114.452 176.921 115.382 176.921C116.317 176.921 117.042 176.582 117.555 175.903C118.068 175.219 118.332 174.241 118.347 172.968V172.153ZM116.076 164.059H117.766L115.744 166.277H114.62L116.076 164.059ZM130.402 178H128.946L123.416 169.536V178H121.96V167.016H123.416L128.961 175.518V167.016H130.402V178Z" fill="#FF4D4D"/>
<path d="M182 16.8236C182 16.8236 175.457 3.32838 159.926 2.30426C144.395 1.28015 138.54 7.4331 138.54 7.4331L136.368 0L131 20.8457L148.262 21.9442L143.362 15.337C145.751 13.788 148.446 12.6984 151.289 12.1313C154.133 11.5642 157.069 11.5309 159.926 12.0334C169.365 13.8256 173.17 25 173.17 25L182 16.8236Z" fill="black"/>
</svg>
