<svg width="182" height="164" viewBox="0 0 182 164" fill="none" xmlns="http://www.w3.org/2000/svg">
<path d="M160.169 81.8721C161.826 80.8372 163.123 79.3562 163.894 77.6175C164.665 75.8789 164.875 73.9612 164.498 72.1084C164.192 70.1919 163.304 68.4026 161.942 66.9614C160.58 65.5201 158.805 64.4899 156.836 63.998C156.836 63.998 156.836 54.264 144.619 52.3735C132.402 50.483 109.76 52.9147 109.76 52.9147C109.76 52.9147 105.929 45.0711 93.0343 43.2029C80.14 41.3347 75.258 52.9814 75.258 52.9814C75.258 52.9814 66.7318 48.9262 61.1022 52.9814C55.4727 57.0366 56.7263 66.0589 56.7263 66.0589C56.7263 66.0589 50.9721 64.7245 49.0567 67.9716C47.1412 71.2188 49.0567 75.4742 49.0567 75.4742C49.0567 75.4742 40.9588 77.0978 40.1101 83.9924C39.2614 90.887 43.5984 97.7149 43.5984 97.7149L67.9932 115.137L64.8397 115.292C64.8397 115.292 66.1478 128.17 76.0132 131.232C79.2812 132.304 82.8595 132.12 85.9876 130.72C90.021 135.398 97.2545 141.025 107.439 138.275C119.119 135.124 118.706 124.07 118.706 124.07C118.706 124.07 124.46 130.505 129.288 128.882C134.115 127.258 136.389 121.683 136.389 121.683L152.009 105.647C152.009 105.647 162.801 101.57 164.654 93.7264C165.217 91.5496 165.091 89.2629 164.293 87.1538C163.495 85.0447 162.06 83.2071 160.169 81.8721Z" fill="#D5EDFC"/>
<path d="M138.193 64C138.193 64 143.78 64.2718 145.642 66.9379C147.504 69.604 145.642 74.2018 145.642 74.2018C145.642 74.2018 149.045 76.6697 149.921 83.2579C150.798 89.8461 144.053 96.4196 144.053 96.4196L126.144 107.305C126.144 107.305 127.295 113.503 123.429 116.118C119.564 118.733 115.097 116.317 115.097 116.317C115.097 116.317 114.839 120.797 109.683 123.551C104.527 126.305 100.004 121.517 100.004 121.517C100.004 121.517 96.3116 127.15 90.6157 127.921C84.9198 128.692 81 123.551 81 123.551L93.4088 93.7168L138.193 64Z" fill="#E6F4FD"/>
<path d="M57.3656 92C57.3656 92 54.293 85.8145 57.3656 80.9027C60.4381 75.9909 67.0211 76.4104 67.0211 76.4104C67.0211 76.4104 66.829 69.0122 69.2486 66.4953C70.1646 65.4532 71.3391 64.667 72.6555 64.2148C73.972 63.7626 75.3846 63.6601 76.7533 63.9173C78.1764 64.083 79.5075 64.701 80.5479 65.6792C80.5479 65.6792 80.6248 60.714 83.2057 59.4327C85.7866 58.1513 88.8515 60.1572 88.8515 60.1572C88.8515 60.1572 89.9038 52.6217 97.7311 54.2234C105.558 55.8251 113.301 65.3589 108.539 76.4943C103.776 87.6297 57.3656 92 57.3656 92Z" fill="#E6F4FD"/>
<path d="M63 117L64.1176 95.7205L100.936 93L103 109.569L63 117Z" fill="#CD8B74"/>
<path d="M48.5806 85C41.3171 89.8355 34.2659 94.8342 30.2489 97.9714C21.1224 105.106 0 155.953 0 155.953L41.8595 164L63.6343 114.822L71 101.064C71 101.064 65.7175 100.575 62.1958 98.4831C59.6017 96.9256 52.3932 91.8825 48.5806 85Z" fill="#FFAD91"/>
<path d="M120.998 99.1643C120.998 99.1643 121.149 113.587 118.773 116.011C116.398 118.436 108.914 121.461 108.914 121.461C108.268 122.798 107.342 124.005 106.189 125.011C105.035 126.016 103.677 126.801 102.193 127.321C98.7382 128.367 95.1464 128.978 91.5146 129.137C90.9225 130.396 89.9087 131.446 88.6219 132.134C87.335 132.822 85.8428 133.112 84.3642 132.961C78.8902 132.602 75.9268 132.229 75.9268 132.229C75.9268 132.229 71.573 132.807 66.8299 132.961C62.0869 133.115 57.8681 123.834 58.0032 121.769C58.1382 119.703 58.3925 110.349 59.4491 106.702C60.5058 103.054 63.7314 103.603 65.1854 104.27C66.6393 104.936 67.1636 107.251 67.1636 107.251C67.1636 107.251 67.4258 102.688 68.9353 101.083C69.5401 100.432 70.3805 100.005 71.3008 99.8809C72.2211 99.757 73.159 99.9448 73.9406 100.41C75.2674 101.142 76.1175 103.303 76.1175 103.303C76.1175 103.303 76.3161 100.204 77.8972 99.4134C79.4782 98.6223 82.0523 98.9885 83.3076 99.7137C84.5629 100.439 85.413 102.812 85.413 102.812C85.413 102.812 86.6683 99.4134 88.3764 98.3147C90.0846 97.2159 91.5544 96.5567 93.4135 97.3478C95.2726 98.1389 95.8923 100.505 95.8923 100.505L116.064 97.8312L120.998 99.1643Z" fill="#E69C83"/>
<path d="M94.0208 99C93.9527 101.271 94.0208 104.763 94.702 106.883C95.8297 110.218 100 111 100 111L98.7966 101.209L95.7691 101.607C95.4762 100.603 94.869 99.6979 94.0208 99Z" fill="#CD8B74"/>
<path d="M120.995 100.312L116.209 99L104 100.629C104.046 106.395 104.632 114.734 107.676 113.948C112.301 112.752 115.384 105.184 115.384 105.184L120.964 104.852C121.018 102.287 120.995 100.312 120.995 100.312Z" fill="#CD8B74"/>
<path d="M65.6977 104.159L65.3225 104C65.6664 108.182 63.7592 114.904 66.5341 118.837C69.778 123.374 76 129 76 129C76 129 69.9109 121.975 68.7462 119.215C67.5815 116.455 67.6362 107.237 67.6362 107.237C67.6362 107.237 67.1203 104.847 65.6977 104.159Z" fill="#CD8B74"/>
<path d="M78.7441 117.947C77.2783 115.881 76.4133 103.651 76.4133 103.651L76.149 103.053C75.7485 102.086 75.0974 101.235 74.2587 100.583C73.5775 100.187 72.7945 99.9846 72 100.001C73.097 101.359 73.8291 102.96 74.1306 104.66C74.5311 108.015 74.2667 115.221 76.3892 119.476C78.5118 123.732 92 131 92 131C92 131 80.2018 120.004 78.7441 117.947Z" fill="#CD8B74"/>
<path d="M99.6764 122.724C97.5425 121.18 90.5128 116.48 88.5 113.51C86.4872 110.541 85.617 103.73 85.617 103.73L84.8603 102.089C84.5649 101.502 84.1348 100.991 83.6042 100.597C83.1059 100.313 82.5641 100.112 82 100C82.4468 101.714 82.758 103.46 82.9307 105.222C83.3469 109.557 82.7188 113.167 86.2375 116.621C89.7561 120.075 96.2788 124.686 99.0407 124.977C101.803 125.268 108 122.724 108 122.724C108 122.724 101.788 124.305 99.6764 122.724Z" fill="#CD8B74"/>
<path d="M46 55C46 55.3956 45.912 55.7822 45.7472 56.1111C45.5824 56.44 45.3481 56.6964 45.074 56.8478C44.7999 56.9992 44.4983 57.0387 44.2074 56.9616C43.9164 56.8844 43.6491 56.6939 43.4393 56.4142C43.2296 56.1345 43.0867 55.7781 43.0288 55.3902C42.9709 55.0022 43.0007 54.6001 43.1142 54.2346C43.2277 53.8692 43.42 53.5568 43.6666 53.3371C43.9133 53.1173 44.2033 53 44.5 53C44.8978 53 45.2794 53.2107 45.5607 53.5858C45.842 53.9609 46 54.4696 46 55Z" fill="#E6F4FD"/>
<path d="M178 94C178 94.3956 177.912 94.7823 177.747 95.1112C177.582 95.44 177.348 95.6964 177.074 95.8478C176.8 95.9991 176.498 96.0387 176.207 95.9616C175.916 95.8844 175.649 95.6939 175.439 95.4142C175.23 95.1345 175.087 94.7782 175.029 94.3902C174.971 94.0022 175.001 93.6001 175.114 93.2346C175.228 92.8692 175.42 92.5568 175.667 92.3371C175.913 92.1173 176.203 92 176.5 92C176.897 92.0025 177.278 92.214 177.559 92.5885C177.84 92.9631 177.998 93.4703 178 94Z" fill="#E6F4FD"/>
<path d="M59.5 46C62.5376 46 65 43.5376 65 40.5C65 37.4624 62.5376 35 59.5 35C56.4624 35 54 37.4624 54 40.5C54 43.5376 56.4624 46 59.5 46Z" fill="#D5EDFC"/>
<path d="M64 39.5C64 40.1922 63.7948 40.8689 63.4102 41.4445C63.0256 42.0201 62.4789 42.4687 61.8394 42.7336C61.1998 42.9985 60.4961 43.0678 59.8172 42.9328C59.1383 42.7977 58.5146 42.4644 58.0251 41.9749C57.5356 41.4854 57.2023 40.8617 57.0673 40.1828C56.9322 39.5039 57.0015 38.8002 57.2664 38.1606C57.5313 37.5211 57.9799 36.9744 58.5555 36.5898C59.1311 36.2053 59.8078 36 60.5 36C61.4283 36 62.3185 36.3688 62.9749 37.0251C63.6313 37.6815 64 38.5717 64 39.5Z" fill="#E6F4FD"/>
<path d="M176.5 82C179.538 82 182 79.5376 182 76.5C182 73.4624 179.538 71 176.5 71C173.462 71 171 73.4624 171 76.5C171 79.5376 173.462 82 176.5 82Z" fill="#D5EDFC"/>
<path d="M181 77.4923C181.002 78.1851 180.797 78.8629 180.413 79.4397C180.029 80.0164 179.483 80.4662 178.843 80.7321C178.203 80.998 177.499 81.0679 176.819 80.9331C176.139 80.7983 175.515 80.4648 175.025 79.9749C174.535 79.4849 174.202 78.8606 174.067 78.1809C173.932 77.5012 174.002 76.7969 174.268 76.157C174.534 75.5172 174.984 74.9706 175.56 74.5866C176.137 74.2026 176.815 73.9985 177.508 74C178.434 74 179.322 74.3679 179.977 75.0228C180.632 75.6778 181 76.566 181 77.4923Z" fill="#E6F4FD"/>
<path d="M176 127.378L152.331 90.5645C152.331 90.5645 151.318 75.9606 149.53 66.2691C147.742 56.5776 138.44 32.4893 136.659 26.8741C134.879 21.2589 133.728 15.8287 132.054 14.7264C130.381 13.624 128.363 14.1123 128.11 18.7731C127.856 23.434 131.563 42.8466 131.563 42.8466C131.563 42.8466 120.366 17.693 118.324 12.7807C116.283 7.8683 113.996 4.07308 112.346 3.45904C110.696 2.84499 108.508 3.94732 108.654 8.7339C108.8 13.5205 117.948 40.8861 117.948 40.8861C117.948 40.8861 99.736 4.43559 97.449 1.49113C95.1619 -1.45332 92.2301 0.144679 92.2301 4.68713C92.2301 9.22957 105.722 41.9884 105.722 41.9884C105.722 41.9884 87.303 17.079 85.8601 14.8669C84.4173 12.6549 79.3673 14.8669 81.5316 21.7398C83.6958 28.6126 100.718 62.792 103.021 69.0508C105.323 75.3096 103.213 79.7263 97.2878 82.1233C91.3629 84.5203 96.1442 97.9479 96.1442 97.9479C96.1442 97.9479 105.692 102.002 112.568 102.187C116.142 102.353 119.724 102.167 123.259 101.632L138.54 139L176 127.378Z" fill="#FFAD91"/>
<path d="M116.229 100.976C116.79 99.0341 117.294 96.7545 116.798 95.7838C114.757 91.8071 104.455 81.8045 100.373 79C100.104 79.2442 99.8178 79.4724 99.5161 79.6832L99.4681 79.7191C99.1806 79.9247 98.8813 80.1167 98.5716 80.2944L98.4275 80.3807C98.1394 80.5437 97.8352 80.7019 97.515 80.8553L97.2989 80.9631C96.9147 81.1429 96.4985 81.3083 96.0903 81.4737C89.9189 83.7964 94.8976 96.8552 94.8976 96.8552C94.8976 96.8552 104.855 100.796 112.027 100.976C113.58 101.012 114.981 101.004 116.229 100.976Z" fill="#CD8B74"/>
<path d="M96.0726 99.5252C90.9991 101.331 85.7053 102.478 80.3268 102.936C72.2704 103.451 69 100.711 69 100.711L99 94L96.0726 99.5252Z" fill="#CD8B74"/>
<path d="M112.865 96.7506C112.278 94.318 107.209 87.3817 101.161 81.1307C95.1128 74.8797 79.3345 69.0203 71.931 71.6412C67.7789 73.1098 58.2132 79.0822 49 85.3256C52.7996 92.3147 59.9681 97.436 62.5691 99.0025C66.0788 101.126 71.3435 101.623 71.3435 101.623C71.3435 101.623 73.6938 101.623 81.8728 101.247C86.7979 101.019 91.63 99.8735 96.1 97.8728C95.9991 100.821 96.1959 103.772 96.6875 106.684C97.471 110.45 98.8107 116.633 104.679 116.987C110.546 117.341 110.327 110.247 111.111 106.684C111.894 103.122 113.469 99.1606 112.865 96.7506Z" fill="#FFAD91"/>
<path d="M109.189 104.468C108.485 105.53 108.987 108.374 108.485 110.531C108.227 111.676 108.065 112.835 108 114C109.763 111.919 109.86 108.312 110.426 106.14C110.588 105.446 110.79 104.753 111 104.059C110.305 103.948 109.544 103.948 109.189 104.468Z" fill="#FFCEBD"/>
<path d="M60.0001 110C60.0001 110 63.5862 109.491 64.2705 108.903C64.7419 108.301 65 107.542 65 106.758C65 105.974 64.7419 105.215 64.2705 104.613C63.0421 103.306 60.8575 104.323 60.4453 105.49C60.144 106.972 59.9948 108.484 60.0001 110Z" fill="#FFCEBD"/>
<path d="M68.0012 106C69.1364 105.965 70.2666 105.798 71.3779 105.502C72.1638 105.139 72.0439 103.442 71.8774 102.37C71.7109 101.297 69.6929 100.605 68.8137 101.247C67.9345 101.888 68.0012 106 68.0012 106Z" fill="#FFCEBD"/>
<path d="M58.7206 75.715L63 59.5584L57.0546 64.5426C57.0546 64.5426 53.5266 54.6108 39.9046 56.1651C24.2817 57.9457 24.249 71.2198 28.1772 82.436C31.4439 91.7184 45.8826 104 45.8826 104L52.6038 96.6077C52.6038 96.6077 37.4055 84.9317 35.4537 73.6134C33.4692 62.0615 41.9381 60.8647 44.4371 61.5871C47.3281 62.4336 50.4804 67.9578 50.4804 67.9578L43.3836 69.9792L58.7206 75.715Z" fill="black"/>
</svg>
