<svg width="394" height="309" viewBox="0 0 394 309" fill="none" xmlns="http://www.w3.org/2000/svg">
<path d="M343 289.417L313.516 193.974C313.516 193.974 336.409 111.047 338.724 106.425C341.038 101.803 330.157 91.3169 320.926 99.9061C311.696 108.495 302.804 139.232 302.804 139.232C302.804 139.232 289.721 76.3692 288.691 66.03C287.279 51.8037 281.507 44.9376 275.988 45.3918C270.47 45.846 268.085 53.8208 268.226 66.0567C268.423 82.367 271.74 113.318 271.74 113.318C271.74 113.318 253.011 59.7117 250.4 52.0708C247.789 44.43 241.819 35.5336 234.691 38.6326C228.51 41.3042 228.848 54.3952 232.179 66.4842C233.746 72.1347 244.656 115.709 244.656 115.709C244.656 115.709 223.118 68.8753 219.703 62.4901C215.666 54.9695 204.53 55.8111 206.379 70.505C207.226 77.3309 220.634 129.04 220.634 129.04C220.634 129.04 205.038 99.4653 200.875 94.9102C196.711 90.3551 186.62 90.2215 189.514 104.835C192.407 119.449 204.573 143.667 208.045 152.43C211.517 161.193 216.386 177.69 222.159 189.419C227.931 201.147 242.482 213.717 242.482 213.717L252.108 309L343 289.417Z" fill="#FFAD91"/>
<path d="M278.159 144.695C268.678 153.65 263.009 172 263.009 172C263.009 172 262.066 145.27 279.481 134.217C288.779 128.337 296.051 128.176 300.383 127C302.198 135.914 303 139.75 303 139.75C303 139.75 287.625 135.727 278.159 144.695Z" fill="#CD8B74"/>
<path d="M339 106.309C339 106.309 336.087 105.283 334.5 106.97C332.913 108.656 330 118.64 330 118.64L334.267 122L339 106.309Z" fill="#FFCEBD"/>
<path d="M282 113C270.933 113.442 259.934 114.818 249.139 117.112C232.561 120.794 218 133 218 133C218 133 235.806 124.958 250.452 120.248C260.757 117.11 271.303 114.687 282 113Z" fill="#CD8B74"/>
<path d="M25 287.24L53.622 194.097C53.622 194.097 30.5407 111.279 28.1802 106.591C25.8198 101.902 36.7456 91.4701 46.0036 100.032C55.2616 108.595 64.2086 139.344 64.2086 139.344C64.2086 139.344 77.2123 76.456 78.2017 66.1172C79.6151 51.8779 85.2687 45.012 90.8094 45.4528C96.3501 45.8936 98.753 53.8682 98.6399 66.1172C98.4703 82.4269 95.191 113.377 95.191 113.377C95.191 113.377 113.848 59.7322 116.393 52.0916C118.937 44.451 124.958 35.5414 132.11 38.6271C138.301 41.2986 137.99 54.3757 134.668 66.4778C133.114 72.1281 122.258 115.714 122.258 115.714C122.258 115.714 143.757 68.8555 147.163 62.4572C151.191 54.9368 162.343 55.7783 160.52 70.4718C159.686 77.2976 146.386 129.019 146.386 129.019C146.386 129.019 161.933 99.4312 166.089 94.8629C170.244 90.2946 180.365 90.1476 177.495 104.774C174.626 119.401 162.584 143.552 159.064 152.354C155.545 161.157 150.767 177.627 144.93 189.369C139.092 201.11 124.619 213.693 124.619 213.693L115.163 309L25 287.24Z" fill="#FFAD91"/>
<path d="M88.8265 144.668C98.305 153.636 103.992 172 103.992 172C103.992 172 104.891 145.23 87.4785 134.188C78.1966 128.312 70.9228 128.151 66.5978 127C64.8004 135.928 64 139.769 64 139.769C64 139.769 79.348 135.714 88.8265 144.668Z" fill="#CD8B74"/>
<path d="M85 113C96.0602 113.427 107.055 114.793 117.846 117.081C134.417 120.757 149 133 149 133C149 133 131.188 124.942 116.563 120.233C106.251 117.095 95.7008 114.678 85 113Z" fill="#CD8B74"/>
<path d="M37 7L40.7875 20.057C41.4325 22.2726 42.6592 24.291 44.3492 25.9181C46.0393 27.5451 48.136 28.726 50.4374 29.347L64 33.0067L50.4374 36.653C48.136 37.274 46.0393 38.4549 44.3492 40.0819C42.6592 41.709 41.4325 43.7274 40.7875 45.943L37 59L33.2125 45.943C32.5675 43.7274 31.3408 41.709 29.6508 40.0819C27.9607 38.4549 25.864 37.274 23.5626 36.653L10 33.0067L23.5626 29.347C25.864 28.726 27.9607 27.5451 29.6508 25.9181C31.3408 24.291 32.5675 22.2726 33.2125 20.057L37 7Z" fill="#FEDB03"/>
<path d="M366.5 175L370.358 188.06C371.016 190.278 372.267 192.298 373.991 193.926C375.715 195.553 377.854 196.734 380.2 197.353L394 201L380.2 204.647C377.852 205.268 375.713 206.45 373.988 208.08C372.264 209.71 371.014 211.733 370.358 213.953L366.5 227L362.642 213.953C361.987 211.734 360.739 209.713 359.018 208.083C357.296 206.453 355.159 205.27 352.814 204.647L339 201L352.814 197.353C355.158 196.732 357.293 195.55 359.015 193.923C360.736 192.295 361.985 190.277 362.642 188.06L366.5 175Z" fill="#FEDB03"/>
<path d="M344 52C344 50.0222 343.384 48.0888 342.23 46.4443C341.077 44.7998 339.437 43.5181 337.518 42.7612C335.6 42.0043 333.488 41.8063 331.452 42.1921C329.415 42.578 327.544 43.5304 326.075 44.9289C324.607 46.3275 323.607 48.1093 323.202 50.0491C322.797 51.9889 323.005 53.9996 323.799 55.8268C324.594 57.6541 325.94 59.2159 327.667 60.3147C329.393 61.4135 331.423 62 333.5 62C336.285 62 338.956 60.9464 340.925 59.0711C342.894 57.1957 344 54.6522 344 52Z" fill="#FEDB03"/>
<path d="M14 185.014C14.0027 183.628 13.5941 182.273 12.826 181.12C12.0579 179.966 10.9647 179.067 9.68505 178.535C8.4054 178.004 6.99685 177.864 5.6377 178.134C4.27855 178.403 3.02997 179.07 2.05017 180.05C1.07038 181.03 0.403516 182.279 0.133858 183.638C-0.1358 184.997 0.00390138 186.405 0.535419 187.685C1.06694 188.965 1.9663 190.058 3.11955 190.826C4.2728 191.594 5.62815 192.003 7.01379 192C8.86554 191.996 10.6403 191.259 11.9497 189.95C13.2591 188.64 13.9964 186.865 14 185.014Z" fill="#FEDB03"/>
<path d="M185 6.99999C185 5.61494 184.589 4.26102 183.819 3.10958C183.05 1.95813 181.955 1.06094 180.676 0.531534C179.396 0.00212752 177.987 -0.1357 176.629 0.135513C175.271 0.406727 174.024 1.0748 173.045 2.05514C172.067 3.03549 171.401 4.28406 171.133 5.64283C170.864 7.00161 171.005 8.40948 171.537 9.68833C172.069 10.9672 172.968 12.0595 174.121 12.827C175.274 13.5945 176.629 14.0027 178.014 14C179.868 13.9963 181.645 13.2572 182.955 11.9449C184.264 10.6325 185 8.85413 185 6.99999Z" fill="#FEDB03"/>
<path d="M193 246C193 244.616 192.59 243.262 191.82 242.111C191.051 240.96 189.958 240.063 188.679 239.533C187.4 239.003 185.992 238.864 184.634 239.135C183.277 239.405 182.029 240.071 181.05 241.05C180.071 242.029 179.405 243.276 179.135 244.634C178.864 245.992 179.003 247.4 179.533 248.679C180.063 249.958 180.96 251.051 182.111 251.82C183.262 252.589 184.616 253 186 253C186.92 253.002 187.831 252.822 188.681 252.471C189.531 252.12 190.303 251.604 190.954 250.954C191.604 250.303 192.12 249.531 192.471 248.681C192.822 247.831 193.002 246.92 193 246Z" fill="#FEDB03"/>
</svg>
