<svg width="191" height="144" viewBox="0 0 191 144" fill="none" xmlns="http://www.w3.org/2000/svg">
<path d="M101.226 51H89.7739C81.6145 51 75 57.277 75 65.0201V105.98C75 113.723 81.6145 120 89.7739 120H101.226C109.385 120 116 113.723 116 105.98V65.0201C116 57.277 109.385 51 101.226 51Z" fill="#FEAE03"/>
<path d="M102.615 81.4962C100.756 82.4633 92.2445 89.9174 92.2445 89.9174C92.2445 89.9174 102.759 75.3899 103.866 73.3733C106.229 69.0521 102.837 67.586 100.651 69.4739C98.7969 71.0841 86.3118 83.235 86.3118 83.235C86.3118 83.235 95.0558 70.9452 96.2401 69.371C98.7582 65.9912 100.463 61.9941 98.8467 60.5022C96.9817 58.7789 94.0209 60.8829 92.2666 62.9664C90.5123 65.0498 78.0881 79.5928 78.0881 79.5928C78.0881 79.5928 82.9083 70.3896 84.956 65.3739C86.4945 61.6082 86.6937 58.8869 85.0334 58.1718C83.3732 57.4568 80.7113 58.9435 78.5419 63.1927C78.077 64.1084 76.699 66.3513 75 69.0469V106.395C74.9986 108.701 75.6148 110.971 76.7931 113C78.8462 112.089 82.2387 110.402 84.3915 108.416C87.6456 105.417 91.1819 100.839 93.3457 98.5085C95.5096 96.1781 102.289 90.0049 104.967 85.7968C107.646 81.5888 104.48 80.5342 102.615 81.4962Z" fill="#DCD4F6"/>
<path d="M103.924 53.5114V51H87V54.4046H87.027C87.2756 56.9688 90.9663 59 95.5 59C100.196 59 104 56.8199 104 54.1308C103.997 53.9227 103.971 53.7153 103.924 53.5114Z" fill="#1100D0"/>
<path d="M104 50.9877C104 48.2332 100.217 46 95.5 46C90.7826 46 87 48.2332 87 50.9877C87 53.7423 90.8096 56 95.5 56C100.19 56 104 53.7423 104 50.9877Z" fill="#11B7D0"/>
<path d="M99.9727 48.726V36H92V49.1092C92.1171 50.163 93.8599 51 95.9928 51C98.1258 51 99.9987 50.1025 99.9987 48.9832C100.004 48.897 99.9948 48.8106 99.9727 48.726Z" fill="#E9E5F6"/>
<path d="M103.95 34.2484V29H87V35.1894C87.2493 37.8664 90.9449 40 95.4859 40C100.19 40 103.999 37.7155 103.999 34.9026C104.004 34.6836 103.988 34.4646 103.95 34.2484Z" fill="#1100D0"/>
<path d="M104 28.0025C104 25.237 100.213 23 95.5 23C90.7874 23 87 25.237 87 28.0025C87 30.7679 90.7874 33 95.5 33C100.213 33 104 30.763 104 28.0025Z" fill="#11B7D0"/>
<path d="M29 130.399L53.8514 97.9766C53.8514 97.9766 56.7218 69.2872 56.5799 67.573C56.438 65.8588 61.0547 63.745 62.8828 67.4679C64.7109 71.1907 63.7723 81.8704 63.7723 81.8704C63.7723 81.8704 75.3904 63.4663 76.9457 60.3113C79.0848 55.968 81.7042 54.4378 83.3468 55.1792C84.9894 55.9206 84.7874 58.7075 83.2704 62.5408C81.2458 67.6677 76.4927 77.0748 76.4927 77.0748C76.4927 77.0748 88.7438 62.2043 90.4737 60.0799C92.2036 57.9556 95.1231 55.7997 96.9621 57.556C98.5556 59.0861 96.8803 63.1718 94.3918 66.6265C93.2077 68.2514 84.5692 80.8134 84.5692 80.8134C84.5692 80.8134 96.8803 68.3881 98.7084 66.7475C100.864 64.8177 104.209 66.3163 101.879 70.7333C100.788 72.7945 90.4191 87.644 90.4191 87.644C90.4191 87.644 98.8121 80.0247 100.651 79.0361C102.49 78.0476 105.633 79.1203 102.976 83.4163C100.318 87.7123 93.6388 94.0223 91.516 96.4043C89.3932 98.7863 85.8952 103.471 82.6919 106.537C79.4886 109.603 73.4641 111.974 73.4641 111.974L59.0247 141L29 130.399Z" fill="#FFAD91"/>
<path d="M71.1611 85.8885C73.039 89.6984 72.5955 96 72.5955 96C72.5955 96 76.1159 87.8064 72.0097 82.5026C69.8198 79.6697 67.5641 78.8323 66.3542 78C64.7117 80.5847 64 81.6703 64 81.6703C64 81.6703 69.2832 82.0838 71.1611 85.8885Z" fill="#CD8B74"/>
<path d="M57.1943 67C57.1943 67 57.7538 67 57.9191 67.7942C58.0844 68.5884 57.9452 72.3739 57.9452 72.3739L57 73L57.1943 67Z" fill="#FFCEBD"/>
<path d="M74 75C77.3043 76.406 80.4747 78.1203 83.4711 80.1212C88.0546 83.2462 91 89 91 89C91 89 86.5659 84.2715 82.6974 81.0265C79.9497 78.7983 77.0424 76.7839 74 75Z" fill="#CD8B74"/>
<path d="M128.312 118C128.312 118 129.409 80.685 129.272 75.4995C129.135 70.3139 127.325 69.4488 125.379 68.9537C123.432 68.4586 115.509 62.7832 113.316 60.193C111.123 57.6029 110.975 55.1326 111.627 52.8968C112.28 50.661 113.963 50.291 114.226 47.5914C114.49 44.8918 109.418 39.6906 105.261 36.3552C101.105 33.0198 95.9402 29.8564 96.0005 27.3861C96.0608 24.9158 98.6818 24.8324 98.6818 24.8324C98.6818 24.8324 97.7277 21.9556 99.4604 21.1322C101.193 20.3087 107.148 23.6024 107.148 23.6024C107.148 23.6024 111.732 23.3627 114.243 23.8578C116.754 24.3529 120.082 26.177 120.082 26.177C120.082 26.177 125.412 27.1515 127.057 27.975C128.702 28.7984 136.537 32.6654 138.741 33.7755C140.945 34.8855 144.849 38.9871 145.365 40.9362C145.88 42.8853 150.821 62.7832 151.988 67.3485C153.156 71.9139 157 113.242 157 113.242L128.312 118Z" fill="#FFAD91"/>
<path d="M98.0449 25.0121C97.513 24.8737 96.1181 25.9529 96.0058 26.6281C95.8936 27.3033 97.4302 28.7201 97.8498 28.9802C98.2695 29.2403 101 26.8495 101 26.8495C101 26.8495 98.8723 25.2224 98.0449 25.0121Z" fill="#FFCEBD"/>
<path d="M100.25 21C99.8015 21 98.9406 22.4134 99.0032 23.114C99.0659 23.8145 100.6 24.8408 100.991 24.9944C101.383 25.148 103 22.0939 103 22.0939C103 22.0939 100.955 21.0061 100.25 21Z" fill="#FFCEBD"/>
<path d="M98.041 22C97.948 22.7515 98.0136 23.5137 98.2336 24.2395C98.6303 24.2285 99.0197 24.3447 99.3424 24.5704C103.746 27.3088 116 37 116 37C116 37 111.95 32.9688 107 28.8968C103.684 26.2043 99.2851 23.4404 98.041 22Z" fill="#CD8B74"/>
<path d="M107 24.0331L124 34L109.349 24.0045C108.02 23.9855 107 24.0331 107 24.0331Z" fill="#CD8B74"/>
<path d="M122.825 26.6231C121.317 26.2601 120 26 120 26L130 33L122.825 26.6231Z" fill="#CD8B74"/>
<path d="M91 37L84.884 42.6624L83 48" stroke="#FFE5F6" stroke-width="3.65" stroke-miterlimit="10" stroke-linecap="round"/>
<path d="M86.9576 72.375C86.9576 72.375 87.7559 78.7201 82.4265 82.0083C77.0972 85.2965 74.7285 79.7523 75.0246 74.9469C75.1653 72.1743 75.8573 69.4653 77.0549 67L86.9576 72.375Z" fill="#CD8B74"/>
<path d="M82.2103 55C82.2103 55 75.6584 68.7539 76.014 73.7411C76.38 78.8689 79.2768 79.2541 82.477 78.9053C85.6771 78.5565 87 75.0113 87 72.3876C87 67.947 82.2103 55 82.2103 55Z" fill="#FEB303"/>
<path d="M82 66C82 66 79.1774 69.0778 79.0096 72.3937C78.8419 75.7095 80.8897 76.8412 83.209 75.3604C85.5283 73.8797 85.1434 70.9764 84.5365 69.4956C83.9295 68.0149 82 66 82 66Z" fill="#FEF703"/>
<path d="M86.7422 76.708C86.8603 76.4951 86.9406 76.2508 86.9773 75.9927C87.014 75.7346 87.0061 75.4691 86.9543 75.2154C86.8326 74.9214 86.6692 74.935 86.4466 75.2154C86.224 75.4958 85.8102 76.5045 86.0988 76.8708C86.3875 77.2372 86.7422 76.708 86.7422 76.708Z" fill="#D5EDFC"/>
<path d="M86.836 113.866H84.386L83.903 115H82.965L85.17 110.1H86.066L88.278 115H87.326L86.836 113.866ZM86.535 113.152L85.611 111.01L84.694 113.152H86.535ZM91.1008 115.07C90.6061 115.07 90.1581 114.963 89.7568 114.748C89.3601 114.529 89.0475 114.228 88.8188 113.845C88.5948 113.462 88.4828 113.031 88.4828 112.55C88.4828 112.069 88.5971 111.638 88.8258 111.255C89.0545 110.872 89.3671 110.574 89.7638 110.359C90.1651 110.14 90.6131 110.03 91.1078 110.03C91.5091 110.03 91.8755 110.1 92.2068 110.24C92.5381 110.38 92.8181 110.583 93.0468 110.849L92.4588 111.402C92.1041 111.019 91.6678 110.828 91.1498 110.828C90.8138 110.828 90.5128 110.903 90.2468 111.052C89.9808 111.197 89.7731 111.4 89.6238 111.661C89.4745 111.922 89.3998 112.219 89.3998 112.55C89.3998 112.881 89.4745 113.178 89.6238 113.439C89.7731 113.7 89.9808 113.906 90.2468 114.055C90.5128 114.2 90.8138 114.272 91.1498 114.272C91.6678 114.272 92.1041 114.078 92.4588 113.691L93.0468 114.251C92.8181 114.517 92.5358 114.72 92.1998 114.86C91.8685 115 91.5021 115.07 91.1008 115.07ZM97.5937 114.237V115H93.9187V110.1H97.4957V110.863H94.8287V112.137H97.1947V112.886H94.8287V114.237H97.5937ZM98.6082 110.1H99.5182V115H98.6082V110.1ZM101.838 110.87H100.214V110.1H104.372V110.87H102.748V115H101.838V110.87ZM108.729 114.237V115H105.054V110.1H108.631V110.863H105.964V112.137H108.33V112.886H105.964V114.237H108.729Z" fill="#FF4D4D"/>
<path d="M142 15.7671C142 15.7671 137.895 7.13015 128.152 6.47471C118.409 5.81928 114.73 9.75718 114.73 9.75718L113.368 5L110 18.3412L120.829 19.0443L117.755 14.8157C119.254 13.8243 120.945 13.127 122.728 12.764C124.512 12.4011 126.354 12.3798 128.146 12.7014C134.068 13.8484 136.455 21 136.455 21L142 15.7671Z" fill="black"/>
<path d="M2 142L189 2" stroke="#FF0000" stroke-width="4" stroke-miterlimit="10"/>
</svg>
